<?xml version="1.0" encoding="UTF-8"?><svg id="Layer_7" xmlns="http://www.w3.org/2000/svg" width="119" height="119" viewBox="0 0 119 119"><defs><style>.cls-1{fill:#ffa358;}.cls-2,.cls-3{fill:#ffe1b8;}.cls-4{fill:#cd5800;}.cls-5{fill:none;stroke-width:2px;}.cls-5,.cls-3{stroke:#9d2d00;stroke-miterlimit:10;}.cls-3{stroke-width:3px;}</style></defs><circle class="cls-3" cx="59.5" cy="59.5" r="58"/><path class="cls-4" d="m102.18,33.3c3.48,6.28,4.65,13.82,3.22,20.86-1.46,7.19-5.61,13.8-11.45,18.25h-.02c-.53-4.15-2.31-8.62-4.97-12.86l.3-.19c.77,1.21,2.61,1.66,3.81.83,1.23-.85,1.43-2.8.5-3.93.55.53,1.31.86,2.06.78.86-.1,1.65-.83,1.66-1.69,0-.6-.43-1.15-.97-1.35,1.06-.12,2.06-.82,2.48-1.8.52-1.23.09-2.79-.98-3.58-1.08-.79-2.69-.73-3.71.13.15-.7.3-1.42.17-2.12-.13-.7-.6-1.39-1.29-1.55-.58-.14-1.18.12-1.71.38-1.68.82-3.28,1.82-4.76,2.97l-.65-.54c4.59-5.51,9.96-10.37,15.91-14.36l.41-.23Z"/><path class="cls-1" d="m101.97,32.9c.08.13.15.27.22.4l-.41.23c-5.95,3.99-11.32,8.85-15.91,14.36-.86,1.03-1.68,2.08-2.49,3.15l-.75.53c-3.11-3.15-6.67-5.87-10.46-7.85l.9-.21c9.96-2.54,19.66-6.1,28.89-10.61Z"/><path class="cls-2" d="m89.27,59.37l-.3.19c-1.76-2.81-3.91-5.52-6.33-7.98l.75-.53c.8-1.07,1.63-2.13,2.49-3.15l.65.54c1.47-1.15,3.07-2.16,4.76-2.97.54-.26,1.13-.51,1.71-.38.7.16,1.17.85,1.29,1.55.13.7-.02,1.42-.17,2.12,1.02-.86,2.63-.92,3.71-.13,1.07.79,1.5,2.35.98,3.58-.42.99-1.42,1.69-2.48,1.8-.25-.09-.51-.11-.77-.02.26.05.51.05.77.02.54.2.98.75.97,1.35-.01.86-.81,1.59-1.66,1.69-.76.09-1.51-.25-2.06-.78-.07-.08-.14-.16-.22-.23.07.08.14.16.22.23.94,1.13.73,3.08-.5,3.93-1.2.84-3.04.39-3.81-.83Z"/><path class="cls-1" d="m93.94,72.41c.12.86.17,1.71.17,2.54,0,14.53-17.42,22.05-34.58,22.05s-34.58-7.02-34.58-21.55c0-1.87.29-3.83.83-5.84,1.11-4.15,3.29-8.49,6.2-12.51,1.51-2.08,3.21-4.07,5.07-5.92,2.54-2.52,5.35-4.75,8.33-6.53,4.48-2.66,9.32-4.29,14.15-4.29,4.29,0,8.6,1.25,12.64,3.36,3.79,1.97,7.36,4.7,10.46,7.85,2.43,2.46,4.58,5.17,6.33,7.98,2.66,4.23,4.44,8.7,4.97,12.86Zm-27.65,8.3c0-2.22-2.81-4.01-6.26-4.01s-6.26,1.79-6.26,4.01,2.8,4.01,6.26,4.01,6.26-1.79,6.26-4.01Z"/><ellipse class="cls-2" cx="60.03" cy="80.71" rx="6.26" ry="4.01"/><path class="cls-1" d="m44.89,43.53l.49,1.12c-2.98,1.77-5.8,4.01-8.33,6.53l-1.25-.09c-.67-.79-1.34-1.59-2.05-2.36-4.24-7.01-10.49-12.79-17.82-16.45l-.13-.05c.12-.35.24-.69.37-1.03,9.98,3.04,19.5,7.45,28.72,12.33Z"/><path class="cls-2" d="m33.75,48.73c.71.77,1.38,1.57,2.05,2.36l1.25.09c-1.85,1.84-3.56,3.84-5.07,5.92l-.18-.13c-1.4,1.12-2.99,1.99-4.68,2.59-.44.15-.92.29-1.36.17-.8-.22-1.18-1.21-1.02-2.02.09-.42.28-.81.51-1.17.36-.22.65-.55.74-.96-.26.31-.52.62-.74.96-.47.27-1.07.34-1.58.13-.9-.39-1.36-1.49-1.15-2.44.21-.95.99-1.72,1.9-2.06-1.37.36-2.96-.16-3.75-1.32-.8-1.17-.67-2.92.37-3.87.94-.86,2.53-.9,3.49-.09.08.11.18.21.3.3-.09-.11-.19-.21-.3-.3-.43-.59-.4-1.5.06-2.09.54-.71,1.51-.99,2.4-.89s1.7.53,2.45,1.01c1.62,1.05,3.01,2.39,4.31,3.82Z"/><path class="cls-4" d="m33.75,48.73c-1.3-1.43-2.69-2.78-4.31-3.82-.75-.49-1.56-.91-2.45-1.01s-1.86.18-2.4.89c-.46.59-.49,1.5-.06,2.09-.96-.81-2.56-.77-3.49.09-1.04.96-1.17,2.71-.37,3.87.8,1.17,2.39,1.68,3.75,1.32-.91.34-1.69,1.11-1.9,2.06-.21.95.26,2.05,1.15,2.44.51.22,1.11.15,1.58-.13-.24.36-.43.75-.51,1.17-.16.81.22,1.8,1.02,2.02.45.12.92-.02,1.36-.17,1.69-.59,3.28-1.47,4.68-2.59l.18.13c-2.92,4.02-5.1,8.35-6.2,12.51l-.72-.2c-5.1-4.71-8.74-10.97-10.31-17.74-1.49-6.41-1.11-13.23,1.06-19.44l.13.05c7.33,3.66,13.58,9.45,17.82,16.45Z"/><path class="cls-5" d="m93.94,72.41c.12.86.17,1.71.17,2.54,0,14.53-17.42,22.05-34.58,22.05s-34.58-7.02-34.58-21.55c0-1.87.29-3.83.83-5.84,1.11-4.15,3.29-8.49,6.2-12.51,1.51-2.08,3.21-4.07,5.07-5.92,2.54-2.52,5.35-4.75,8.33-6.53,4.48-2.66,9.32-4.29,14.15-4.29,4.29,0,8.6,1.25,12.64,3.36,3.79,1.97,7.36,4.7,10.46,7.85,2.43,2.46,4.58,5.17,6.33,7.98,2.66,4.23,4.44,8.7,4.97,12.86Z"/><path class="cls-5" d="m24.53,46.87c-.43-.59-.4-1.5.06-2.09.54-.71,1.51-.99,2.4-.89s1.7.53,2.45,1.01c1.62,1.05,3.01,2.39,4.31,3.82.71.77,1.38,1.57,2.05,2.36"/><path class="cls-5" d="m24.53,46.87c.11.09.21.19.3.3-.12-.09-.22-.19-.3-.3Z"/><path class="cls-5" d="m25.25,56.53c-.47.27-1.07.34-1.58.13-.9-.39-1.36-1.49-1.15-2.44.21-.95.99-1.72,1.9-2.06-1.37.36-2.96-.16-3.75-1.32-.8-1.17-.67-2.92.37-3.87.94-.86,2.53-.9,3.49-.09"/><path class="cls-5" d="m25.25,56.53c.22-.34.48-.65.74-.96-.1.41-.38.74-.74.96Z"/><path class="cls-5" d="m31.8,56.96c-1.4,1.12-2.99,1.99-4.68,2.59-.44.15-.92.29-1.36.17-.8-.22-1.18-1.21-1.02-2.02.09-.42.28-.81.51-1.17"/><path class="cls-5" d="m93.57,56.26c.94,1.13.73,3.08-.5,3.93-1.2.84-3.04.39-3.81-.83-.07-.12-.14-.24-.19-.36"/><path class="cls-5" d="m93.57,56.26c-.08-.08-.15-.15-.22-.23.08.07.15.15.22.23Z"/><path class="cls-5" d="m96.33,54c.54.2.98.75.97,1.35-.01.86-.81,1.59-1.66,1.69-.76.09-1.51-.25-2.06-.78"/><path class="cls-5" d="m96.33,54c-.26.04-.51.03-.77-.02.26-.09.52-.08.77.02Z"/><path class="cls-5" d="m86.52,48.42c1.47-1.15,3.07-2.16,4.76-2.97.54-.26,1.13-.51,1.71-.38.7.16,1.17.85,1.29,1.55.13.7-.02,1.42-.17,2.12,1.02-.86,2.63-.92,3.71-.13,1.07.79,1.5,2.35.98,3.58-.42.99-1.42,1.69-2.48,1.8"/><path class="cls-5" d="m70.63,72.54c1.01,1.88,3,3.19,5.12,3.38,2.12.19,4.31-.76,5.63-2.43"/><path class="cls-5" d="m37.26,72.74c1.01,1.87,3,3.19,5.12,3.37,2.12.19,4.31-.75,5.63-2.43"/><ellipse class="cls-5" cx="60.03" cy="80.71" rx="6.26" ry="4.01"/><path class="cls-5" d="m59.64,85.21c-.02,1.17-.41,2.36-1.21,3.22s-2.02,1.35-3.18,1.12c-1.15-.22-2.15-1.22-2.23-2.4"/><path class="cls-5" d="m59.98,85.25c-.09,1.05.11,2.15.72,3.01.61.86,1.68,1.42,2.72,1.26.76-.12,1.43-.61,1.9-1.23.46-.62.74-1.36.93-2.1"/><path class="cls-5" d="m73.08,43.51c9.96-2.54,19.66-6.1,28.89-10.61.08.13.15.27.22.4,3.48,6.28,4.65,13.82,3.22,20.86-1.46,7.19-5.61,13.8-11.45,18.25"/><path class="cls-5" d="m83.38,51.04c.8-1.07,1.63-2.13,2.49-3.15,4.59-5.51,9.96-10.37,15.91-14.36"/><path class="cls-5" d="m44.89,43.53c-9.22-4.88-18.74-9.29-28.72-12.33-.13.34-.26.68-.37,1.03-2.17,6.21-2.55,13.04-1.06,19.44,1.57,6.77,5.22,13.03,10.31,17.74"/><path class="cls-5" d="m35.1,51.13c-.43-.81-.88-1.61-1.35-2.4-4.24-7.01-10.49-12.79-17.82-16.45"/></svg>