<?xml version="1.0" encoding="UTF-8"?><svg id="Layer_3" xmlns="http://www.w3.org/2000/svg" width="63.89" height="67.83" xmlns:xlink="http://www.w3.org/1999/xlink" viewBox="0 0 63.89 67.83"><defs><style>.cls-1{fill:none;}.cls-2{clip-path:url(#clippath);}.cls-3{fill:#fee1bb;}</style><clipPath id="clippath"><rect class="cls-1" x="5.76" y="5.11" width="52.38" height="57.62" transform="translate(-6.75 7.97) rotate(-12.87)"/></clipPath></defs><g id="Group_38"><g class="cls-2"><g id="Group_35-5"><path id="Path_31-5" class="cls-3" d="m26.83,31.89c1.05.74,2.46.68,3.44-.13.93-.82,1.27-2.12.86-3.29-.92-2.82-4.5-2.98-6.54-1.32-2.05,2.03-2.78,5.05-1.88,7.8.49,2.53,1.94,4.77,4.05,6.26,4.44,2.84,10.15-.54,11.5-5.2,1.55-5.36-1.47-11.71-5.84-14.88-4.86-3.53-11.34-1.3-14.33,3.55-3.25,5.25-2.47,11.79-.88,17.43.56,2.52,1.77,4.85,3.51,6.77,2.07,1.84,4.83,2.69,7.57,2.33,3.33-.21,6.67-.74,9.97-1.23,2.78-.41,6.01-.84,7.43-3.62.98-2.66,1.21-5.55.65-8.33-.29-3.35-.86-6.68-1.69-9.94-1.34-5.24-3.21-11.17-7.36-14.92-1.94-1.79-4.42-2.88-7.05-3.08-2.93-.09-5.85.45-8.55,1.58-5.11,1.67-9.55,4.92-12.69,9.27-3.38,5.2-2.98,11.66-2.43,17.56.27,6.32,2.48,12.4,6.33,17.43,1.87,2.21,4.23,3.95,6.9,5.07,2.8,1.1,5.77,1.72,8.78,1.82,6.36.35,12.7-1,18.36-3.93,5.03-2.45,8.99-6.67,11.12-11.85,1.67-5.5,1.63-11.37-.13-16.84-2.85-10.81-8.86-23.07-20.98-25.42-2.59-.53-5.28-.44-7.83.26-1.02.29-.66,1.89.37,1.6,4.73-1.18,9.73-.28,13.76,2.46,4.33,3,7.72,7.17,9.75,12.03,2.28,4.83,3.79,9.99,4.47,15.29.78,5.02-.39,10.14-3.26,14.33-3.08,3.95-7.27,6.89-12.03,8.45-5.47,1.97-11.35,2.52-17.1,1.6-2.64-.4-5.17-1.35-7.43-2.78-2.1-1.43-3.87-3.28-5.2-5.44-2.87-5.12-4.41-10.89-4.46-16.76-.25-2.72-.19-5.46.16-8.17.39-2.48,1.4-4.83,2.92-6.82,3.04-3.64,7.06-6.34,11.58-7.77,2.42-.97,5.02-1.42,7.62-1.32,2.36.22,4.57,1.26,6.23,2.94,3.53,3.47,5.16,8.6,6.4,13.26.77,2.93,1.33,5.91,1.67,8.92.17,1.5.28,3.01.32,4.51.07,1.14-.04,2.29-.32,3.39-.83,2.69-3.56,3.14-6.01,3.5-3.02.45-6.05.87-9.09,1.19-2.43.51-4.97.05-7.06-1.29-1.68-1.54-2.86-3.55-3.39-5.77-1.53-4.98-2.51-10.85-.15-15.74,1.04-2.29,2.9-4.1,5.21-5.09,2.31-.97,4.94-.73,7.04.64,2.06,1.45,3.69,3.44,4.7,5.75,1.15,2.26,1.49,4.86.94,7.34-1.07,4.02-6.09,7.12-9.72,4.07-1.74-1.63-2.8-3.86-2.95-6.24-.21-2.2.76-5.56,3.55-5.46,1.07-.05,1.98.78,2.03,1.85,0,0,0,0,0,0,.01.67-.52,1.22-1.19,1.23-.28,0-.55-.09-.76-.26-.84-.64-1.71.75-.88,1.39"/></g></g></g></svg>