<?xml version="1.0" encoding="utf-8"?>
<!-- Generator: Adobe Illustrator 27.2.0, SVG Export Plug-In . SVG Version: 6.00 Build 0)  -->
<svg version="1.1" id="Layer_1" xmlns="http://www.w3.org/2000/svg" xmlns:xlink="http://www.w3.org/1999/xlink" x="0px" y="0px"
	 viewBox="0 0 400 400" style="enable-background:new 0 0 400 400;" xml:space="preserve">
<style type="text/css">
	.st0{fill:#060504;}
	.st1{fill:#E1883F;}
	.st2{fill:#415779;}
	.st3{fill:#D7B48C;}
	.st4{fill:#9E381E;}
	.st5{fill:#F7F5EB;}
	.st6{fill:#8DAA86;}
	.st7{fill:#D8BE67;}
	.st8{fill:#323232;}
	.st9{fill:#0B0B08;}
	.st10{fill:#C27537;}
	.st11{fill:#573419;}
	.st12{fill:#8D5528;}
	.st13{fill:#61605C;}
	.st14{fill:#241F11;}
	.st15{fill:#CCCBC2;}
</style>
<g>
	<path class="st0" d="M204.6,31.9c-92.1-2.8-171.8,70.1-172,166.8c-0.1,92.8,73.8,165.6,164.1,167c95.3,1.5,169.6-75.1,169.7-166.5
		C366.7,108,294.1,34.6,204.6,31.9z M199.1,362.4C110.6,363,36,290,35.8,199C35.6,109.5,109,33.5,202.3,35
		c88.3,1.4,161.1,73.6,161,163.9C363.3,290.8,287.6,363.6,199.1,362.4z"/>
	<path class="st1" d="M202.3,35C109,33.5,35.6,109.5,35.8,199c0.2,91,74.8,164,163.3,163.4c88.5,1.2,164.2-71.6,164.2-163.5
		C363.4,108.6,290.6,36.4,202.3,35z M198.9,358.3c-88.2-0.2-159.3-72.8-159.1-159.9c0.2-86.1,69.9-159.5,160-159.1
		c90.4,0.3,159.4,74.2,158.7,159.7C359.1,286.7,286.7,358.5,198.9,358.3z"/>
	<path class="st0" d="M218.5,147.4l0.9,2.7C219.2,149.1,218.9,148.2,218.5,147.4z"/>
	<path class="st0" d="M115.6,235.7L115.6,235.7c0,0.1,0.1,0.1,0.1,0.1C115.7,235.8,115.6,235.8,115.6,235.7z"/>
	<path class="st0" d="M199.8,39.3c-90.1-0.4-159.8,73-160,159.1c-0.2,87.1,70.9,159.7,159.1,159.9c87.8,0.2,160.2-71.6,159.6-159.3
		C359.2,113.5,290.2,39.6,199.8,39.3z M167.2,351.1C167.2,351.1,167.2,351.1,167.2,351.1c0,0.3-0.1,0.5-0.1,0.8
		c-0.5-0.2-1-0.4-1.5-0.7c-3.3-4.9-6.6-9.8-10-14.6c-0.3-0.4-0.7-0.7-1.1-1l10.3,16.3l-1.7,1.1l-2.2-3.5c-0.4,0.3-0.5,0.5-0.6,0.5
		c-0.5-0.1-1.1-0.1-1.4-0.4c-27.9-35-55.8-70.1-83.7-105.1c-0.5-0.6-0.7-1.5-1.1-2.5c5.1-1.7,10.1-0.9,15.6-1.3c0-10.3,0-20.7,0-31
		c0.3,0,0.6,0,0.9,0c0,10,0,20,0,29.5c3.4,5.3,6.4,10.1,9.5,14.9c0.4,0.7,0.8,1.7,1.6,2l-2.8-4.4l1.6-1c-1.5-2.6-3.1-5.2-4.7-7.8
		c-0.1-0.1-0.1-0.1-0.1-0.2c-0.7-0.6-1.6-1.2,0.2-1.8c0,0,0,0.1,0,0.1c0,0,0,0,0,0c5.4,0,10.8,0,16.8,0c2,3.8,4.1,8,6.2,12.1
		c12.2,24.5,24.4,49,36.5,73.6C159.4,334.7,163.3,342.8,167.2,351.1c0-0.1,0-0.1,0-0.1C167.2,351,167.2,351.1,167.2,351.1
		C167.2,351.1,167.2,351.1,167.2,351.1z M69.1,236.3c7.1-29.6,14.1-58.9,21.4-89.2c7.3,30.1,14.4,59.2,21.5,88.4
		c-0.2,0.4-0.5,0.7-0.8,0.8c0,0-0.1,0-0.1,0c-5.9,0-11.6,0-17.9,0c0-10.4,0-20.6,0-31c-1.7,0-3,0-4.3,0c-0.4,0.2-0.6,0.5-0.8,0.8
		c0,0,0,0,0,0c-0.1,8-0.1,16-0.2,23.9c0,1.8-0.1,3.7-0.2,5.5c0.1,0.2,0.3,0.5,0.5,0.8c-0.6,0-1,0-1.4,0
		C81.1,236.3,75.4,236.3,69.1,236.3z M73.6,241.1c-0.2,0-0.5,0-0.7,0c0.1-0.1,0.2-0.2,0.3-0.3C73.3,240.9,73.4,241,73.6,241.1z
		 M88.6,142.6c0,1.3,0.3,2.7,0,3.9c-3,12.4-6.2,24.8-9.3,37.3c-2,8.4-3.9,16.8-5.8,25.3c0,0.9,0,1.8,0,2.7c-0.3,0-0.5,0-0.8,0
		c0-0.9,0-1.8,0-2.7C71.5,185.4,76.4,163.1,88.6,142.6z M89,140.8c0-0.1,0.2-0.2,0.3-0.3c0.1,0.1,0.3,0.3,0.3,0.4
		c0,0.1-0.2,0.2-0.3,0.3C89.2,141.1,89,140.9,89,140.8z M335,202.1c0.3,5.8,0.1,11.3,0.1,16.8c0,5.4,0,10.8,0,16.5
		c-9.3,0-18.5,0-27.9,0c0-29.2,0-58.4,0-87.8c3,0,6,0,9.3,0c0,18.2,0,36.2,0,54.5C322.7,202.1,328.5,202.1,335,202.1z M319,197.7
		c0-14.5,0-29.1,0-44.3c6.7,14.4,9.1,29,10.1,44.3C325.6,197.7,322.5,197.7,319,197.7z M305.2,143.5c0,4.5,0,8.6,0,12.8
		c0,0,0,0.1-0.1,0.1c0,0,0,0,0.1,0c0,0.6,0,1.2,0,1.9c-0.2,0.1-0.5,0.2-0.7,0.2c-0.3-0.7-0.6-1.3-1-2c-11.8-27.5-30.9-48-58.1-60.8
		c-10.9-5.1-22.4-8.1-34.6-9.4c-16.3-1.7-32.2,0-47.4,5.5c-26.3,9.6-46.7,26.7-60.7,51.1c-1.3,2.3-2.7,4.6-3.9,7
		c-1.2,2.4-2.2,4.9-3.7,8.2c-1.7-7.3-3.3-13.7-4.9-20.5c29.3-44.5,70.1-66.1,123.2-62C256.9,79,296,107.2,313.6,143
		C310.9,143.2,308.3,143.3,305.2,143.5z M187.6,354.7c-9.9-38.1-19.7-75.8-29.7-114.2c7.2,0,13.6,0,20,0c0,0,0.1-0.1,0.1-0.1
		c0.2-0.3,0.4-0.6,0.7-0.8c0-31.7,0-63.3,0-95.5c-2.7,0-5.2,0-7.7,0c-0.6,0.1-1.2,0.1-1.8,0.2c0-0.2-0.1-0.4-0.1-0.5
		c0.5-0.2,1.1-0.4,1.6-0.5c0,0,0,0,0,0c0,0,0.1,0,0.1,0c7.4-4.8,15.7-6.5,24.2-7.1c7.2-0.5,14.4,0.1,21.4,2c0-0.5,0-1.1,0-1.6
		c0,0-0.1-0.1-0.1-0.1c-11.6-3.3-23.2-3.3-34.7-0.1c-4.6,1.3-9,3.5-13.4,5.6c-2.8,1.3-5.4,2.5-8.6,2.3c-5-0.3-10.1-0.1-15.1-0.2
		c0,0,0-0.1,0-0.1c-0.2,0-0.4,0-0.6,0c0.2-0.2,0.3-0.3,0.5-0.5c0,0,0,0,0,0c6.8-7.5,15.3-12.4,24.5-16.2c8.5-3.5,17.3-5,26.5-5.4
		c13.1-0.6,25.7,1.1,37.7,6.5c16.5,7.5,29.1,19.1,35.4,36.6c0.7,1.9,1.2,3.9,1.2,5.8c0,20.6,0,41.1-0.1,61.7
		c0.1,0.4-0.4,0.8-0.2,1.3c0.1-0.5,0.2-0.9,0.4-1.4c-0.1,0.5-0.3,0.9-0.4,1.4c-0.4-0.5-0.9-0.9-1.1-1.4c-2.7-10.9-5.3-21.9-8.1-32.8
		l6.4,27.3l-1.8,0.4c0.7,2.7,1.3,5.5,2,8.2c0,0,0,0,0,0c0,0,0,0,0,0c0,0,0,0.1,0,0.1c-0.2,0.4-0.5,0.6-0.9,0.8c-5.9,0-11.7,0-18,0
		c0-10.4,0-20.6,0-31c-1.9,0-3.3,0-5.2,0c0,10.2,0,20.4,0,30.8c-6.4,0-12.4,0-18.8,0c3.2-13.8,6.3-27.5,9.5-41.2c-0.5,0-1.1,0-1.6,0
		c0,0-0.1,0.1-0.1,0.1c-1.7,6.4-3.4,12.9-5.1,19.3c0,0.1-0.1,0.1-0.1,0.1c-0.1,1.3-0.2,2.7-0.3,4.1c-0.2,0-0.4,0-0.6,0
		c0.1-1.4,0.1-2.9,0.1-4.4c0,0,0.1,0,0.1,0c-0.1-6.9-0.4-13.7-3.3-20.1c-0.1,0-0.1-0.1-0.2-0.2c0,0.1,0,0.1,0.1,0.2
		c-0.4,0.5-0.8,1-1.2,1.5c1.9,7.4,3.2,14.8,2.2,22.4c-0.6,4.3-1.7,8.6-3.2,12.6c-0.8,2.2-2.8,4-4,5.6c-11.7,0-22.6,0-33.8,0
		c0-6.3,0-12.4,0-19.1c6.1,0,12.1,0,18.3,0c0-3.9,0-7.4,0-11.1c-6.1,0-11.9,0-17.7,0c-1.1-3.8-1.2-24.1-0.2-29.8
		c5.7,0,11.5,0,17.8,0c0-3.8,0-7.1,0-10.9c-6,0-12,0-18.2,0c0-6.2,0-11.9,0-17.8c10.5,0,20.9,0,31.1,0c1.1,0.4,1.7,1.2,2.5,2
		l-0.7-1.9l2.7-0.9c-1.3-1.9-3.3-3.1-6-3.2c-10.4-0.3-20.8-0.1-31.5-0.1c0,8.5,0,16.7,0,25.5c3.3,0,6.4-0.2,9.5,0
		c2.8,0.2,6-1,9.1,2.1c-6.4,1.8-12.4,0.2-18.6,1.1c0,12.1,0,24.3,0,37.2c5.9,0.1,11.7,0.3,17.6,0.4c0.2,1.2,0.3,2,0.4,3.3
		c-6,0-11.8,0-18.4,0c0,9.5-0.1,18.5,0,27.5c0.9,5.9,2,11.8,2.6,17.7c2.1,17.8,4,35.7,5.9,53.6c1.5,14.2,2.9,28.4,4.3,43.2
		C191.2,354.9,189.4,354.8,187.6,354.7z M160.7,236.3c-0.3-0.2-0.6-0.5-0.9-0.8c0.1,0.1,0.3,0.3,0.4,0.4c-0.1-0.1-0.2-0.2-0.3-0.4
		c-0.1-8.1-0.1-16.2-0.2-24.2c0-18.5,0-37.1,0-55.6c0-1.7,0-3.4,0-5c5.1-5.1,11.2-1.9,17-3c0.1,1.5,0.2,2.5,0.2,3.5
		c0,27.5,0,54.9,0,82.4c0,0.7-0.1,1.3-0.2,2c-0.2,0.3-0.4,0.6-0.8,0.7C170.9,236.3,165.8,236.3,160.7,236.3
		c-0.1-0.1-0.2-0.2-0.3-0.3C160.5,236.1,160.6,236.2,160.7,236.3z M157.5,146c0,30.3,0,60.6,0,91c-0.2,0-0.3,0-0.5,0
		c0-30.3,0-60.7,0-91C157.2,146,157.3,146,157.5,146z M223.2,231c-0.1,0-0.3,0-0.4,0c0-0.4,0-0.8,0-1.2c0.2,0,0.3,0,0.3,0
		C223.1,230.2,223.2,230.6,223.2,231z M222.2,232.8c0,0.5,0,1.1,0,1.6c-0.1,0-0.3,0-0.4,0c0-0.5,0-1.1,0-1.6
		C221.9,232.8,222,232.8,222.2,232.8z M221.2,235.6c0,0.6-0.1,1.3-0.1,1.9c-0.2,0.1-0.4,0-0.7,0c0.1-0.6,0.1-1.3,0.2-1.9
		C220.8,235.6,221,235.6,221.2,235.6z M206.1,354.8c-3.2,0-6.3,0-9.7,0c-0.8-6.3-1.5-12.6-2.2-18.9c-1.6-14.4-3.3-28.7-4.8-43.1
		c-0.9-8.2-1.6-16.4-2.4-24.6c-0.9-8.9-1.9-17.7-2.8-26.5c0.1-0.1,0.1-0.2,0.2-0.3c-0.1,0.1-0.1,0.1-0.2,0.2
		c0.1-0.1,0.2-0.2,0.3-0.3c0.2-0.2,0.3-0.4,0.5-0.5c10.1,0,20.2,0,30.1,0c1.7-1,3.2-1.8,5-2.7c1.2,3.7,0.5,7.1,0.1,10.5
		c-1.4,11-3.1,21.9-4.6,32.9c-1.2,8.7-2.1,17.3-3.3,26c-1.2,8.8-2.5,17.6-3.7,26.4C207.7,340.7,206.9,347.6,206.1,354.8z
		 M209.2,355.3c5.1-38.5,10.2-76.4,15.2-114.5c7,0,13.5,0,20.4,0c0-10.6,0-20.8,0-31c0.3,0,0.7,0,1,0c0.4,10.1,0,20.1,0.2,30.9
		c6.7,0.1,13.4,0.2,20,0.3c0,0,0,0,0,0c0,0,0-0.1,0-0.1c1.3,0.4,1.3,0.6,0.1,1.9c-3.2,7.6-6.3,15.2-9.6,22.7
		c-12.9,29.3-25.9,58.6-39.1,88.5C215.1,354.4,212.6,354.8,209.2,355.3z M242.4,349c-4.9,1-9.7,2.5-14.6,3.6
		c-1.9,0.4-3.9,0.4-6.7,0.6c16.7-37.9,33.1-75.1,49.6-112.6c1.3-0.1,2.6-0.3,3.9-0.3c7.2,0,14.5,0,21.7,0c1.8,0,3.7-0.4,5.5-0.7
		c0-13.6,0-27.3,0-41.4c-6.3,0-12.3,0-18.6,0c0-18.4,0-36.3,0-54.6c-4.4,0-8.7,0-13.4,0c0,4.3,0,8.5,0,12.7c0,0,0,0.1,0,0.1
		c0,0,0,0,0,0c0.1,0.6,0.2,1.2,0.2,1.8c-0.2,0-0.3,0.1-0.5,0.1c-0.2-0.5-0.4-1-0.6-1.5c0,0,0,0,0.1-0.1c0,0,0,0-0.1,0
		c-8.3-15-20.4-25.7-36.2-32.1c-13.3-5.4-27.1-7.3-41.4-5.8c-15.8,1.7-30.1,6.8-42.7,16.5c-5.9,4.6-10.9,10.1-14.9,16.4
		c-1,1.5-1.9,3.1-3.1,5c-2.2-4.4-4.2-8.4-6.1-12.4c-3.6,0-7,0-10.3,0c0,0-0.1,0.1-0.1,0.1c-0.2,0.2-0.4,0.5-0.6,0.7
		c0,0-0.1,0.1-0.1,0.1c0,0.2,0,0.4,0,0.6l1.9,0l0,2.2c0.2,0,0.4,0,0.6,0c2.5,0,5,0,7.7,0c4.4,8.9,8.7,17.7,13.1,26.3
		c2.3,4.6,4.9,8.9,7.2,13.4h0.1c0,0.1,0,0.2,0,0.3l0.1,0.3l0.1-0.5c0-13.1,0-26.2,0-39.7c4,0,7.5,0,11.1,0c0,29.4,0,58.6,0,88.2
		c-7.4,0-14.6,0-21.8,0c-0.2-0.1-0.4-0.1-0.6-0.2l0,1.4l-2.3,0c-0.1,0.8-0.1,1.7-0.2,2.8c8.1,0,15.9,0,24.3,0
		c9.9,37.9,19.7,75.4,29.6,113.7c-2.4-0.2-4.4-0.3-6.3-0.5c-2-0.3-4-0.7-5.9-1c-4.2-6.4-54.2-108.4-54.9-112c3.7,0,7.4,0,11.2,0
		c0-3,0-5.6,0-8.3c0-2.7,0-5.4,0-8.1s-0.1-5.4,0-8.1c0.1-2.5-0.3-5.1,0.3-7.6c0.3,0,0.6,0,0.8-0.1l0-2.9l2.3,0
		c-0.1-0.2-0.1-0.5-0.2-0.7c-1.4-0.1-2.9-0.2-4.9-0.3c0,10.9,0,21.2,0,31.8c-3.8,0-7.1,0-10.4,0c-0.2-0.1-0.3-0.2-0.4-0.3
		c0.1,0.1,0.2,0.2,0.3,0.3c-0.2-0.1-0.4-0.3-0.6-0.5l0,0.2l-3,0l0-10.3c-2.8-7.1-10.9-38.4-15.9-62.5c6.9-18.4,17.5-34.3,32.2-47.2
		c17.1-15.1,37-24.5,59.9-26.4c45.9-3.9,80,15.7,104.5,53.6c5.1,7.9,8.7,16.7,11.5,25.7c0.3,1.1,0.5,2.3,0.5,3.5
		c0,21.9,0,43.9,0,65.8c0,0.5-0.1,0.9-0.2,1.4c8.9,0.4,17.7,0.7,27.3,1.1c-1.9,2.6-3.6,4.8-5.3,6.9c-21.3,26.5-42.6,53-63.9,79.5
		c-4.6,5.8-9.2,11.6-13.8,17.4C247.6,346.8,245.5,348.4,242.4,349z M299.5,202.3c0,11.2,0,22.1,0,33.2c-9.2,0-18.2,0-27.5,0
		c0-29.2,0-58.3,0-87.8c2.8,0,5.7,0,9,0c0,17.9,0,35.9,0,54.6C287.5,202.3,293.4,202.3,299.5,202.3z M141.3,147.2
		c0.3-0.2,0.6-0.3,0.9-0.5c0,0.3,0,0.6,0,0.8c0,10,0,20.1,0,30.1c0,0.6,0.1,1.1,0.1,1.7c-0.2,0-0.3,0.1-0.5,0.1
		c-0.1-0.5-0.2-1-0.3-1.6c-3-5.7-6.1-11.4-9.1-17.2C135,155.6,137.5,150.9,141.3,147.2C141.3,147.2,141.3,147.2,141.3,147.2z
		 M252.4,345.7c-0.1,0-0.2-0.2-0.3-0.3c0.1-0.1,0.2-0.2,0.3-0.2c0.1,0,0.2,0.2,0.3,0.3C252.6,345.6,252.5,345.7,252.4,345.7z
		 M328.8,285.7c-4.8,7.1-10.2,13.7-16,20c-12.7,13.8-27.6,24.3-44,33c-4.6,2.5-9.7,4.2-14.5,6.3c-0.3-0.3-0.5-0.7-0.8-1
		c13.9-17.3,27.8-34.5,41.6-51.8c14-17.4,27.9-34.8,41.6-52c0-14.2,0-27.8,0-41.8c-1.6-0.3-3.1-0.6-4.9-1c-0.1-13.4-3-26.3-7.3-38.8
		c-5-14.4-12.5-27.4-22.2-39.1c-11.7-14.1-25.7-25.6-42.1-33.8c-16.3-8.2-33.6-12.5-51.9-13.7c-28.8-1.9-55.2,5.1-79.1,20.7
		c-25.4,16.6-43.4,39.4-53.1,68.7c-5.8,17.2-8,34.7-6.3,52.5c0.9,9.4-3.8,17.1-3.9,25.7c4.5,5.6,9.1,11.1,13.5,16.7
		c13.9,17.5,27.7,35,41.6,52.4c9.6,12.1,19.3,24.1,28.9,36.2c0.4,0.5,0.4,1.2,0.6,1.9l0.1,0.3l0.1-0.1c0.5,0.1,1.1,0.2,1.6,0.3
		c-0.1,0.2-0.2,0.4-0.3,0.7c-0.5-0.3-1-0.5-1.5-0.8l0.1-0.1c-16.3-4.6-30.8-12.9-44.4-22.7c-9.5-6.8-17.8-14.9-25.4-23.6
		c-10.1-11.7-18.7-24.5-24.5-39c-2.5-6.4-5.2-12.7-7.3-19.2c-1.7-5.2-3.1-10.6-3.6-16.1c-1.1-11.2-2.2-22.4-2-33.6
		c0.2-9.6,1.3-19.4,3.4-28.8c4.3-19.4,12.3-37.4,23.6-53.8c13.7-19.9,31.1-35.5,51.9-47.6c12.9-7.4,26.6-12.5,40.9-16.1
		c8.4-2.1,17-3.5,25.8-3.6c4.7-0.1,9.4-1,14-0.7c20.6,1.2,40.6,5.2,59.6,13.8c19.3,8.7,36.1,20.6,50.5,35.9
		c13.3,14.2,23.7,30.4,30.8,48.5c2.4,6.2,5,12.4,6.6,18.9c1.7,6.8,2.7,13.8,3.4,20.7c0.8,7.8,0.8,15.8,1.1,23.6
		c0.5,11.3-1.7,22.4-4.4,33.2C346.3,254.4,339.1,270.7,328.8,285.7z"/>
	<path class="st2" d="M355,203.7c-0.3-7.8-0.3-15.8-1.1-23.6c-0.7-6.9-1.7-13.9-3.4-20.7c-1.6-6.5-4.2-12.7-6.6-18.9
		c-7.1-18.1-17.5-34.3-30.8-48.5c-14.4-15.3-31.2-27.2-50.5-35.9c-19-8.6-39-12.6-59.6-13.8c-4.6-0.3-9.3,0.6-14,0.7
		c-8.8,0.1-17.4,1.5-25.8,3.6c-14.3,3.6-28,8.7-40.9,16.1c-20.8,12.1-38.2,27.7-51.9,47.6c-11.3,16.4-19.3,34.4-23.6,53.8
		c-2.1,9.4-3.2,19.2-3.4,28.8c-0.2,11.2,0.9,22.4,2,33.6c0.5,5.5,1.9,10.9,3.6,16.1c2.1,6.5,4.8,12.8,7.3,19.2
		c5.8,14.5,14.4,27.3,24.5,39c7.6,8.7,15.9,16.8,25.4,23.6c13.6,9.8,28.1,18.1,44.4,22.7l-0.1-0.3c-0.2-0.7-0.2-1.4-0.6-1.9
		c-9.6-12.1-19.3-24.1-28.9-36.2c-13.9-17.4-27.7-34.9-41.6-52.4c-4.4-5.6-9-11.1-13.5-16.7c0.1-8.6,4.8-16.3,3.9-25.7
		c-1.7-17.8,0.5-35.3,6.3-52.5c9.7-29.3,27.7-52.1,53.1-68.7c23.9-15.6,50.3-22.6,79.1-20.7c18.3,1.2,35.6,5.5,51.9,13.7
		c16.4,8.2,30.4,19.7,42.1,33.8c9.7,11.7,17.2,24.7,22.2,39.1c4.3,12.5,7.2,25.4,7.3,38.8c1.8,0.4,3.3,0.7,4.9,1c0,14,0,27.6,0,41.8
		c-13.7,17.2-27.6,34.6-41.6,52c-13.8,17.3-27.7,34.5-41.6,51.8c0.3,0.3,0.5,0.7,0.8,1c4.8-2.1,9.9-3.8,14.5-6.3
		c16.4-8.7,31.3-19.2,44-33c5.8-6.3,11.2-12.9,16-20c10.3-15,17.5-31.3,21.8-48.8C353.3,226.1,355.5,215,355,203.7z"/>
	<path class="st3" d="M305.1,239.6c0.1-0.5,0.2-0.9,0.2-1.4c0-21.9,0-43.9,0-65.8c0-1.2-0.2-2.4-0.5-3.5c-2.8-9-6.4-17.8-11.5-25.7
		c-24.5-37.9-58.6-57.5-104.5-53.6c-22.9,1.9-42.8,11.3-59.9,26.4c-14.7,12.9-25.3,28.8-32.2,47.2c5,24,13,55.4,15.9,62.5l-0.3-79.8
		l1.1,0c0-0.2,0-0.4,0-0.6c0,0,0.1-0.1,0.1-0.1c-0.1,0.1-0.1,0.1-0.2,0.2c0.1-0.1,0.1-0.2,0.2-0.3c0.2-0.2,0.4-0.5,0.6-0.7
		c0,0,0,0,0,0c0,0,0,0,0,0c0,0,0.1-0.1,0.1-0.1c3.3,0,6.7,0,10.3,0c1.9,4,3.9,8,6.1,12.4c1.2-1.9,2.1-3.5,3.1-5
		c4-6.3,9-11.8,14.9-16.4c12.6-9.7,26.9-14.8,42.7-16.5c14.3-1.5,28.1,0.4,41.4,5.8c15.8,6.4,27.9,17.1,36.2,32.1c0,0,0,0,0.1,0
		c0.2-0.2,0.5-0.3,0.8-0.3c0,0,0-0.1,0-0.1c0-4.2,0-8.4,0-12.7c4.7,0,9,0,13.4,0c0,18.3,0,36.2,0,54.6c6.3,0,12.3,0,18.6,0
		c0,14.1,0,27.8,0,41.4c1.1,0,2.1,0,3.2,0C305,239.6,305.1,239.6,305.1,239.6z"/>
	<path class="st1" d="M327.1,247.6c1.7-2.1,3.4-4.3,5.3-6.9c-9.6-0.4-18.4-0.7-27.3-1.1c0,0-0.1,0-0.1,0c-1.1,0-2.1,0-3.2,0
		c-1.8,0.3-3.7,0.7-5.5,0.7c-7.2,0-14.5,0-21.7,0c-1.3,0-2.6,0.2-3.9,0.3c-16.5,37.5-32.9,74.7-49.6,112.6c2.8-0.2,4.8-0.2,6.7-0.6
		c4.9-1.1,9.7-2.6,14.6-3.6c3.1-0.6,5.2-2.2,7-4.5c4.6-5.8,9.2-11.6,13.8-17.4C284.5,300.6,305.8,274.1,327.1,247.6z"/>
	<path class="st4" d="M213.4,75.6c-53.1-4.1-93.9,17.5-123.2,62c1.6,6.8,3.2,13.2,4.9,20.5c1.5-3.3,2.5-5.8,3.7-8.2
		c1.2-2.4,2.6-4.7,3.9-7c14-24.4,34.4-41.5,60.7-51.1c15.2-5.5,31.1-7.2,47.4-5.5c12.2,1.3,23.7,4.3,34.6,9.4
		c27.2,12.8,46.3,33.3,58.1,60.8c0.6,0,1.1-0.1,1.6-0.1c0,0,0-0.1,0.1-0.1c0-4.2,0-8.3,0-12.8c3.1-0.2,5.7-0.3,8.4-0.5
		C296,107.2,256.9,79,213.4,75.6z"/>
	<path class="st5" d="M115.7,235.9c0,0,0.1,0.1,0.1,0.1c0.1,0.1,0.3,0.2,0.4,0.3c3.3,0,6.6,0,10.4,0c0-10.6,0-20.9,0-31.8
		c2,0.1,3.5,0.2,4.9,0.3c0.1,0.2,0.2,0.5,0.2,0.7l0.7,0l0.4,30.3c0.2,0.2,0.3,0.3,0.5,0.5c-0.2,0-0.4-0.1-0.5-0.2l0,0.1
		c0.2,0.1,0.4,0.1,0.6,0.2c7.2,0,14.4,0,21.8,0c0-29.6,0-58.8,0-88.2c-3.6,0-7.1,0-11.1,0c0,13.5,0,26.6,0,39.7l-0.1,0.5l-0.1-0.3
		c0,0.2,0.1,0.3,0.1,0.5c-0.1,0-0.2,0-0.3,0c0-0.3,0-0.5,0-0.8h0.1c-2.4-4.5-5-8.8-7.2-13.4c-4.4-8.6-8.7-17.4-13.1-26.3
		c-2.7,0-5.2,0-7.7,0c-0.2,0-0.4,0-0.6,0l0.3,87.6C115.6,235.8,115.7,235.8,115.7,235.9z"/>
	<path class="st5" d="M219.5,191.5C219.5,191.5,219.5,191.5,219.5,191.5L219.5,191.5C219.5,191.5,219.6,191.5,219.5,191.5
		c0-0.1,0-0.3-0.1-0.4c0,0.1,0,0.3,0,0.4C219.4,191.5,219.5,191.5,219.5,191.5z"/>
	<path class="st5" d="M220.2,193.2c-0.3-0.6-0.6-1.1-0.8-1.7c0,0.1,0,0.1,0,0.2c-1.3-1.7-2.6-3.5-4-5.4c6.1-8.1,6.1-17.1,4.6-26.3
		l-0.2,0.1l-3.7-10.6c-0.7-0.8-1.4-1.6-2.5-2c-10.2,0-20.6,0-31.1,0c0,5.9,0,11.6,0,17.8c6.2,0,12.2,0,18.2,0c0,3.8,0,7.1,0,10.9
		c-6.3,0-12.1,0-17.8,0c-1,5.7-0.9,26,0.2,29.8c5.8,0,11.6,0,17.7,0c0,3.7,0,7.2,0,11.1c-6.2,0-12.2,0-18.3,0c0,6.7,0,12.8,0,19.1
		c11.2,0,22.1,0,33.8,0c1.2-1.6,3.2-3.4,4-5.6c1.5-4,2.6-8.3,3.2-12.6c1-7.6-0.3-15-2.2-22.4c0,0,0,0,0,0
		C220.9,194.8,220.6,194,220.2,193.2z"/>
	<path class="st1" d="M129.5,208.4c-0.3,0-0.5,0.1-0.8,0.1c-0.6,2.5-0.2,5.1-0.3,7.6c-0.1,2.7,0,5.4,0,8.1s0,5.4,0,8.1
		c0,2.7,0,5.3,0,8.3c-3.8,0-7.5,0-11.2,0c0.7,3.6,50.7,105.6,54.9,112c1.9,0.3,3.9,0.7,5.9,1c1.9,0.2,3.9,0.3,6.3,0.5
		c-9.9-38.3-19.7-75.8-29.6-113.7c-8.4,0-16.2,0-24.3,0c0.1-1.1,0.1-2,0.2-2.8l-0.7,0L129.5,208.4z"/>
	<path class="st1" d="M266.1,242.8c0-0.6-0.1-1.2-0.1-1.8c0,0,0,0,0,0c-6.6-0.1-13.3-0.2-20-0.3c-0.2-10.8,0.2-20.8-0.2-30.9
		c-0.3,0-0.7,0-1,0c0,10.2,0,20.4,0,31c-6.9,0-13.4,0-20.4,0c-5,38.1-10.1,76-15.2,114.5c3.4-0.5,5.9-0.9,8.2-1.3
		c13.2-29.9,26.2-59.2,39.1-88.5C259.8,258,262.9,250.4,266.1,242.8z"/>
	<path class="st1" d="M215.6,281.5c1.5-11,3.2-21.9,4.6-32.9c0.4-3.4,1.1-6.8-0.1-10.5c-1.8,0.9-3.3,1.7-5,2.7c-9.9,0-20,0-30.1,0
		c-0.2,0.2-0.4,0.4-0.6,0.6c-0.1,0.1-0.1,0.2-0.2,0.3c0.9,8.8,1.9,17.6,2.8,26.5c0.8,8.2,1.5,16.4,2.4,24.6
		c1.5,14.4,3.2,28.7,4.8,43.1c0.7,6.3,1.4,12.6,2.2,18.9c3.4,0,6.5,0,9.7,0c0.8-7.2,1.6-14.1,2.5-20.9c1.2-8.8,2.5-17.6,3.7-26.4
		C213.5,298.8,214.4,290.2,215.6,281.5z"/>
	<path class="st1" d="M184.5,241.3c0.2-0.2,0.3-0.3,0.5-0.5C184.8,240.9,184.6,241.1,184.5,241.3z"/>
	<path class="st6" d="M240.4,149.2c0.2,0.2,0.2,0.9,0.3,1.3c0.5-0.1,0.9-0.2,1.6-0.4c0.9-3.4,1.9-6.9,3.1-11.3
		c1.2,4.6,2.4,9,3.5,13.4l0.2-0.1l6.7,28.4c0.2,0.8,0.4,1.6,0.6,2.4c0,0,0,0-0.1,0.1l0,0c0,0,0,0,0.1,0c0,0.4,0.1,0.7,0.2,1l0.7,2.9
		c0.6,2,1.1,4,1.4,6c0.2,0.6,0.5,1.4,0.5,2.2l1.1,4.5c2.7,10.9,5.4,21.9,8.1,32.8c0.2,0.5,0.7,0.9,1.1,1.4c-0.2-0.5,0.3-0.9,0.2-1.3
		c0.1-20.6,0.1-41.1,0.1-61.7c0-1.9-0.5-3.9-1.2-5.8c-6.3-17.5-18.9-29.1-35.4-36.6c-12-5.4-24.6-7.1-37.7-6.5
		c-9.2,0.4-18,1.9-26.5,5.4c-9.2,3.8-17.7,8.7-24.5,16.2c0,0,0,0,0,0c0.1,0,0.1-0.1,0.2-0.1c0,0.2,0,0.4,0.1,0.6c-0.1,0-0.1,0-0.2,0
		c0,0,0,0.1,0,0.1c5,0.1,10.1-0.1,15.1,0.2c3.2,0.2,5.8-1,8.6-2.3c4.4-2.1,8.8-4.3,13.4-5.6c11.5-3.2,23.1-3.2,34.7,0.1
		c0,0,0.1,0.1,0.1,0.1c0-0.1,0-0.1,0-0.2C225.6,138.4,233.2,143.3,240.4,149.2z"/>
	<path class="st6" d="M240.6,150.5C240.6,150.5,240.6,150.5,240.6,150.5C240.6,150.5,240.6,150.5,240.6,150.5
		C240.6,150.5,240.6,150.5,240.6,150.5z"/>
	<path class="st5" d="M255.8,189.4c-0.1-0.5-0.3-0.9-0.4-1.4c-0.1-0.3-0.2-0.6-0.2-0.9l-0.5-2.1c0,0.1-0.1,0.1-0.1,0.2
		c-0.4-2-0.8-3.9-1.2-5.7l-3.2-13.4c-1.1-4.3-2.3-8.5-3.5-12.8c-0.5-1.7-1-3.5-1.6-5.7c-3,12.4-5.9,24.3-8.8,36.2
		c-0.9,3.7-2,7.5-2.9,11.2c-3.2,13.7-6.3,27.4-9.5,41.2c6.4,0,12.4,0,18.8,0c0-10.4,0-20.6,0-30.8c1.9,0,3.3,0,5.2,0
		c0,10.4,0,20.6,0,31c6.3,0,12.1,0,18,0c0.4-0.2,0.7-0.4,0.9-0.8c0,0,0-0.1,0-0.1c-0.3,0.3-0.6,0.6-0.9,0.8c0.3-0.3,0.6-0.5,0.9-0.8
		c-0.7-2.8-1.3-5.5-2-8.2l-0.2,0L255.8,189.4z"/>
	<path class="st5" d="M256.4,183C256.4,183,256.4,183,256.4,183l0.2,1C256.5,183.7,256.4,183.4,256.4,183z"/>
	<path class="st5" d="M87.7,235.5c0.1-1.8,0.2-3.7,0.2-5.5c0.1-7.9,0.1-15.9,0.2-23.9c0,0,0,0,0,0c0.2-0.3,0.4-0.6,0.8-0.8
		c1.3,0,2.6,0,4.3,0c0,10.4,0,20.6,0,31c6.3,0,12,0,17.9,0c0.2-0.2,0.5-0.5,0.8-0.8c-0.2,0.3-0.5,0.5-0.8,0.8c0,0,0.1,0,0.1,0
		c0.3-0.1,0.6-0.4,0.8-0.8c-7.1-29.2-14.2-58.3-21.5-88.4c-7.3,30.3-14.3,59.6-21.4,89.2c6.3,0,12,0,17.7,0
		C87.1,236,87.4,235.8,87.7,235.5z"/>
	<path class="st1" d="M182.8,258.2c-0.6-5.9-1.7-11.8-2.6-17.7c-0.4,0-0.9,0-1.3,0.1l-0.5,0.1l-0.5-0.1c0.1-0.1,0.1-0.1,0.1-0.2
		c0,0-0.1,0.1-0.1,0.1c-6.4,0-12.8,0-20,0c10,38.4,19.8,76.1,29.7,114.2c1.8,0.1,3.6,0.2,5.4,0.3c-1.4-14.8-2.8-29-4.3-43.2
		C186.8,293.9,184.9,276,182.8,258.2z"/>
	<path class="st5" d="M175.9,236.3c0.4-0.1,0.6-0.4,0.8-0.7c0.1-0.7,0.2-1.3,0.2-2c0-27.5,0-54.9,0-82.4c0-1-0.1-2-0.2-3.5
		c-5.8,1.1-11.9-2.1-17,3c0,1.6,0,3.3,0,5c0,18.5,0,37.1,0,55.6c0.1,8,0.1,16.1,0.2,24.2c0.1,0.1,0.2,0.3,0.3,0.4
		c0,0,0.1,0.1,0.1,0.1c0.1,0.1,0.3,0.2,0.4,0.3C165.8,236.3,170.9,236.3,175.9,236.3z"/>
	<path class="st5" d="M307.2,147.6c0,29.4,0,58.6,0,87.8c9.4,0,18.6,0,27.9,0c0-5.7,0-11.1,0-16.5c0-5.5,0.2-11-0.1-16.8
		c-6.5,0-12.3,0-18.5,0c0-18.3,0-36.3,0-54.5C313.2,147.6,310.2,147.6,307.2,147.6z"/>
	<path class="st7" d="M219.5,191.5C219.5,191.5,219.5,191.5,219.5,191.5L219.5,191.5C219.5,191.5,219.5,191.5,219.5,191.5z"/>
	<path class="st7" d="M221.5,191.8c-0.2,0.2-0.3,0.4-0.5,0.6C221.2,192.2,221.4,192,221.5,191.8z"/>
	<path class="st7" d="M180.2,240.5c-0.1-9,0-18,0-27.5c6.6,0,12.4,0,18.4,0c-0.1-1.3-0.2-2.1-0.4-3.3c-5.9-0.1-11.7-0.3-17.6-0.4
		c0-12.9,0-25.1,0-37.2c6.2-0.9,12.2,0.7,18.6-1.1c-3.1-3.1-6.3-1.9-9.1-2.1c-3.1-0.2-6.2,0-9.5,0c0-8.8,0-17,0-25.5
		c10.7,0,21.1-0.2,31.5,0.1c2.7,0.1,4.7,1.2,6,3.2l0.2-0.1l0.3,0.8c0.4,0.8,0.7,1.7,0.9,2.7l3.2,9l-0.4,0.1c0,0.2,0.1,0.4,0.1,0.7
		c0.4,8.7,1.4,17.4-2.6,24.4c-0.1,3-0.2,4.9-0.3,6.8c0.1,0.1,0.1,0.3,0.1,0.4c0.6,0.1,1.3,0.2,1.9,0.3c0.3,0.7,0.6,1.4,0.9,2.1
		c0.1,0.1,0.1,0.1,0.2,0.2c2.9,6.4,3.2,13.2,3.3,20.1c0.3,0,0.5,0,0.7,0.1c0,0.1,0,0.1,0,0.2c0,0,0.1-0.1,0.1-0.1
		c1.7-6.4,3.4-12.9,5.1-19.3c0,0,0.1-0.1,0.1-0.1c-0.1,0-0.1,0-0.2,0c2.8-11.8,5.4-23.7,8.4-35.4c0.8-3.1,0.8-6.1,0.5-9.1
		c0,0,0,0,0,0c-0.7,0-1.7,0.2-2.1-0.2c-6.5-5.6-14.1-9.2-22.1-12.1c-7-1.9-14.2-2.5-21.4-2c-8.5,0.6-16.8,2.3-24.2,7.1
		c0,0-0.1,0-0.1,0c0.2,0.2,0.2,0.5,0.3,0.8c2.5,0,5,0,7.7,0c0,32.2,0,63.8,0,95.5c0.1,0.3,0.1,0.7,0.2,1
		C179.3,240.5,179.8,240.5,180.2,240.5z"/>
	<path class="st5" d="M272,147.7c0,29.5,0,58.6,0,87.8c9.3,0,18.3,0,27.5,0c0-11.1,0-22,0-33.2c-6.1,0-12,0-18.5,0
		c0-18.7,0-36.7,0-54.6C277.7,147.7,274.8,147.7,272,147.7z"/>
	<path class="st1" d="M125.4,293.6c-5.1-7.9-10.1-15.9-15.2-23.8c-2.2-3.4-4.4-6.8-6.4-10.2c-0.1-0.1-0.1-0.3-0.2-0.4l-2-3.1
		c-0.8-0.3-1.1-1.3-1.6-2c-3.1-4.8-6.1-9.6-9.5-14.9c0-9.5,0-19.5,0-29.5c-0.3,0-0.6,0-0.9,0c0,10.3,0,20.7,0,31
		c-5.5,0.4-10.5-0.4-15.6,1.3c0.4,1,0.6,1.9,1.1,2.5c27.9,35,55.8,70.1,83.7,105.1c0.3,0.3,0.9,0.3,1.4,0.4c0.1,0,0.2-0.2,0.6-0.5
		l-34.3-54C126.1,295,125.8,294.2,125.4,293.6z"/>
	<path class="st1" d="M155.4,326.6c-12.1-24.6-24.3-49.1-36.5-73.6c-2.1-4.1-4.2-8.3-6.2-12.1c-6,0-11.4,0-16.8,0c0,0,0,0,0,0
		c0,0.6-0.1,1.2-0.1,1.8c0,0-0.1-0.1-0.1-0.1c0,0.1,0.1,0.1,0.1,0.2c1.6,2.6,3.2,5.2,4.7,7.8l0.1,0l5.5,8.7c0.3,0.4,0.6,0.9,0.9,1.3
		c6.8,10.5,13.5,21.1,20.2,31.7c0.2,0.3,0.3,0.6,0.4,1l2.8,4.4c0.7,0.8,1.3,1.6,1.9,2.5c6.8,10.5,13.5,21.1,20.2,31.7
		c0.3,0.5,0.5,1.1,0.7,1.7l1.3,2.1c0.4,0.3,0.8,0.6,1.1,1c3.4,4.8,6.7,9.7,10,14.6c0.5-0.1,1.1-0.1,1.6-0.2
		C163.3,342.8,159.4,334.7,155.4,326.6z"/>
	<path class="st1" d="M167.2,351.1C167.2,351.1,167.2,351.1,167.2,351.1C167.2,351.1,167.2,351.1,167.2,351.1
		C167.2,351.1,167.2,351.1,167.2,351.1z"/>
	<path class="st4" d="M319,197.7c3.5,0,6.6,0,10.1,0c-1-15.3-3.4-29.9-10.1-44.3C319,168.6,319,183.2,319,197.7z"/>
	<path class="st4" d="M73.5,209.1c1.9-8.5,3.8-16.9,5.8-25.3c3.1-12.5,6.3-24.9,9.3-37.3c0.3-1.2,0-2.6,0-3.9
		c-12.2,20.5-17.1,42.8-15.9,66.5C73,209.2,73.2,209.2,73.5,209.1z"/>
	<path class="st6" d="M141.5,177.8c0.2-0.1,0.5-0.1,0.7-0.2c0-10,0-20.1,0-30.1c-0.3,0-0.6-0.1-0.8-0.3c-3.9,3.7-6.4,8.4-9,13.4
		C135.4,166.4,138.5,172.1,141.5,177.8z"/>
	<path class="st8" d="M157.5,237c0-30.4,0-60.7,0-91c-0.2,0-0.3,0-0.5,0c0,30.3,0,60.7,0,91C157.2,237,157.3,237,157.5,237z"/>
	<path class="st9" d="M240.6,150.5C240.6,150.5,240.6,150.5,240.6,150.5C240.6,150.5,240.6,150.5,240.6,150.5c0.3,3,0.3,6-0.5,9.1
		c-3,11.7-5.6,23.6-8.4,35.4c0.1,0,0.1,0,0.2,0c0.5,0,1.1,0,1.6,0c0.9-3.7,2-7.5,2.9-11.2c2.9-11.9,5.8-23.8,8.8-36.2
		c0.6,2.2,1.1,4,1.6,5.7c1.2,4.2,2.3,8.5,3.5,12.8l-3.2-13.4l1.7-0.4c-1.1-4.4-2.3-8.8-3.5-13.4c-1.2,4.4-2.2,7.9-3.1,11.3
		c-0.7,0.2-1.1,0.3-1.6,0.4c-0.1-0.4-0.1-1.1-0.3-1.3c-7.2-5.9-14.8-10.8-24-12.8c0,0.1,0,0.1,0,0.2c0,0.5,0,1.1,0,1.6
		c8,2.9,15.6,6.5,22.1,12.1C238.9,150.7,239.9,150.5,240.6,150.5z"/>
	<path class="st10" d="M225.9,214.2C225.9,214.2,225.8,214.2,225.9,214.2c-0.1,1.5-0.1,3-0.2,4.4c0.2,0,0.4,0,0.6,0
		c0.1-1.4,0.2-2.8,0.3-4.1c0-0.1,0-0.1,0-0.2C226.4,214.2,226.2,214.2,225.9,214.2z"/>
	<path class="st11" d="M304.5,158.5c0.2,0,0.5-0.1,0.7-0.2c0-0.7,0-1.3,0-1.9c0,0,0,0-0.1,0c-0.6,0-1.1,0.1-1.6,0.1
		C303.9,157.2,304.2,157.8,304.5,158.5z"/>
	<path class="st9" d="M221,192.4c-0.3,0.3-0.5,0.5-0.8,0.8c0.4,0.8,0.7,1.6,1.1,2.4c0,0,0,0,0,0c0.4-0.5,0.8-1,1.2-1.5
		c0-0.1,0-0.1-0.1-0.2c-0.4-0.7-0.6-1.4-0.9-2.1C221.4,192,221.2,192.2,221,192.4z"/>
	<path class="st11" d="M73.5,211.8c0-0.9,0-1.8,0-2.7c-0.3,0.1-0.5,0.1-0.8,0c0,0.9,0,1.8,0,2.7C73,211.8,73.2,211.8,73.5,211.8z"/>
	<path class="st12" d="M167.2,351c-0.5,0.1-1.1,0.1-1.6,0.2c0.5,0.3,1,0.5,1.5,0.7c0-0.3,0.1-0.5,0.1-0.8
		C167.2,351.1,167.2,351.1,167.2,351C167.2,351.1,167.2,351,167.2,351C167.2,351,167.2,351,167.2,351z"/>
	<path class="st13" d="M141.8,179.4c0.2,0,0.3-0.1,0.5-0.1c0-0.6-0.1-1.1-0.1-1.7c-0.2,0.1-0.5,0.1-0.7,0.2
		C141.6,178.4,141.7,178.9,141.8,179.4z"/>
	<path class="st14" d="M222.8,231c0.1,0,0.3,0,0.4,0c0-0.4-0.1-0.8-0.1-1.2c0,0-0.1,0-0.3,0C222.8,230.2,222.8,230.6,222.8,231z"/>
	<path class="st12" d="M222.2,234.4c0-0.5,0-1.1,0-1.6c-0.2,0-0.3,0-0.4,0c0,0.5,0,1.1,0,1.6C221.9,234.4,222.1,234.4,222.2,234.4z"
		/>
	<path class="st15" d="M88.2,236.3c-0.2-0.3-0.4-0.6-0.5-0.8c-0.3,0.3-0.6,0.5-0.9,0.8C87.2,236.3,87.6,236.3,88.2,236.3z"/>
	<path class="st1" d="M221.1,237.5c0-0.6,0.1-1.3,0.1-1.9c-0.2,0-0.4,0-0.6,0c-0.1,0.6-0.1,1.3-0.2,1.9
		C220.7,237.5,220.9,237.6,221.1,237.5z"/>
	<path class="st13" d="M268.9,156.8c0.2,0.5,0.4,1,0.6,1.5c0.2,0,0.3-0.1,0.5-0.1c0-0.6-0.1-1.2-0.2-1.8c0,0,0,0,0,0
		C269.4,156.4,269.2,156.5,268.9,156.8C268.9,156.8,268.9,156.8,268.9,156.8z"/>
	<path class="st10" d="M95.9,240.9c0,0,0-0.1,0-0.1c-1.9,0.6-0.9,1.2-0.2,1.8c0,0,0.1,0.1,0.1,0.1C95.8,242.1,95.9,241.5,95.9,240.9
		z"/>
	<path class="st10" d="M266,240.9c0,0,0,0.1,0,0.1c0,0.6,0.1,1.2,0.1,1.8C267.3,241.5,267.3,241.3,266,240.9z"/>
	<path class="st12" d="M170.7,143.3c-0.5,0.1-1.1,0.3-1.6,0.5c0,0.1,0.1,0.3,0.1,0.5c0.6-0.1,1.2-0.1,1.8-0.2
		C170.9,143.8,170.9,143.5,170.7,143.3C170.7,143.3,170.7,143.3,170.7,143.3z"/>
	<path class="st8" d="M152,348c0.1-0.3,0.2-0.5,0.3-0.7c-0.5-0.1-1.1-0.2-1.6-0.3l-0.1,0.1l-0.1,0.1C151,347.5,151.5,347.7,152,348z
		"/>
	<path class="st13" d="M269.4,233.8c0.1-0.5,0.3-0.9,0.4-1.4C269.6,232.9,269.5,233.3,269.4,233.8z"/>
	<path class="st15" d="M111.9,235.5c-0.3,0.3-0.6,0.6-0.8,0.8C111.4,236,111.7,235.8,111.9,235.5z"/>
	<path class="st15" d="M115.6,235.8L115.6,235.8c0.2,0.2,0.4,0.4,0.6,0.5c-0.1-0.1-0.2-0.2-0.3-0.3c0,0-0.1-0.1-0.1-0.1
		C115.7,235.8,115.6,235.8,115.6,235.8z"/>
	<path class="st15" d="M133.4,236.3c-0.2-0.2-0.4-0.4-0.5-0.5l0,0.4C133,236.2,133.2,236.3,133.4,236.3z"/>
	<path class="st15" d="M159.8,235.5c0.3,0.3,0.6,0.6,0.9,0.8c-0.1-0.1-0.2-0.2-0.3-0.3c0,0-0.1-0.1-0.1-0.1
		C160.1,235.8,159.9,235.6,159.8,235.5z"/>
	<path class="st15" d="M266.9,235.5C266.9,235.5,266.9,235.5,266.9,235.5C266.9,235.5,266.9,235.5,266.9,235.5
		c-0.3,0.3-0.6,0.5-0.9,0.8C266.3,236.1,266.6,235.8,266.9,235.5z"/>
	<path class="st14" d="M178.4,240.7l0.5-0.1c-0.1-0.3-0.1-0.7-0.2-1c-0.2,0.2-0.4,0.5-0.7,0.8c0,0.1-0.1,0.1-0.1,0.2L178.4,240.7z"
		/>
	<path class="st10" d="M73.6,241.1c-0.2-0.1-0.3-0.2-0.4-0.3c-0.1,0.1-0.2,0.2-0.3,0.3C73.1,241.1,73.4,241.1,73.6,241.1z"/>
	<path class="st13" d="M142.2,146.7c-0.3,0.2-0.6,0.3-0.9,0.5c0,0,0,0,0.1,0c0.3,0.2,0.6,0.3,0.8,0.3
		C142.2,147.3,142.2,147,142.2,146.7z"/>
	<path class="st9" d="M114.1,144.4c-0.2,0.2-0.4,0.5-0.6,0.7c-0.1,0.1-0.1,0.2-0.2,0.3c0.1-0.1,0.1-0.2,0.2-0.2
		C113.7,144.9,113.9,144.7,114.1,144.4C114.1,144.4,114.1,144.4,114.1,144.4C114.1,144.4,114.1,144.4,114.1,144.4z"/>
	<path class="st10" d="M184.5,241.3c-0.1,0.1-0.2,0.2-0.3,0.3c0.1,0,0.1-0.1,0.2-0.2c0.2-0.2,0.4-0.4,0.6-0.6
		C184.8,241,184.6,241.1,184.5,241.3z"/>
	<path class="st13" d="M144.6,143.4c-0.1,0-0.1,0.1-0.2,0.1c-0.2,0.2-0.4,0.3-0.5,0.5c0.2,0,0.4,0,0.6,0c0.1,0,0.1,0,0.2,0
		C144.6,143.8,144.6,143.6,144.6,143.4z"/>
	<path class="st11" d="M89.6,140.9c0-0.1-0.2-0.3-0.3-0.4c-0.1,0.1-0.3,0.2-0.3,0.3s0.2,0.3,0.3,0.4C89.4,141.1,89.6,141,89.6,140.9
		z"/>
	<path class="st8" d="M252.4,345.2c-0.1,0-0.2,0.1-0.3,0.2c0.1,0.1,0.2,0.3,0.3,0.3c0.1,0,0.2-0.1,0.3-0.2
		C252.6,345.4,252.5,345.2,252.4,345.2z"/>
	<path class="st13" d="M143.8,188.6c0.1,0,0.2,0,0.3,0c0-0.2,0-0.4-0.1-0.5c0-0.1,0-0.2,0-0.3h-0.1h-0.1
		C143.8,188.1,143.8,188.3,143.8,188.6z"/>
	<path class="st0" d="M215.4,186.3c1.4,1.9,2.7,3.7,4,5.4c0-0.1,0-0.1,0-0.2c0.2,0.6,0.5,1.1,0.8,1.7c0.2-0.3,0.5-0.6,0.8-0.8
		c0.2-0.2,0.4-0.4,0.5-0.6c-0.6-0.1-1.3-0.2-1.9-0.3c0,0,0,0-0.1,0c0,0,0,0,0,0c0,0-0.1,0-0.1,0c0-0.1,0-0.3,0-0.4
		c0.1-1.9,0.2-3.8,0.3-6.8c4-7,3-15.7,2.6-24.4c0-0.2,0-0.4-0.1-0.7L220,160C221.5,169.2,221.5,178.2,215.4,186.3z"/>
	<path class="st0" d="M256.4,182.9c-0.2-0.8-0.4-1.6-0.6-2.4L256.4,182.9C256.4,182.9,256.4,182.9,256.4,182.9z"/>
	<path class="st0" d="M254.7,184.9l-1.3-5.5c0.4,1.8,0.8,3.7,1.2,5.7C254.7,185,254.7,185,254.7,184.9z"/>
	<path class="st0" d="M258.7,192.9c-0.3-2.1-0.9-4-1.4-6l1.9,8.2C259.2,194.3,258.9,193.5,258.7,192.9z"/>
	<path class="st0" d="M255.8,189.4l-0.5-2.3c0,0.3,0.1,0.6,0.2,0.9C255.5,188.5,255.7,188.9,255.8,189.4z"/>
	<path class="st0" d="M152.5,331.8c-6.7-10.6-13.4-21.2-20.2-31.7c-0.5-0.9-1.2-1.7-1.9-2.5l22.7,35.8
		C153,332.9,152.8,332.3,152.5,331.8z"/>
	<path class="st0" d="M110.2,269.8c5.1,7.9,10.1,15.9,15.2,23.8c0.4,0.6,0.7,1.4,1.3,1.9l-23-36.3c0.1,0.1,0.1,0.3,0.2,0.4
		C105.8,263,108,266.4,110.2,269.8z"/>
	<path class="st0" d="M127.2,292.3c-6.7-10.6-13.4-21.2-20.2-31.7c-0.3-0.5-0.6-0.9-0.9-1.3l21.6,34
		C127.5,292.9,127.4,292.6,127.2,292.3z"/>
	<polygon points="112.6,225.7 112.6,236 115.6,236 115.6,235.8 115.6,235.8 115.6,235.7 115.3,148.1 115.3,145.9 113.4,145.9
		112.3,145.9 	"/>
	<polygon points="132.9,235.8 132.5,205.5 131.8,205.5 129.5,205.5 129.5,208.4 129.9,237.6 130.6,237.6 132.9,237.6 132.9,236.2
		132.9,236.1 	"/>
	<polygon points="220,160 222.2,159.2 222.6,159.1 219.4,150.1 218.5,147.4 218.2,146.6 218.1,146.7 215.4,147.6 216.1,149.5
		219.8,160.1 	"/>
	<polygon points="257.3,186.9 256.6,184 256.3,183 256.3,183 255.8,180.5 249.1,152.2 248.9,152.2 247.1,152.6 250.3,166.1
		253.4,179.4 254.7,184.9 255.2,187.1 255.8,189.4 264.7,227.3 264.9,227.3 266.7,226.9 260.2,199.6 259.2,195.1 	"/>
	<polygon points="130.4,297.6 127.6,293.3 106.1,259.3 100.5,250.6 100.5,250.6 98.9,251.6 101.7,256 103.6,259.2 126.7,295.5
		160.9,349.4 163.2,352.9 164.8,351.9 154.5,335.6 153.2,333.5 	"/>
</g>
</svg>
