<?xml version="1.0" encoding="UTF-8"?><svg id="Layer_18" xmlns="http://www.w3.org/2000/svg" width="226.57" height="239.34" xmlns:xlink="http://www.w3.org/1999/xlink" viewBox="0 0 226.57 239.34"><defs><style>.cls-1{fill:#cc5819;fill-rule:evenodd;}</style></defs><path class="cls-1" d="m111.99,10.14c-.31.5.62,2.13,2.07,3.62,4.17,4.3,6.25,11.25,6.33,21.14.06,7.69-.13,8.81-2.31,12.95-1.31,2.49-3.29,5.42-4.38,6.53-2.1,2.1-3.1,5.05-1.63,4.8.47-.08,3.17-1.69,6.01-3.58,6.31-4.21,11.07-5.95,16.24-5.95,4.72,0,15.83,2.79,20.4,5.12,1.81.92,3.63,1.46,4.07,1.19s-.89-2.94-2.95-5.94c-4.5-6.57-5.76-10.68-5.71-18.53.04-4.71.61-7.28,2.76-12.46,1.49-3.59,2.54-6.71,2.32-6.92-.22-.22-2.35.91-4.74,2.52-7.5,5.05-14.4,5.04-25.79-.02-3.7-1.65-7.95-3.53-9.43-4.18-1.87-.82-2.86-.91-3.25-.28m-34.81,35.01c-1.33,8.93-4.46,15.52-9.57,20.11-4.91,4.42-14.91,9.57-19.86,10.24-5.88.79-3.89,2.78,2.77,2.78,8.35,0,22.57,10.56,26.65,19.79.93,2.11,1.92,6.48,2.19,9.71.27,3.23.75,5.87,1.08,5.87s1.07-2.68,1.65-5.95c1.29-7.2,5.87-16.7,9.55-19.82,3.84-3.24,10.42-6.08,17.56-7.57,3.38-.71,6.29-1.42,6.47-1.6.92-.92-1.12-1.93-4.82-2.36-8.19-.97-19.82-8.53-24.91-16.19-2.77-4.17-4.82-10.47-5.95-18.29-.72-4.96-1.77-3.73-2.82,3.3m65.17,35.45c-9.17.62-20.63,3.04-20.63,4.38,0,.4,3.13,1.77,6.94,3.03,23.75,7.84,39.43,21.32,49.32,42.41,2.83,6.04,3.01,6.94,3.33,16.97.4,12.5-.94,20.97-4.87,30.79-6.2,15.49-15.05,26.05-29.05,34.69-12.09,7.46-16.03,8.56-30.56,8.51-25.96-.08-42.92-7.99-58.04-27.09-9.01-11.39-12.52-19.17-13.4-29.72-1.47-17.68,6.24-43.56,16.07-53.97q3.66-3.87,2-5.55c-.92-.92-2.2-2.87-2.83-4.33-.64-1.46-1.85-3.52-2.68-4.58l-1.52-1.91-3.04,3.18c-15.69,16.42-24.15,42.91-20.53,64.25,3.98,23.37,9.93,34.91,25.8,50,12.32,11.72,24.92,17.68,43,20.35,16.47,2.43,33.85.46,45.8-5.19,9.08-4.3,24.45-17.28,32.27-27.26,5.09-6.5,9.17-15.04,11.65-24.4,2.95-11.12,3.11-29.06.33-39.21-2.27-8.3-5.41-15.07-10.52-22.64-2.15-3.18-3.91-6.15-3.91-6.58,0-1.21-16.52-17.92-21.57-21.8-4.76-3.67-7.92-4.7-13.37-4.33m21.92,47.98c-1.29,15.76-4.35,28.27-9.4,38.34-3.78,7.54-14.31,18.28-21.78,22.21-8.64,4.54-13.89,5.7-26.1,5.72-10.42.03-11.35-.11-19.39-2.95-10.26-3.63-18.12-7.91-23.74-12.97-2.32-2.09-4.43-3.57-4.7-3.31-1.6,1.61,5.37,11.19,14.69,20.19,11.3,10.91,19.84,15.17,34.41,17.17,16.82,2.3,32.43-2.99,44.68-15.15,11.18-11.1,17.58-22.66,19.86-35.87,1.02-5.94,1.03-8,0-14.77-1.23-8.16-6.18-25.14-7.33-25.14-.36,0-.9,2.94-1.19,6.52"/><image width="1080" height="1080" transform="translate(-292.3 -19.22) scale(.27)" xlink:href="../../../../../Downloads/Artisan-1 4.png"/></svg>