<?xml version="1.0" encoding="UTF-8"?><svg id="Layer_14" xmlns="http://www.w3.org/2000/svg" width="1146.82" height="177.1" viewBox="0 0 1146.82 177.1"><defs><style>.cls-1{fill:#fce0bc;}.cls-2{fill:none;stroke:#fce0bc;stroke-width:2px;}.cls-3{isolation:isolate;}</style></defs><g id="Cozy" class="cls-3"><g class="cls-3"><path class="cls-1" d="m9.4,49.2c-1.96-1.52-3.45-3.6-4.47-6.24-1.02-2.64-1.53-5.64-1.53-9,0-3.76.88-7.33,2.64-10.71,1.76-3.38,4.07-6.1,6.93-8.16,2.86-2.06,5.83-3.09,8.91-3.09,2.6,0,4.6.58,6,1.74,1.4,1.16,2.1,2.52,2.1,4.08,0,.92-.27,1.76-.81,2.52-.54.76-1.31,1.34-2.31,1.74-.12-.24-.18-.62-.18-1.14,0-.48.06-.96.18-1.44.08-.64.12-1.1.12-1.38,0-.4-.06-.74-.18-1.02-.56-1.4-2.08-2.1-4.56-2.1-.68,0-1.48.06-2.4.18-2.12.28-4.22,1.33-6.3,3.15-2.08,1.82-3.78,4.09-5.1,6.81-1.32,2.72-1.98,5.5-1.98,8.34,0,2.48.41,4.83,1.23,7.05.82,2.22,2.01,4.01,3.57,5.37,1.56,1.36,3.42,2.04,5.58,2.04,2.8,0,5.13-.34,6.99-1.02,1.86-.68,3.69-1.72,5.49-3.12.2-.16.42-.24.66-.24.44,0,.74.26.9.78.2.96-.44,2-1.92,3.12-1.48,1.12-3.4,2.07-5.76,2.85-2.36.78-4.6,1.17-6.72,1.17-2.76,0-5.12-.76-7.08-2.28Z"/><path class="cls-1" d="m44.77,49.29c-1.9-1.06-3.38-2.54-4.44-4.44-1.06-1.9-1.59-4.07-1.59-6.51,0-4,1.47-6.98,4.41-8.94,2.94-1.96,6.55-2.94,10.83-2.94,1.96,0,3.79.48,5.49,1.44,1.7.96,3.07,2.34,4.11,4.14,1.04,1.8,1.56,3.88,1.56,6.24,0,2.56-.66,4.79-1.98,6.69-1.32,1.9-3.05,3.36-5.19,4.38-2.14,1.02-4.41,1.53-6.81,1.53s-4.49-.53-6.39-1.59Zm14.19-4.35c1.92-1.68,2.88-4.14,2.88-7.38,0-2.2-.75-4.1-2.25-5.7-1.5-1.6-3.59-2.4-6.27-2.4-1.8,0-3.62.34-5.46,1.02-1.84.68-3.36,1.7-4.56,3.06-1.2,1.36-1.8,3-1.8,4.92,0,1.6.4,3.09,1.2,4.47s1.89,2.48,3.27,3.3c1.38.82,2.89,1.23,4.53,1.23,3.72,0,6.54-.84,8.46-2.52Z"/><path class="cls-1" d="m95.68,46.02c0,1.08-.92,1.98-2.76,2.7-1.84.72-3.92,1.25-6.24,1.59-2.32.34-4.16.51-5.52.51-1.52,0-2.97-.25-4.35-.75-1.38-.5-2.07-1.37-2.07-2.61s.67-2.76,2.01-4.68c1.34-1.92,2.95-3.88,4.83-5.88h-7.74c-.4,0-.6-.36-.6-1.08,0-.56.06-.95.18-1.17.12-.22.28-.35.48-.39s.58-.06,1.14-.06h9.24c1.48-1.88,2.61-3.49,3.39-4.83.78-1.34,1.17-2.59,1.17-3.75s-.4-2.2-1.2-3.12c-1.24-.24-2.44-.36-3.6-.36-2.2,0-4.06.37-5.58,1.11-1.52.74-2.36,1.71-2.52,2.91-.92,0-1.53-.16-1.83-.48-.3-.32-.45-.86-.45-1.62,0-.8.41-1.57,1.23-2.31.82-.74,1.97-1.34,3.45-1.8,1.48-.46,3.14-.69,4.98-.69,1.52,0,3.12.18,4.8.54,1.04.2,1.92.86,2.64,1.98.72,1.12,1.08,2.36,1.08,3.72,0,1.2-.37,2.46-1.11,3.78-.74,1.32-1.83,2.96-3.27,4.92h2.94c1.52,0,2.53.08,3.03.24.5.16.75.48.75.96,0,.4-.13.74-.39,1.02-.26.28-.53.42-.81.42h-8.28c-1.96,2.2-3.46,4.15-4.5,5.85-1.04,1.7-1.46,2.91-1.26,3.63.16.76,1.4,1.28,3.72,1.56,2.6,0,4.8-.31,6.6-.93,1.8-.62,3.54-1.57,5.22-2.85.8.6,1.2,1.24,1.2,1.92Z"/><path class="cls-1" d="m110.23,77.46c-2.14-1.16-3.85-2.5-5.13-4.02-1.28-1.52-2-2.76-2.16-3.72-.16-.88.05-1.56.63-2.04.58-.48,1.31-.68,2.19-.6,1.24,2.96,2.72,5.24,4.44,6.84,1.72,1.6,4.18,2.44,7.38,2.52,2.24.04,4.03-1.39,5.37-4.29,1.34-2.9,2.29-6.44,2.85-10.62.56-4.18.84-8.29.84-12.33,0-2.08-.06-3.78-.18-5.1-3.04,3.72-6.92,5.58-11.64,5.58-4.08,0-7.21-1.94-9.39-5.82-2.18-3.88-3.59-8.26-4.23-13.14-.08-.48-.12-1.16-.12-2.04,0-2.52.82-3.78,2.46-3.78.16,0,.38,1,.66,3,.44,3.16.98,6,1.62,8.52.64,2.52,1.71,4.81,3.21,6.87,1.5,2.06,3.49,3.09,5.97,3.09,1.96,0,3.97-.65,6.03-1.95,2.06-1.3,3.55-2.75,4.47-4.35,0-3.04-.39-5.77-1.17-8.19-.78-2.42-1.19-3.71-1.23-3.87-.08-.88-.12-1.44-.12-1.68,0-.8.13-1.38.39-1.74.26-.36.65-.54,1.17-.54.56,0,1.2,1.14,1.92,3.42.72,2.28,1.36,5.26,1.92,8.94.56,3.68.94,7.52,1.14,11.52.08,2.08.12,3.62.12,4.62,0,7.68-.95,14.04-2.85,19.08-1.9,5.04-4.99,7.56-9.27,7.56-2.72,0-5.15-.58-7.29-1.74Z"/></g></g><g id="Nostalgic" class="cls-3"><g class="cls-3"><path class="cls-1" d="m28.92,121.36c1.24,2.28,2.28,4.89,3.12,7.83.84,2.94,1.26,5.13,1.26,6.57,0,2.2-.47,4.17-1.41,5.91-.94,1.74-2.27,3.1-3.99,4.08-1.72.98-3.68,1.47-5.88,1.47-3.04,0-5.67-.82-7.89-2.46-2.22-1.64-3.99-3.53-5.31-5.67-1.32-2.14-2.68-4.71-4.08-7.71l-.84-1.8.12,14.52c0,.88-.15,1.73-.45,2.55-.3.82-.81,1.23-1.53,1.23s-1.24-.41-1.56-1.23c-.32-.82-.48-1.63-.48-2.43,0-2.56.2-6.24.6-11.04.4-4.8.6-8.38.6-10.74,0-.56-.04-1.14-.12-1.74-.08-.6-.14-1.02-.18-1.26-.2-1.08-.3-2.04-.3-2.88v-.24c.12,0,.49-.09,1.11-.27.62-.18.99-.27,1.11-.27h.6c1.52,6.84,3.77,13.15,6.75,18.93,2.98,5.78,7.07,8.67,12.27,8.67,2.44,0,4.29-.73,5.55-2.19,1.26-1.46,1.89-3.43,1.89-5.91,0-2.12-.34-4.07-1.02-5.85-.68-1.78-1.7-3.97-3.06-6.57l-1.62-3.18c-.12-.2-.18-.4-.18-.6,0-.32.12-.59.36-.81.24-.22.56-.33.96-.33,1.16,0,2.36,1.14,3.6,3.42Z"/><path class="cls-1" d="m48.33,146.29c-1.9-1.06-3.38-2.54-4.44-4.44-1.06-1.9-1.59-4.07-1.59-6.51,0-4,1.47-6.98,4.41-8.94,2.94-1.96,6.55-2.94,10.83-2.94,1.96,0,3.79.48,5.49,1.44,1.7.96,3.07,2.34,4.11,4.14,1.04,1.8,1.56,3.88,1.56,6.24,0,2.56-.66,4.79-1.98,6.69-1.32,1.9-3.05,3.36-5.19,4.38-2.14,1.02-4.41,1.53-6.81,1.53s-4.49-.53-6.39-1.59Zm14.19-4.35c1.92-1.68,2.88-4.14,2.88-7.38,0-2.2-.75-4.1-2.25-5.7-1.5-1.6-3.59-2.4-6.27-2.4-1.8,0-3.62.34-5.46,1.02-1.84.68-3.36,1.7-4.56,3.06-1.2,1.36-1.8,3-1.8,4.92,0,1.6.4,3.09,1.2,4.47.8,1.38,1.89,2.48,3.27,3.3,1.38.82,2.89,1.23,4.53,1.23,3.72,0,6.54-.84,8.46-2.52Z"/><path class="cls-1" d="m78.42,140.08c.48,0,.95.14,1.41.42.46.28.93.63,1.41,1.05.48.42.86.73,1.14.93.92.72,2.18,1.28,3.78,1.68,1.6.4,3.3.6,5.1.6,2.04,0,3.87-.39,5.49-1.17,1.62-.78,2.43-1.83,2.43-3.15,0-1.2-.44-2.15-1.32-2.85-.88-.7-1.94-1.21-3.18-1.53-1.24-.32-2.88-.62-4.92-.9-2.76-.32-4.95-.72-6.57-1.2-1.62-.48-2.91-1.27-3.87-2.37-.96-1.1-1.44-2.65-1.44-4.65,0-2.16,1.02-3.77,3.06-4.83,2.04-1.06,4.38-1.59,7.02-1.59,2.4,0,4.45.51,6.15,1.53,1.7,1.02,2.57,2.47,2.61,4.35.08,1.08-.08,1.93-.48,2.55-.4.62-.88.93-1.44.93-.32,0-.59-.12-.81-.36s-.33-.56-.33-.96c0-.64.22-1.34.66-2.1-.2-.96-.85-1.68-1.95-2.16-1.1-.48-2.41-.72-3.93-.72-2.24,0-4.02.41-5.34,1.23-1.32.82-1.98,1.79-1.98,2.91,0,1.2.48,2.12,1.44,2.76.96.64,2.13,1.09,3.51,1.35,1.38.26,3.35.51,5.91.75,2.12.28,3.85.62,5.19,1.02,1.34.4,2.47,1.17,3.39,2.31.92,1.14,1.38,2.77,1.38,4.89s-1.02,3.93-3.06,5.19c-2.04,1.26-4.48,1.89-7.32,1.89-3.64,0-6.89-.62-9.75-1.86-2.86-1.24-4.53-3-5.01-5.28.56-.44,1.1-.66,1.62-.66Z"/><path class="cls-1" d="m118.92,147.94c-1.24,0-2.09-.92-2.55-2.76s-.69-4.42-.69-7.74c0-1.36.04-3.48.12-6.36.08-1.76.12-3.08.12-3.96-4.92,0-7.38-.56-7.38-1.68,0-.36.05-.64.15-.84s.33-.3.69-.3l6.54-.42c-.04-1.96-.14-4.1-.3-6.42-.16-2.08-.26-4-.3-5.76,0-.44.18-.75.54-.93.36-.18.74-.27,1.14-.27.48,0,.88.25,1.2.75.32.5.48,1.01.48,1.53l.42,10.98,4.98.24c.76-.08,1.41.06,1.95.42.54.36.83.96.87,1.8-.84.36-1.76.58-2.76.66-1,.08-2.68.12-5.04.12,0,3.72.18,9.84.54,18.36,0,.88,0,1.49.03,1.83.02.34.03.55.03.63-.4.08-.66.12-.78.12Z"/><path class="cls-1" d="m137.79,145.63c-3.06-1.46-4.59-4.03-4.59-7.71,0-1.32.4-2.6,1.2-3.84.8-1.24,1.98-2.25,3.54-3.03,1.56-.78,3.46-1.17,5.7-1.17,1.72,0,3.18.08,4.38.24,1.2.16,2.58.6,4.14,1.32s3.18,1.86,4.86,3.42c-.64-2.76-1.6-5.18-2.88-7.26-1.28-2.08-2.71-3.69-4.29-4.83-1.58-1.14-3.13-1.71-4.65-1.71-.72,0-1.39.13-2.01.39-.62.26-1.37.63-2.25,1.11-1,.64-1.74.96-2.22.96-.2,0-.37-.07-.51-.21-.14-.14-.21-.31-.21-.51,0-1.6.71-2.84,2.13-3.72,1.42-.88,3.15-1.28,5.19-1.2,2.8.16,5.36,1.35,7.68,3.57s4.15,4.97,5.49,8.25c1.34,3.28,2.01,6.5,2.01,9.66,0,.52-.04,1.26-.12,2.22l-1.92-.12c-1.52-3.08-3.47-5.27-5.85-6.57s-4.77-1.95-7.17-1.95c-3.08,0-5.28.46-6.6,1.38-1.32.92-1.98,2.26-1.98,4.02s.92,3.32,2.76,4.44c1.84,1.12,4.2,1.68,7.08,1.68,1.6,0,2.88-.09,3.84-.27.96-.18,1.96-.43,3-.75.84-.28,1.58-.48,2.22-.6.64-.12,1.46-.18,2.46-.18,1.12,0,1.83.08,2.13.24.3.16.45.52.45,1.08,0,.4-.82.9-2.46,1.5-1.64.6-3.48,1.14-5.52,1.62-2.04.48-3.44.72-4.2.72-4.16,0-7.77-.73-10.83-2.19Z"/><path class="cls-1" d="m169.89,131.89c-.46-5.98-.69-11.77-.69-17.37,0-2.8.06-5.28.18-7.44,0-.52.4-.78,1.2-.78.64,0,1.05.16,1.23.48.18.32.27.82.27,1.5,0,6.48.12,12.01.36,16.59.24,4.58.56,9.51.96,14.79.24,3.4.4,5.7.48,6.9.04.64-.3.96-1.02.96-.24,0-.56-.04-.96-.12-.88-4.36-1.55-9.53-2.01-15.51Z"/><path class="cls-1" d="m183.33,174.25c-2.26-1.9-3.61-5.09-4.05-9.57-.04-.68.07-1.2.33-1.56.26-.36.61-.54,1.05-.54.48,0,.9.19,1.26.57.36.38.52.89.48,1.53,0,2.64.91,4.73,2.73,6.27,1.82,1.54,4.15,2.31,6.99,2.31,1.64,0,3.09-.6,4.35-1.8,1.26-1.2,2.23-2.87,2.91-5.01.68-2.14,1.02-4.59,1.02-7.35,0-4.84.06-9.54.18-14.1l.06-3.06c-1.56,1.64-2.97,2.84-4.23,3.6-1.26.76-2.77,1.14-4.53,1.14-3.08,0-5.35-.83-6.81-2.49-1.46-1.66-2.19-4.21-2.19-7.65,0-1.96.53-4.01,1.59-6.15s2.52-3.93,4.38-5.37c1.86-1.44,3.97-2.16,6.33-2.16.8,0,1.54.08,2.22.24,2.56.56,4.28,2.94,5.16,7.14s1.32,9.64,1.32,16.32c0,1.84-.04,4.28-.12,7.32l-.06,5.7c0,2.28-.36,4.77-1.08,7.47-.72,2.7-1.98,5.05-3.78,7.05-1.8,2-4.16,3-7.08,3-3.36,0-6.17-.95-8.43-2.85Zm14.37-33.66c1.52-1.42,2.28-3.51,2.28-6.27,0-.36-.04-.98-.12-1.86-.2-1.84-.67-3.29-1.41-4.35-.74-1.06-1.89-1.59-3.45-1.59-1.64,0-3.14.58-4.5,1.74-1.36,1.16-2.42,2.59-3.18,4.29-.76,1.7-1.14,3.29-1.14,4.77s.44,2.75,1.32,3.81c.88,1.06,2.04,1.59,3.48,1.59,2.96,0,5.2-.71,6.72-2.13Z"/><path class="cls-1" d="m212.25,113.86c-.42-.68-.63-1.52-.63-2.52,0-.44.02-.76.06-.96-.04-.64.32-.96,1.08-.96.56,0,1.13.13,1.71.39.58.26.75.45.51.57.4,1.04.6,1.86.6,2.46,0,.52-.12.93-.36,1.23-.24.3-.58.57-1.02.81-.88,0-1.53-.34-1.95-1.02Zm1.23,29.97c-.56-2.7-.92-5.03-1.08-6.99-.16-1.96-.38-5.06-.66-9.3-.04-.68-.06-1.56-.06-2.64,0-1.36.11-2.3.33-2.82.22-.52.59-.78,1.11-.78.44,0,.79.09,1.05.27.26.18.49.47.69.87l-.06,2.4c0,2.56.13,4.98.39,7.26.26,2.28.67,5.34,1.23,9.18.32,1.68.54,3.06.66,4.14.08.56-.02,1.11-.3,1.65-.28.54-.64.81-1.08.81-.92,0-1.66-1.35-2.22-4.05Z"/><path class="cls-1" d="m229.35,144.67c-2.58-2.14-3.87-5.45-3.87-9.93,0-2.28.57-4.45,1.71-6.51,1.14-2.06,2.68-3.72,4.62-4.98,1.94-1.26,4.03-1.89,6.27-1.89s4.22.49,5.82,1.47c1.6.98,2.4,2.39,2.4,4.23,0,1.28-.23,2.19-.69,2.73-.46.54-.97.81-1.53.81,0-1.92-.52-3.48-1.56-4.68-1.04-1.2-2.52-1.8-4.44-1.8s-3.58.51-4.98,1.53c-1.4,1.02-2.47,2.36-3.21,4.02-.74,1.66-1.11,3.39-1.11,5.19,0,3.8,1.29,6.38,3.87,7.74,2.58,1.36,5.99,2.04,10.23,2.04,1.44,0,3.32-.08,5.64-.24.08,0,.26.08.54.24s.5.26.66.3v.36c0,1.16-1.02,1.88-3.06,2.16-2.04.28-4.18.42-6.42.42-4.68,0-8.31-1.07-10.89-3.21Z"/></g></g><line id="Line_63" class="cls-2" x1="305.4" y1="37.82" x2="333.4" y2="37.82"/><line id="Line_64" class="cls-2" x1="303.4" y1="140.82" x2="331.4" y2="140.82"/><g id="Cute" class="cls-3"><g class="cls-3"><path class="cls-1" d="m894.4,37.2c-1.96-1.52-3.45-3.6-4.47-6.24-1.02-2.64-1.53-5.64-1.53-9,0-3.76.88-7.33,2.64-10.71,1.76-3.38,4.07-6.1,6.93-8.16,2.86-2.06,5.83-3.09,8.91-3.09,2.6,0,4.6.58,6,1.74,1.4,1.16,2.1,2.52,2.1,4.08,0,.92-.27,1.76-.81,2.52-.54.76-1.31,1.34-2.31,1.74-.12-.24-.18-.62-.18-1.14,0-.48.06-.96.18-1.44.08-.64.12-1.1.12-1.38,0-.4-.06-.74-.18-1.02-.56-1.4-2.08-2.1-4.56-2.1-.68,0-1.48.06-2.4.18-2.12.28-4.22,1.33-6.3,3.15-2.08,1.82-3.78,4.09-5.1,6.81-1.32,2.72-1.98,5.5-1.98,8.34,0,2.48.41,4.83,1.23,7.05.82,2.22,2.01,4.01,3.57,5.37,1.56,1.36,3.42,2.04,5.58,2.04,2.8,0,5.13-.34,6.99-1.02,1.86-.68,3.69-1.72,5.49-3.12.2-.16.42-.24.66-.24.44,0,.74.26.9.78.2.96-.44,2-1.92,3.12-1.48,1.12-3.4,2.07-5.76,2.85-2.36.78-4.6,1.17-6.72,1.17-2.76,0-5.12-.76-7.08-2.28Z"/><path class="cls-1" d="m949.63,37.59c-.42-.62-.79-1.58-1.11-2.88-.32-1.3-.82-3.57-1.5-6.81-.68,2.68-1.96,4.81-3.84,6.39-1.88,1.58-4.18,2.37-6.9,2.37-2.48,0-4.57-.87-6.27-2.61-1.7-1.74-2.97-4.04-3.81-6.9-.84-2.86-1.26-5.95-1.26-9.27,0-1.52.15-2.83.45-3.93.3-1.1.68-1.93,1.14-2.49.46-.56.91-.82,1.35-.78.48,0,.72.32.72.96,0,.52-.14,1.34-.42,2.46-.28,1.24-.42,2.66-.42,4.26,0,2.4.35,4.74,1.05,7.02.7,2.28,1.74,4.15,3.12,5.61,1.38,1.46,3.01,2.19,4.89,2.19,1.56,0,2.98-.46,4.26-1.38,1.28-.92,2.29-2.08,3.03-3.48.74-1.4,1.11-2.78,1.11-4.14v-9.54c.44-.84,1.04-1.26,1.8-1.26.68,0,1.14.58,1.38,1.74.24,1.16.36,2.8.36,4.92,0,1.8-.02,3.18-.06,4.14.24,1.32.61,2.66,1.11,4.02.5,1.36,1.13,2.9,1.89,4.62.92,2.12,1.38,3.42,1.38,3.9,0,1.2-.58,1.8-1.74,1.8-.72,0-1.29-.31-1.71-.93Z"/><path class="cls-1" d="m969.76,38.94c-1.24,0-2.09-.92-2.55-2.76s-.69-4.42-.69-7.74c0-1.36.04-3.48.12-6.36.08-1.76.12-3.08.12-3.96-4.92,0-7.38-.56-7.38-1.68,0-.36.05-.64.15-.84s.33-.3.69-.3l6.54-.42c-.04-1.96-.14-4.1-.3-6.42-.16-2.08-.26-4-.3-5.76,0-.44.18-.75.54-.93.36-.18.74-.27,1.14-.27.48,0,.88.25,1.2.75.32.5.48,1.01.48,1.53l.42,10.98,4.98.24c.76-.08,1.41.06,1.95.42.54.36.83.96.87,1.8-.84.36-1.76.58-2.76.66-1,.08-2.68.12-5.04.12,0,3.72.18,9.84.54,18.36,0,.88,0,1.49.03,1.83.02.34.03.55.03.63-.4.08-.66.12-.78.12Z"/><path class="cls-1" d="m991.12,37.32c-2.16-1-3.88-2.42-5.16-4.26-1.28-1.84-1.92-3.96-1.92-6.36,0-2.68.5-5.19,1.5-7.53,1-2.34,2.47-4.22,4.41-5.64,1.94-1.42,4.21-2.13,6.81-2.13s4.78.87,6.18,2.61c1.4,1.74,2.06,3.93,1.98,6.57,0,2.36-.93,4.16-2.79,5.4-1.86,1.24-4.23,1.86-7.11,1.86-.44,0-1.1-.04-1.98-.12-1.44-.16-2.46-.38-3.06-.66-.6-.28-.9-.84-.9-1.68,0-.28.08-.49.24-.63.16-.14.48-.21.96-.21.52,0,1.44.12,2.76.36,1.28.24,2.42.36,3.42.36,3.68,0,5.52-1.6,5.52-4.8,0-1.92-.35-3.44-1.05-4.56-.7-1.12-1.93-1.68-3.69-1.68-1.92,0-3.64.51-5.16,1.53-1.52,1.02-2.69,2.35-3.51,3.99-.82,1.64-1.23,3.38-1.23,5.22,0,3.16.88,5.75,2.64,7.77,1.76,2.02,4.48,3.03,8.16,3.03.44,0,1.18-.04,2.22-.12.44-.04.98-.16,1.62-.36.64-.2,1.1-.34,1.38-.42,1.72-.6,2.98-.9,3.78-.9.6,0,1.06.16,1.38.48-1,1.52-2.49,2.63-4.47,3.33-1.98.7-3.93,1.05-5.85,1.05-2.56,0-4.92-.5-7.08-1.5Z"/></g></g><g id="Whimsical" class="cls-3"><g class="cls-3"><path class="cls-1" d="m908.86,138.03c-1.96-1.86-3.64-4.39-5.04-7.59-.8,3.16-2.08,5.51-3.84,7.05-1.76,1.54-3.7,2.31-5.82,2.31-3,0-5.21-2.58-6.63-7.74-1.42-5.16-2.13-11.34-2.13-18.54,0-2.08.16-3.73.48-4.95.32-1.22.92-1.83,1.8-1.83.36,0,.65.68.87,2.04.22,1.36.33,3.08.33,5.16,0,14.96,1.92,22.44,5.76,22.44,1.44,0,2.66-.4,3.66-1.2,1-.8,1.94-2.1,2.82-3.9.44-1.08.66-2.86.66-5.34l-.06-3.78c.2-.36.56-.54,1.08-.54.36,0,.71.09,1.05.27.34.18.57.47.69.87.28,2.12.85,4.27,1.71,6.45.86,2.18,2.02,4.02,3.48,5.52,1.46,1.5,3.19,2.25,5.19,2.25,2.76,0,4.72-.61,5.88-1.83,1.16-1.22,1.74-2.87,1.74-4.95,0-4.52-.31-8.15-.93-10.89-.62-2.74-1.43-5.33-2.43-7.77-.44-1.16-.75-2.02-.93-2.58-.18-.56-.27-1.14-.27-1.74.28-.64.66-.96,1.14-.96.88,0,1.85,1.06,2.91,3.18s1.97,4.97,2.73,8.55c.76,3.58,1.14,7.43,1.14,11.55,0,2.28-.47,4.27-1.41,5.97s-2.2,3.01-3.78,3.93c-1.58.92-3.29,1.38-5.13,1.38-2.52,0-4.76-.93-6.72-2.79Z"/><path class="cls-1" d="m940.27,138.42c-.22-1.56-.51-4.24-.87-8.04-.56-6.24-1.19-11.96-1.89-17.16-.7-5.2-1.57-9.7-2.61-13.5-.08-.32.04-.6.36-.84.32-.24.76-.36,1.32-.36.28,0,.5.02.66.06,1,2.72,1.71,5.12,2.13,7.2.42,2.08.81,4.64,1.17,7.68l.3,2.34c2.4-1.44,4.6-2.16,6.6-2.16,3.64,0,6.23,1.65,7.77,4.95,1.54,3.3,2.31,7.99,2.31,14.07,0,2.32-.14,4.27-.42,5.85s-.62,2.37-1.02,2.37c-.52,0-1.1-.38-1.74-1.14v-1.98l.06-6.54c0-1.24-.04-2.78-.12-4.62-.12-3.12-.75-5.48-1.89-7.08-1.14-1.6-3.09-2.4-5.85-2.4-1.84,0-3.56.68-5.16,2.04,0,1.52.07,3.08.21,4.68.14,1.6.31,3.16.51,4.68.28,2.12.49,3.99.63,5.61.14,1.62.21,3.41.21,5.37-.24.48-.51.8-.81.96-.3.16-.71.24-1.23.24-.2.04-.41-.72-.63-2.28Z"/><path class="cls-1" d="m966.37,106.86c-.42-.68-.63-1.52-.63-2.52,0-.44.02-.76.06-.96-.04-.64.32-.96,1.08-.96.56,0,1.13.13,1.71.39.58.26.75.45.51.57.4,1.04.6,1.86.6,2.46,0,.52-.12.93-.36,1.23s-.58.57-1.02.81c-.88,0-1.53-.34-1.95-1.02Zm1.23,29.97c-.56-2.7-.92-5.03-1.08-6.99-.16-1.96-.38-5.06-.66-9.3-.04-.68-.06-1.56-.06-2.64,0-1.36.11-2.3.33-2.82.22-.52.59-.78,1.11-.78.44,0,.79.09,1.05.27s.49.47.69.87l-.06,2.4c0,2.56.13,4.98.39,7.26.26,2.28.67,5.34,1.23,9.18.32,1.68.54,3.06.66,4.14.08.56-.02,1.11-.3,1.65-.28.54-.64.81-1.08.81-.92,0-1.66-1.35-2.22-4.05Z"/><path class="cls-1" d="m1017.46,140.37c-.12-.34-.18-.87-.18-1.59.04-.28.06-.61.06-.99s.02-.67.06-.87c.24-1.92.36-3.74.36-5.46,0-3.8-.64-6.77-1.92-8.91-1.28-2.14-3.3-3.21-6.06-3.21-1.52,0-3.03.38-4.53,1.14s-2.72,1.7-3.66,2.82c-.94,1.12-1.41,2.14-1.41,3.06.2,1.16.56,2.58,1.08,4.26.04.2.21.82.51,1.86.3,1.04.45,1.98.45,2.82l.06,1.14c0,.64-.32.96-.96.96-.8,0-1.45-.52-1.95-1.56-.5-1.04-1.05-2.66-1.65-4.86-.6-2.16-1.18-3.94-1.74-5.34s-1.32-2.6-2.28-3.6c-.96-1-2.18-1.5-3.66-1.5-2.04,0-3.63.7-4.77,2.1-1.14,1.4-1.71,3.12-1.71,5.16,0,1.36.12,3.16.36,5.4.2,1.68.3,3.12.3,4.32,0,.72-.08,1.26-.24,1.62-.16.36-.54.54-1.14.54-.8,0-1.36-.27-1.68-.81-.32-.54-.48-1.37-.48-2.49,0-2.2-.12-4.86-.36-7.98-.04-.4-.12-1.43-.24-3.09-.12-1.66-.14-3.33-.06-5.01l.06-1.98c.24-.24.52-.36.84-.36.44,0,.81.27,1.11.81.3.54.45,1.35.45,2.43.6-1.04,1.48-1.98,2.64-2.82,1.16-.84,2.38-1.26,3.66-1.26,2.2,0,4.03.45,5.49,1.35,1.46.9,2.79,2.35,3.99,4.35,1.12-2.04,2.81-3.78,5.07-5.22,2.26-1.44,4.59-2.16,6.99-2.16s4.55.94,6.21,2.82c1.66,1.88,2.88,4.14,3.66,6.78.78,2.64,1.17,5.08,1.17,7.32,0,2-.17,3.92-.51,5.76-.34,1.84-1.11,2.76-2.31,2.76-.6,0-.96-.17-1.08-.51Z"/><path class="cls-1" d="m1031.08,133.08c.48,0,.95.14,1.41.42.46.28.93.63,1.41,1.05.48.42.86.73,1.14.93.92.72,2.18,1.28,3.78,1.68,1.6.4,3.3.6,5.1.6,2.04,0,3.87-.39,5.49-1.17,1.62-.78,2.43-1.83,2.43-3.15,0-1.2-.44-2.15-1.32-2.85-.88-.7-1.94-1.21-3.18-1.53s-2.88-.62-4.92-.9c-2.76-.32-4.95-.72-6.57-1.2-1.62-.48-2.91-1.27-3.87-2.37-.96-1.1-1.44-2.65-1.44-4.65,0-2.16,1.02-3.77,3.06-4.83,2.04-1.06,4.38-1.59,7.02-1.59,2.4,0,4.45.51,6.15,1.53,1.7,1.02,2.57,2.47,2.61,4.35.08,1.08-.08,1.93-.48,2.55-.4.62-.88.93-1.44.93-.32,0-.59-.12-.81-.36-.22-.24-.33-.56-.33-.96,0-.64.22-1.34.66-2.1-.2-.96-.85-1.68-1.95-2.16-1.1-.48-2.41-.72-3.93-.72-2.24,0-4.02.41-5.34,1.23-1.32.82-1.98,1.79-1.98,2.91,0,1.2.48,2.12,1.44,2.76.96.64,2.13,1.09,3.51,1.35,1.38.26,3.35.51,5.91.75,2.12.28,3.85.62,5.19,1.02,1.34.4,2.47,1.17,3.39,2.31.92,1.14,1.38,2.77,1.38,4.89s-1.02,3.93-3.06,5.19-4.48,1.89-7.32,1.89c-3.64,0-6.89-.62-9.75-1.86-2.86-1.24-4.53-3-5.01-5.28.56-.44,1.1-.66,1.62-.66Z"/><path class="cls-1" d="m1063.27,106.86c-.42-.68-.63-1.52-.63-2.52,0-.44.02-.76.06-.96-.04-.64.32-.96,1.08-.96.56,0,1.13.13,1.71.39.58.26.75.45.51.57.4,1.04.6,1.86.6,2.46,0,.52-.12.93-.36,1.23-.24.3-.58.57-1.02.81-.88,0-1.53-.34-1.95-1.02Zm1.23,29.97c-.56-2.7-.92-5.03-1.08-6.99-.16-1.96-.38-5.06-.66-9.3-.04-.68-.06-1.56-.06-2.64,0-1.36.11-2.3.33-2.82.22-.52.59-.78,1.11-.78.44,0,.79.09,1.05.27.26.18.49.47.69.87l-.06,2.4c0,2.56.13,4.98.39,7.26.26,2.28.67,5.34,1.23,9.18.32,1.68.54,3.06.66,4.14.08.56-.02,1.11-.3,1.65s-.64.81-1.08.81c-.92,0-1.66-1.35-2.22-4.05Z"/><path class="cls-1" d="m1080.37,137.67c-2.58-2.14-3.87-5.45-3.87-9.93,0-2.28.57-4.45,1.71-6.51,1.14-2.06,2.68-3.72,4.62-4.98,1.94-1.26,4.03-1.89,6.27-1.89s4.22.49,5.82,1.47c1.6.98,2.4,2.39,2.4,4.23,0,1.28-.23,2.19-.69,2.73-.46.54-.97.81-1.53.81,0-1.92-.52-3.48-1.56-4.68-1.04-1.2-2.52-1.8-4.44-1.8s-3.58.51-4.98,1.53c-1.4,1.02-2.47,2.36-3.21,4.02-.74,1.66-1.11,3.39-1.11,5.19,0,3.8,1.29,6.38,3.87,7.74,2.58,1.36,5.99,2.04,10.23,2.04,1.44,0,3.32-.08,5.64-.24.08,0,.26.08.54.24.28.16.5.26.66.3v.36c0,1.16-1.02,1.88-3.06,2.16-2.04.28-4.18.42-6.42.42-4.68,0-8.31-1.07-10.89-3.21Z"/><path class="cls-1" d="m1110.73,138.63c-3.06-1.46-4.59-4.03-4.59-7.71,0-1.32.4-2.6,1.2-3.84.8-1.24,1.98-2.25,3.54-3.03,1.56-.78,3.46-1.17,5.7-1.17,1.72,0,3.18.08,4.38.24,1.2.16,2.58.6,4.14,1.32,1.56.72,3.18,1.86,4.86,3.42-.64-2.76-1.6-5.18-2.88-7.26-1.28-2.08-2.71-3.69-4.29-4.83-1.58-1.14-3.13-1.71-4.65-1.71-.72,0-1.39.13-2.01.39-.62.26-1.37.63-2.25,1.11-1,.64-1.74.96-2.22.96-.2,0-.37-.07-.51-.21-.14-.14-.21-.31-.21-.51,0-1.6.71-2.84,2.13-3.72,1.42-.88,3.15-1.28,5.19-1.2,2.8.16,5.36,1.35,7.68,3.57,2.32,2.22,4.15,4.97,5.49,8.25,1.34,3.28,2.01,6.5,2.01,9.66,0,.52-.04,1.26-.12,2.22l-1.92-.12c-1.52-3.08-3.47-5.27-5.85-6.57-2.38-1.3-4.77-1.95-7.17-1.95-3.08,0-5.28.46-6.6,1.38-1.32.92-1.98,2.26-1.98,4.02s.92,3.32,2.76,4.44c1.84,1.12,4.2,1.68,7.08,1.68,1.6,0,2.88-.09,3.84-.27.96-.18,1.96-.43,3-.75.84-.28,1.58-.48,2.22-.6.64-.12,1.46-.18,2.46-.18,1.12,0,1.83.08,2.13.24.3.16.45.52.45,1.08,0,.4-.82.9-2.46,1.5-1.64.6-3.48,1.14-5.52,1.62-2.04.48-3.44.72-4.2.72-4.16,0-7.77-.73-10.83-2.19Z"/><path class="cls-1" d="m1142.83,124.89c-.46-5.98-.69-11.77-.69-17.37,0-2.8.06-5.28.18-7.44,0-.52.4-.78,1.2-.78.64,0,1.05.16,1.23.48.18.32.27.82.27,1.5,0,6.48.12,12.01.36,16.59.24,4.58.56,9.51.96,14.79.24,3.4.4,5.7.48,6.9.04.64-.3.96-1.02.96-.24,0-.56-.04-.96-.12-.88-4.36-1.55-9.53-2.01-15.51Z"/></g></g><line id="Line_65" class="cls-2" x1="759.89" y1="26.51" x2="787.89" y2="26.51"/><line id="Line_66" class="cls-2" x1="759.89" y1="127.51" x2="787.89" y2="127.51"/><g id="Creative" class="cls-3"><g class="cls-3"><path class="cls-1" d="m471.38,49.08c-1.96-1.52-3.45-3.6-4.47-6.24-1.02-2.64-1.53-5.64-1.53-9,0-3.76.88-7.33,2.64-10.71,1.76-3.38,4.07-6.1,6.93-8.16,2.86-2.06,5.83-3.09,8.91-3.09,2.6,0,4.6.58,6,1.74,1.4,1.16,2.1,2.52,2.1,4.08,0,.92-.27,1.76-.81,2.52-.54.76-1.31,1.34-2.31,1.74-.12-.24-.18-.62-.18-1.14,0-.48.06-.96.18-1.44.08-.64.12-1.1.12-1.38,0-.4-.06-.74-.18-1.02-.56-1.4-2.08-2.1-4.56-2.1-.68,0-1.48.06-2.4.18-2.12.28-4.22,1.33-6.3,3.15-2.08,1.82-3.78,4.09-5.1,6.81-1.32,2.72-1.98,5.5-1.98,8.34,0,2.48.41,4.83,1.23,7.05.82,2.22,2.01,4.01,3.57,5.37,1.56,1.36,3.42,2.04,5.58,2.04,2.8,0,5.13-.34,6.99-1.02,1.86-.68,3.69-1.72,5.49-3.12.2-.16.42-.24.66-.24.44,0,.74.26.9.78.2.96-.44,2-1.92,3.12-1.48,1.12-3.4,2.07-5.76,2.85-2.36.78-4.6,1.17-6.72,1.17-2.76,0-5.12-.76-7.08-2.28Z"/><path class="cls-1" d="m502.13,39.42c-.94-4.32-1.41-8.06-1.41-11.22,0-1.24.28-2.04.84-2.4.32-.2.56-.3.72-.3.28,0,.49.22.63.66.14.44.29,1.24.45,2.4l.3,2.16c.44-2.16,1.29-3.87,2.55-5.13,1.26-1.26,2.81-1.89,4.65-1.89,2.04,0,3.56.39,4.56,1.17,1,.78,1.5,2.07,1.5,3.87-2-.96-3.82-1.44-5.46-1.44s-2.9.42-4.02,1.26c-1.12.84-1.9,2.08-2.34,3.72-.36,1.12-.54,2.18-.54,3.18,0,1.08.15,2.09.45,3.03.3.94.77,2.09,1.41,3.45.6,1.4,1.07,2.6,1.41,3.6.34,1,.53,2.08.57,3.24,0,.68-.24,1.17-.72,1.47s-1.04.45-1.68.45c-1.64-3.2-2.93-6.96-3.87-11.28Z"/><path class="cls-1" d="m529.4,49.2c-2.16-1-3.88-2.42-5.16-4.26-1.28-1.84-1.92-3.96-1.92-6.36,0-2.68.5-5.19,1.5-7.53,1-2.34,2.47-4.22,4.41-5.64,1.94-1.42,4.21-2.13,6.81-2.13s4.78.87,6.18,2.61c1.4,1.74,2.06,3.93,1.98,6.57,0,2.36-.93,4.16-2.79,5.4-1.86,1.24-4.23,1.86-7.11,1.86-.44,0-1.1-.04-1.98-.12-1.44-.16-2.46-.38-3.06-.66-.6-.28-.9-.84-.9-1.68,0-.28.08-.49.24-.63.16-.14.48-.21.96-.21.52,0,1.44.12,2.76.36,1.28.24,2.42.36,3.42.36,3.68,0,5.52-1.6,5.52-4.8,0-1.92-.35-3.44-1.05-4.56-.7-1.12-1.93-1.68-3.69-1.68-1.92,0-3.64.51-5.16,1.53-1.52,1.02-2.69,2.35-3.51,3.99-.82,1.64-1.23,3.38-1.23,5.22,0,3.16.88,5.75,2.64,7.77,1.76,2.02,4.48,3.03,8.16,3.03.44,0,1.18-.04,2.22-.12.44-.04.98-.16,1.62-.36.64-.2,1.1-.34,1.38-.42,1.72-.6,2.98-.9,3.78-.9.6,0,1.06.16,1.38.48-1,1.52-2.49,2.63-4.47,3.33-1.98.7-3.93,1.05-5.85,1.05-2.56,0-4.92-.5-7.08-1.5Z"/><path class="cls-1" d="m556.79,48.51c-3.06-1.46-4.59-4.03-4.59-7.71,0-1.32.4-2.6,1.2-3.84.8-1.24,1.98-2.25,3.54-3.03,1.56-.78,3.46-1.17,5.7-1.17,1.72,0,3.18.08,4.38.24,1.2.16,2.58.6,4.14,1.32s3.18,1.86,4.86,3.42c-.64-2.76-1.6-5.18-2.88-7.26-1.28-2.08-2.71-3.69-4.29-4.83-1.58-1.14-3.13-1.71-4.65-1.71-.72,0-1.39.13-2.01.39-.62.26-1.37.63-2.25,1.11-1,.64-1.74.96-2.22.96-.2,0-.37-.07-.51-.21-.14-.14-.21-.31-.21-.51,0-1.6.71-2.84,2.13-3.72,1.42-.88,3.15-1.28,5.19-1.2,2.8.16,5.36,1.35,7.68,3.57s4.15,4.97,5.49,8.25c1.34,3.28,2.01,6.5,2.01,9.66,0,.52-.04,1.26-.12,2.22l-1.92-.12c-1.52-3.08-3.47-5.27-5.85-6.57s-4.77-1.95-7.17-1.95c-3.08,0-5.28.46-6.6,1.38-1.32.92-1.98,2.26-1.98,4.02s.92,3.32,2.76,4.44c1.84,1.12,4.2,1.68,7.08,1.68,1.6,0,2.88-.09,3.84-.27.96-.18,1.96-.43,3-.75.84-.28,1.58-.48,2.22-.6.64-.12,1.46-.18,2.46-.18,1.12,0,1.83.08,2.13.24.3.16.45.52.45,1.08,0,.4-.82.9-2.46,1.5-1.64.6-3.48,1.14-5.52,1.62-2.04.48-3.44.72-4.2.72-4.16,0-7.77-.73-10.83-2.19Z"/><path class="cls-1" d="m596.48,50.82c-1.24,0-2.09-.92-2.55-2.76s-.69-4.42-.69-7.74c0-1.36.04-3.48.12-6.36.08-1.76.12-3.08.12-3.96-4.92,0-7.38-.56-7.38-1.68,0-.36.05-.64.15-.84s.33-.3.69-.3l6.54-.42c-.04-1.96-.14-4.1-.3-6.42-.16-2.08-.26-4-.3-5.76,0-.44.18-.75.54-.93.36-.18.74-.27,1.14-.27.48,0,.88.25,1.2.75.32.5.48,1.01.48,1.53l.42,10.98,4.98.24c.76-.08,1.41.06,1.95.42.54.36.83.96.87,1.8-.84.36-1.76.58-2.76.66-1,.08-2.68.12-5.04.12,0,3.72.18,9.84.54,18.36,0,.88,0,1.49.03,1.83.02.34.03.55.03.63-.4.08-.66.12-.78.12Z"/><path class="cls-1" d="m611.33,16.74c-.42-.68-.63-1.52-.63-2.52,0-.44.02-.76.06-.96-.04-.64.32-.96,1.08-.96.56,0,1.13.13,1.71.39.58.26.75.45.51.57.4,1.04.6,1.86.6,2.46,0,.52-.12.93-.36,1.23-.24.3-.58.57-1.02.81-.88,0-1.53-.34-1.95-1.02Zm1.23,29.97c-.56-2.7-.92-5.03-1.08-6.99-.16-1.96-.38-5.06-.66-9.3-.04-.68-.06-1.56-.06-2.64,0-1.36.11-2.3.33-2.82.22-.52.59-.78,1.11-.78.44,0,.79.09,1.05.27.26.18.49.47.69.87l-.06,2.4c0,2.56.13,4.98.39,7.26.26,2.28.67,5.34,1.23,9.18.32,1.68.54,3.06.66,4.14.08.56-.02,1.11-.3,1.65s-.64.81-1.08.81c-.92,0-1.66-1.35-2.22-4.05Z"/><path class="cls-1" d="m630.35,45.57c-1.86-3.46-4.01-7.85-6.45-13.17l-1.74-3.72c0-.4.24-.79.72-1.17.48-.38,1.2-.55,2.16-.51.24.44,1,2.06,2.28,4.86,1.52,3.28,2.81,5.97,3.87,8.07,1.06,2.1,2.35,4.35,3.87,6.75.68-2.48,1.45-4.81,2.31-6.99.86-2.18,2.15-5.27,3.87-9.27l.9-2.1c.24-.48.7-.72,1.38-.72.48,0,.9.12,1.26.36.36.24.54.58.54,1.02,0,.4-.2.82-.6,1.26-.28.28-.68,1.09-1.2,2.43-.52,1.34-1.06,2.83-1.62,4.47-1.52,4.32-2.84,7.69-3.96,10.11-1.12,2.42-2.14,3.59-3.06,3.51-1.16,0-2.67-1.73-4.53-5.19Z"/><path class="cls-1" d="m659.6,49.2c-2.16-1-3.88-2.42-5.16-4.26s-1.92-3.96-1.92-6.36c0-2.68.5-5.19,1.5-7.53,1-2.34,2.47-4.22,4.41-5.64,1.94-1.42,4.21-2.13,6.81-2.13s4.78.87,6.18,2.61c1.4,1.74,2.06,3.93,1.98,6.57,0,2.36-.93,4.16-2.79,5.4-1.86,1.24-4.23,1.86-7.11,1.86-.44,0-1.1-.04-1.98-.12-1.44-.16-2.46-.38-3.06-.66-.6-.28-.9-.84-.9-1.68,0-.28.08-.49.24-.63.16-.14.48-.21.96-.21.52,0,1.44.12,2.76.36,1.28.24,2.42.36,3.42.36,3.68,0,5.52-1.6,5.52-4.8,0-1.92-.35-3.44-1.05-4.56-.7-1.12-1.93-1.68-3.69-1.68-1.92,0-3.64.51-5.16,1.53-1.52,1.02-2.69,2.35-3.51,3.99-.82,1.64-1.23,3.38-1.23,5.22,0,3.16.88,5.75,2.64,7.77,1.76,2.02,4.48,3.03,8.16,3.03.44,0,1.18-.04,2.22-.12.44-.04.98-.16,1.62-.36.64-.2,1.1-.34,1.38-.42,1.72-.6,2.98-.9,3.78-.9.6,0,1.06.16,1.38.48-1,1.52-2.49,2.63-4.47,3.33-1.98.7-3.93,1.05-5.85,1.05-2.56,0-4.92-.5-7.08-1.5Z"/></g></g><g id="Curious" class="cls-3"><g class="cls-3"><path class="cls-1" d="m474.4,147.2c-1.96-1.52-3.45-3.6-4.47-6.24-1.02-2.64-1.53-5.64-1.53-9,0-3.76.88-7.33,2.64-10.71,1.76-3.38,4.07-6.1,6.93-8.16,2.86-2.06,5.83-3.09,8.91-3.09,2.6,0,4.6.58,6,1.74,1.4,1.16,2.1,2.52,2.1,4.08,0,.92-.27,1.76-.81,2.52-.54.76-1.31,1.34-2.31,1.74-.12-.24-.18-.62-.18-1.14,0-.48.06-.96.18-1.44.08-.64.12-1.1.12-1.38,0-.4-.06-.74-.18-1.02-.56-1.4-2.08-2.1-4.56-2.1-.68,0-1.48.06-2.4.18-2.12.28-4.22,1.33-6.3,3.15-2.08,1.82-3.78,4.09-5.1,6.81-1.32,2.72-1.98,5.5-1.98,8.34,0,2.48.41,4.83,1.23,7.05.82,2.22,2.01,4.01,3.57,5.37,1.56,1.36,3.42,2.04,5.58,2.04,2.8,0,5.13-.34,6.99-1.02,1.86-.68,3.69-1.72,5.49-3.12.2-.16.42-.24.66-.24.44,0,.74.26.9.78.2.96-.44,2-1.92,3.12-1.48,1.12-3.4,2.07-5.76,2.85-2.36.78-4.6,1.17-6.72,1.17-2.76,0-5.12-.76-7.08-2.28Z"/><path class="cls-1" d="m529.63,147.59c-.42-.62-.79-1.58-1.11-2.88-.32-1.3-.82-3.57-1.5-6.81-.68,2.68-1.96,4.81-3.84,6.39-1.88,1.58-4.18,2.37-6.9,2.37-2.48,0-4.57-.87-6.27-2.61-1.7-1.74-2.97-4.04-3.81-6.9-.84-2.86-1.26-5.95-1.26-9.27,0-1.52.15-2.83.45-3.93.3-1.1.68-1.93,1.14-2.49.46-.56.91-.82,1.35-.78.48,0,.72.32.72.96,0,.52-.14,1.34-.42,2.46-.28,1.24-.42,2.66-.42,4.26,0,2.4.35,4.74,1.05,7.02.7,2.28,1.74,4.15,3.12,5.61,1.38,1.46,3.01,2.19,4.89,2.19,1.56,0,2.98-.46,4.26-1.38,1.28-.92,2.29-2.08,3.03-3.48.74-1.4,1.11-2.78,1.11-4.14v-9.54c.44-.84,1.04-1.26,1.8-1.26.68,0,1.14.58,1.38,1.74.24,1.16.36,2.8.36,4.92,0,1.8-.02,3.18-.06,4.14.24,1.32.61,2.66,1.11,4.02.5,1.36,1.13,2.9,1.89,4.62.92,2.12,1.38,3.42,1.38,3.9,0,1.2-.58,1.8-1.74,1.8-.72,0-1.29-.31-1.71-.93Z"/><path class="cls-1" d="m542.29,137.54c-.94-4.32-1.41-8.06-1.41-11.22,0-1.24.28-2.04.84-2.4.32-.2.56-.3.72-.3.28,0,.49.22.63.66.14.44.29,1.24.45,2.4l.3,2.16c.44-2.16,1.29-3.87,2.55-5.13,1.26-1.26,2.81-1.89,4.65-1.89,2.04,0,3.56.39,4.56,1.17,1,.78,1.5,2.07,1.5,3.87-2-.96-3.82-1.44-5.46-1.44s-2.9.42-4.02,1.26c-1.12.84-1.9,2.08-2.34,3.72-.36,1.12-.54,2.18-.54,3.18,0,1.08.15,2.09.45,3.03.3.94.77,2.09,1.41,3.45.6,1.4,1.07,2.6,1.41,3.6.34,1,.53,2.08.57,3.24,0,.68-.24,1.17-.72,1.47-.48.3-1.04.45-1.68.45-1.64-3.2-2.93-6.96-3.87-11.28Z"/><path class="cls-1" d="m563.05,114.86c-.42-.68-.63-1.52-.63-2.52,0-.44.02-.76.06-.96-.04-.64.32-.96,1.08-.96.56,0,1.13.13,1.71.39.58.26.75.45.51.57.4,1.04.6,1.86.6,2.46,0,.52-.12.93-.36,1.23s-.58.57-1.02.81c-.88,0-1.53-.34-1.95-1.02Zm1.23,29.97c-.56-2.7-.92-5.03-1.08-6.99-.16-1.96-.38-5.06-.66-9.3-.04-.68-.06-1.56-.06-2.64,0-1.36.11-2.3.33-2.82.22-.52.59-.78,1.11-.78.44,0,.79.09,1.05.27s.49.47.69.87l-.06,2.4c0,2.56.13,4.98.39,7.26.26,2.28.67,5.34,1.23,9.18.32,1.68.54,3.06.66,4.14.08.56-.02,1.11-.3,1.65-.28.54-.64.81-1.08.81-.92,0-1.66-1.35-2.22-4.05Z"/><path class="cls-1" d="m582.31,147.29c-1.9-1.06-3.38-2.54-4.44-4.44-1.06-1.9-1.59-4.07-1.59-6.51,0-4,1.47-6.98,4.41-8.94,2.94-1.96,6.55-2.94,10.83-2.94,1.96,0,3.79.48,5.49,1.44s3.07,2.34,4.11,4.14c1.04,1.8,1.56,3.88,1.56,6.24,0,2.56-.66,4.79-1.98,6.69-1.32,1.9-3.05,3.36-5.19,4.38-2.14,1.02-4.41,1.53-6.81,1.53s-4.49-.53-6.39-1.59Zm14.19-4.35c1.92-1.68,2.88-4.14,2.88-7.38,0-2.2-.75-4.1-2.25-5.7-1.5-1.6-3.59-2.4-6.27-2.4-1.8,0-3.62.34-5.46,1.02-1.84.68-3.36,1.7-4.56,3.06-1.2,1.36-1.8,3-1.8,4.92,0,1.6.4,3.09,1.2,4.47.8,1.38,1.89,2.48,3.27,3.3,1.38.82,2.89,1.23,4.53,1.23,3.72,0,6.54-.84,8.46-2.52Z"/><path class="cls-1" d="m636.37,147.59c-.42-.62-.79-1.58-1.11-2.88-.32-1.3-.82-3.57-1.5-6.81-.68,2.68-1.96,4.81-3.84,6.39-1.88,1.58-4.18,2.37-6.9,2.37-2.48,0-4.57-.87-6.27-2.61-1.7-1.74-2.97-4.04-3.81-6.9-.84-2.86-1.26-5.95-1.26-9.27,0-1.52.15-2.83.45-3.93.3-1.1.68-1.93,1.14-2.49.46-.56.91-.82,1.35-.78.48,0,.72.32.72.96,0,.52-.14,1.34-.42,2.46-.28,1.24-.42,2.66-.42,4.26,0,2.4.35,4.74,1.05,7.02.7,2.28,1.74,4.15,3.12,5.61,1.38,1.46,3.01,2.19,4.89,2.19,1.56,0,2.98-.46,4.26-1.38,1.28-.92,2.29-2.08,3.03-3.48.74-1.4,1.11-2.78,1.11-4.14v-9.54c.44-.84,1.04-1.26,1.8-1.26.68,0,1.14.58,1.38,1.74.24,1.16.36,2.8.36,4.92,0,1.8-.02,3.18-.06,4.14.24,1.32.61,2.66,1.11,4.02.5,1.36,1.13,2.9,1.89,4.62.92,2.12,1.38,3.42,1.38,3.9,0,1.2-.58,1.8-1.74,1.8-.72,0-1.29-.31-1.71-.93Z"/><path class="cls-1" d="m649.54,141.08c.48,0,.95.14,1.41.42.46.28.93.63,1.41,1.05.48.42.86.73,1.14.93.92.72,2.18,1.28,3.78,1.68,1.6.4,3.3.6,5.1.6,2.04,0,3.87-.39,5.49-1.17,1.62-.78,2.43-1.83,2.43-3.15,0-1.2-.44-2.15-1.32-2.85-.88-.7-1.94-1.21-3.18-1.53s-2.88-.62-4.92-.9c-2.76-.32-4.95-.72-6.57-1.2-1.62-.48-2.91-1.27-3.87-2.37-.96-1.1-1.44-2.65-1.44-4.65,0-2.16,1.02-3.77,3.06-4.83,2.04-1.06,4.38-1.59,7.02-1.59,2.4,0,4.45.51,6.15,1.53,1.7,1.02,2.57,2.47,2.61,4.35.08,1.08-.08,1.93-.48,2.55-.4.62-.88.93-1.44.93-.32,0-.59-.12-.81-.36-.22-.24-.33-.56-.33-.96,0-.64.22-1.34.66-2.1-.2-.96-.85-1.68-1.95-2.16-1.1-.48-2.41-.72-3.93-.72-2.24,0-4.02.41-5.34,1.23-1.32.82-1.98,1.79-1.98,2.91,0,1.2.48,2.12,1.44,2.76.96.64,2.13,1.09,3.51,1.35,1.38.26,3.35.51,5.91.75,2.12.28,3.85.62,5.19,1.02,1.34.4,2.47,1.17,3.39,2.31.92,1.14,1.38,2.77,1.38,4.89s-1.02,3.93-3.06,5.19-4.48,1.89-7.32,1.89c-3.64,0-6.89-.62-9.75-1.86-2.86-1.24-4.53-3-5.01-5.28.56-.44,1.1-.66,1.62-.66Z"/></g></g></svg>