<?xml version="1.0" encoding="UTF-8"?><svg id="Layer_18" xmlns="http://www.w3.org/2000/svg" width="226.57" height="239.34" xmlns:xlink="http://www.w3.org/1999/xlink" viewBox="0 0 226.57 239.34"><defs><style>.cls-1{fill:#cc5819;}</style></defs><path class="cls-1" d="m99.09,7.53c-14.53,1.84-31.24,7.57-43.18,14.67-9.89,5.93-23.46,17.73-30.69,26.53-3.48,4.3-9.48,13.64-12.21,18.96C4.48,84.75.66,100.71.73,119.67c.34,77.01,76.26,130.83,149.11,105.59,33.01-11.39,59.21-38.06,69.98-71.01,4.16-12.82,5.05-18.89,5.05-34.24.07-16.17-.89-22.71-5.05-35.61C206.25,42.86,169.75,12.78,126.71,7.53c-6.96-.82-21.01-.89-27.63,0Zm25.78,2.05c48.16,5.18,86.83,40.86,96.45,88.95,1.98,9.75,2.18,29.94.41,39.56-6.55,35.06-28.17,63.91-59.55,79.47-10.37,5.18-16.64,7.37-27.22,9.75-6,1.3-8.87,1.5-22.24,1.5-14.46-.07-15.82-.14-23.53-1.98-14.6-3.41-25.58-8.12-37.31-16.03-24.62-16.64-40.65-40.38-47.07-69.85-1.3-5.93-1.5-9.07-1.57-21.62,0-12.82.2-15.62,1.57-22.1,4.64-21.69,14.73-40.31,30.15-55.66,9.34-9.41,17.87-15.55,28.99-21.08,19.37-9.62,39.7-13.23,60.91-10.91Z"/><path class="cls-1" d="m101.13,12.31c-25.44,2.86-47.82,13.98-65.82,32.74C14.03,67.22,3.59,96.07,5.71,126.83c3.27,48.02,37.93,87.38,85.88,97.68,6.14,1.3,9.21,1.5,21.15,1.5,15.42,0,21.55-.89,34.24-5.12,27.15-8.94,50.89-30.15,62.89-56.07,16.17-34.79,12.96-74.55-8.59-106.41-5.8-8.59-20.05-22.78-28.51-28.38-21.35-14.12-47.13-20.46-71.62-17.73Zm26.88,2.73c42.29,5.39,78.44,39.43,87.86,82.67,1.3,5.93,1.5,9.14,1.57,21.28,0,12.55-.2,15.21-1.57,21.35-7.91,35.4-30.49,62.41-63.71,76.46-1.84.75-3.27,1.3-3.27,1.16s12.76-16.17,28.31-35.54l28.31-35.26v-28.51h-1.71c-1.57,0-1.71-.27-1.71-3,0-4.71-1.91-14.53-4.16-21.21-7.37-22.1-23.33-40.65-44-51.16-21.01-10.71-47.47-12.55-69.3-4.71-26.47,9.55-47.41,31.31-55.39,57.64-3,9.89-3.89,16.98-3.75,29.26.14,9.41-.07,12.07-1.23,16.37-1.09,4.02-1.23,5.25-.55,5.8.89.75,55.66,69.64,56.55,71.14.68,1.16-7.23-1.84-14.8-5.66-28.58-14.26-48.84-40.72-55.86-72.92-1.3-5.93-1.57-8.94-1.5-21.21,0-12.21.2-15.35,1.5-21.28,5.8-26.74,22.1-50.89,44.34-65.76,22.3-14.94,46.38-20.4,74.08-16.92Zm.61,22.1c17.67,3.07,32.88,10.98,45.91,23.87,6.14,6,15.28,18.14,15.28,20.19,0,.34-1.23.61-2.73.61h-2.66l-.2,5.25-.2,5.32-2.25-4.71c-5.39-11.53-15.82-23.94-26.06-31.04-38.06-26.6-89.56-12.76-110.5,29.74l-2.52,5.05-1.71-6.55-1.71-6.55,3.82-5.59c12.21-17.87,33.49-31.65,55.05-35.54,7.3-1.3,23.19-1.36,30.49-.07Zm-4.98,8.87c8.05,1.23,13.64,3,21.49,6.89,15.55,7.64,29.19,22.51,36.36,39.56l2.52,6.07.2,24.35.2,24.42h8.8c4.91,0,8.87.14,8.87.34s-12.96,16.51-28.72,36.15c-25.44,31.65-29.06,35.88-31.24,36.49-4.64,1.3-13.64,3-13.98,2.66-.2-.2,7.03-17.26,16.17-37.99l16.51-37.58,10.44-.07h10.37v-28.65h-12.28v-36.83h-8.87v10.57l-2.05-3.55c-4.5-7.84-13.91-15.82-23.06-19.51-10.91-4.43-25.65-5.53-36.63-2.59-12.21,3.21-23.67,10.91-29.6,19.99l-2.73,4.16-1.91-4.02-1.91-4.02-3.96-.2-3.89-.2-.07,28.51-.07,28.51-4.3-17.05c-2.39-9.41-4.91-19.44-5.53-22.3l-1.16-5.32,3.14-6.48c4.02-8.32,7.64-13.57,13.71-19.99,17.05-17.94,39.63-25.92,63.16-22.3Zm2.39,22.58c9.07,1.84,20.94,8.73,26.4,15.42,3.07,3.75,6.34,9.62,7.37,13.16.48,1.84.68,9.89.55,24.9l-.2,22.17-7.37-30.01c-4.09-16.51-7.78-31.24-8.12-32.74l-.75-2.73-1.02,3.75c-.55,2.05-1.09,3.89-1.23,4.02s-1.5-.89-3.14-2.25c-6.34-5.46-15.82-8.59-25.92-8.59-7.5,0-12.69,1.23-19.3,4.43-4.43,2.18-5.25,2.39-11.12,2.39-3.41,0-6.28-.27-6.28-.61,0-.95,8.05-6.82,12.28-8.94,10.91-5.53,24.42-7.03,37.86-4.37Zm.14,10.5c3.89,1.36,9.82,4.84,13.64,7.98l1.5,1.23-5.25,22.03-5.25,21.96-.41-6.28c-.34-4.57-.95-7.64-2.32-10.98-1.77-4.5-1.77-4.71-.75-7.78,2.39-6.89.75-20.12-2.86-23.74-1.64-1.71-1.84-1.71-13.16-1.71h-11.53v17.05h6.14c4.91,0,6.14.2,6.14,1.02,0,.75-1.3,1.02-5.93,1.16l-6,.2-.2,12.41-.14,12.48h6.14c5.66,0,6.14.07,6.14,1.36s-.48,1.36-6.21,1.36h-6.14l.2,9.69c.27,7.57,5.93,63.23,8.46,82.6l.41,3.34-1.91-.27-1.98-.2-9.89-38.2-9.96-38.2,7.03-.2,7.03-.2v-64.66l-3.21-.2-3.27-.27,3.14-1.5c6-2.86,9.96-3.55,18.35-3.27,5.87.2,8.94.61,12.07,1.77Zm-92.56,23.94c-3,12.55-5.66,23.06-5.8,23.46-.2.34-.2-3.14-.07-7.84.34-8.94,1.5-15.76,3.96-23.19,1.77-5.39,6.55-16.03,7.03-15.55.2.2-2.11,10.57-5.12,23.12Zm40.79-2.66l-.2,5.66-3.27-6.34c-3.62-7.09-3.68-6.82,1.02-13.1l2.25-3.07.2,5.59c.14,3.14.14,8.19,0,11.25Zm-6.14-2.25c3.62,7.5,6.82,13.64,7.16,13.64.27.07.48-6.07.48-13.64v-13.64l3.62.2,3.55.2.2,29.81.14,29.88h-15.69v-21.9l-1.84.2-1.91.2-.2,10.71-.2,10.78h-7.43v-60.03h5.46l6.68,13.57Zm29.47,16.44v30.01h-11.6v-57.91l1.5-1.02c1.02-.75,3.07-1.09,5.8-1.09h4.3v30.01Zm26.19-28.72c2.05,2.25,3.07,6.34,3.14,12.41,0,4.84-.27,6.41-1.64,9.14l-1.71,3.27,1.64,2.46c5.05,7.71,4.98,24.62-.14,30.22-.95,1.09-2.46,1.23-12.62,1.23h-11.46v-12.96h12.96v-7.5h-12.96v-19.71l6.34-.2,6.28-.2.2-3.55.2-3.55-6.34-.2-6.34-.2-.2-6-.2-5.93h10.85c9.82,0,10.91.14,12.01,1.3Zm44.06,17.12v18.42h12.28v22.51h-18.42v-59.34h6.14v18.42Zm23.87,0v18.42h12.28v22.51h-19.1l.07-29.67.07-29.67h6.68v18.42Zm-144.27,14.67c3.55,14.53,6.48,26.53,6.48,26.67s-2.93.27-6.48.27h-6.48v-21.15h-3.41v21.15h-12.69l1.23-4.98c.68-2.66,2.93-12.01,4.98-20.6,1.98-8.66,4.64-19.85,5.87-24.9l2.25-9.21.89,3.14c.48,1.77,3.82,15.07,7.37,29.6Zm100.2-17.39c1.71,6.96,4.77,19.58,6.82,28.17,2.11,8.53,3.82,15.69,3.82,15.82,0,.2-2.93.34-6.48.34h-6.48v-21.15h-3.41v21.15h-6.48c-4.84,0-6.34-.2-6.14-.89.27-.75,12.89-52.86,13.85-57.09.34-1.57.41-1.57.89-.34.34.75,1.98,7.03,3.62,13.98Zm49.93,1.23c.89,3.48,1.84,8.8,2.05,11.8l.48,5.39h-7.03l.07-15.21v-15.14l1.43,3.41c.75,1.84,2.11,6.28,3,9.75Zm-131.37,34.92v10.91h8.12c7.16,0,8.19.14,8.53,1.16,1.77,5.66,19.44,74.83,19.17,75.1-.2.2-2.05.07-4.16-.27l-3.82-.61-18.62-37.72-18.62-37.65h8.05v-10.91c0-6.82.27-10.91.68-10.91s.68,4.09.68,10.91Zm-7.37,40.04c10.5,16.44,21.28,33.22,23.87,37.24,2.59,4.09,4.23,7.3,3.68,7.16s-14.05-16.64-30.01-36.7l-28.99-36.49,5.73-.2,5.8-.2.14-10.71.14-10.71.2,10.37.27,10.37,19.17,29.88Zm92.29-29.13c3.96,0,7.16.07,7.16.2s-7.5,17.26-16.71,38.06l-16.64,37.79-2.52.55c-1.36.27-2.66.41-2.8.27-.2-.27,9-71.21,9.75-75.03l.41-1.84h13.51l.14-10.78.14-10.71.2,10.71.27,10.78h7.09Zm-23.12-4.3c-.2.68-.55,2.59-.75,4.3s-2.52,19.3-5.12,39.22c-2.66,19.85-4.77,36.49-4.77,36.97,0,.61-1.09.89-3.41.89s-3.41-.27-3.41-.89c0-.41-1.84-17.73-4.09-38.33-2.25-20.67-4.09-37.58-4.09-37.72,0-.07,4.77-.14,10.64-.14s11.12-.27,11.8-.68c.68-.34,1.64-1.57,2.11-2.73.89-2.18,1.71-2.8,1.09-.89Zm-70.39,10.91c16.78,33.56,33.63,68.48,32.95,68.21-.75-.2-48.09-73.19-48.16-74.35-.07-.27,2.59-.48,5.93-.48h5.93l3.34,6.62Z"/><image width="1080" height="1080" transform="translate(217.35 -20.11) scale(.27)" xlink:href="../../../../../Downloads/Artisan-1 4.png"/></svg>