<?xml version="1.0" encoding="UTF-8"?><svg id="Layer_7" xmlns="http://www.w3.org/2000/svg" width="15.55" height="15.55" viewBox="0 0 15.55 15.55"><defs><style>.cls-1{fill:none;stroke-width:.19px;}.cls-1,.cls-2{stroke:#cb5819;stroke-miterlimit:10;}.cls-3,.cls-2{fill:#ffe0b7;}.cls-4{fill:#ffa258;}.cls-5{fill:#9c2d00;}.cls-2{stroke-width:.52px;}</style></defs><circle class="cls-2" cx="7.78" cy="7.78" r="7.52"/><path class="cls-5" d="m13.31,4.38c.45.81.6,1.79.42,2.7-.19.93-.73,1.79-1.48,2.36h0c-.07-.54-.3-1.12-.64-1.67l.04-.02c.1.16.34.22.49.11.16-.11.19-.36.06-.51.07.07.17.11.27.1.11-.01.21-.11.22-.22,0-.08-.06-.15-.13-.17.14-.01.27-.11.32-.23.07-.16.01-.36-.13-.46-.14-.1-.35-.1-.48.02.02-.09.04-.18.02-.28-.02-.09-.08-.18-.17-.2-.08-.02-.15.01-.22.05-.22.11-.43.24-.62.39l-.08-.07c.59-.71,1.29-1.34,2.06-1.86l.05-.03Z"/><path class="cls-4" d="m13.28,4.33s.02.03.03.05l-.05.03c-.77.52-1.47,1.15-2.06,1.86-.11.13-.22.27-.32.41l-.1.07c-.4-.41-.86-.76-1.36-1.02l.12-.03c1.29-.33,2.55-.79,3.75-1.38Z"/><path class="cls-3" d="m11.64,7.76l-.04.02c-.23-.36-.51-.72-.82-1.03l.1-.07c.1-.14.21-.28.32-.41l.08.07c.19-.15.4-.28.62-.39.07-.03.15-.07.22-.05.09.02.15.11.17.2.02.09,0,.18-.02.28.13-.11.34-.12.48-.02.14.1.19.3.13.46-.05.13-.18.22-.32.23-.03-.01-.07-.01-.1,0,.03,0,.07,0,.1,0,.07.03.13.1.13.17,0,.11-.1.21-.22.22-.1.01-.2-.03-.27-.1,0-.01-.02-.02-.03-.03,0,.01.02.02.03.03.12.15.09.4-.06.51-.16.11-.39.05-.49-.11Z"/><path class="cls-4" d="m12.24,9.45c.01.11.02.22.02.33,0,1.88-2.26,2.86-4.48,2.86s-4.48-.91-4.48-2.79c0-.24.04-.5.11-.76.14-.54.43-1.1.8-1.62.2-.27.42-.53.66-.77.33-.33.69-.62,1.08-.85.58-.34,1.21-.56,1.83-.56.56,0,1.11.16,1.64.44.49.26.95.61,1.36,1.02.31.32.59.67.82,1.03.34.55.57,1.13.64,1.67Zm-3.58,1.08c0-.29-.36-.52-.81-.52s-.81.23-.81.52.36.52.81.52.81-.23.81-.52Z"/><ellipse class="cls-3" cx="7.85" cy="10.53" rx=".81" ry=".52"/><path class="cls-4" d="m5.88,5.71l.06.15c-.39.23-.75.52-1.08.85h-.16c-.09-.11-.18-.22-.27-.32-.55-.91-1.36-1.66-2.31-2.13h-.02c.02-.05.03-.09.05-.14,1.29.39,2.53.97,3.72,1.6Z"/><path class="cls-3" d="m3.34,7.39s.08-.07.09-.12c-.03.04-.07.08-.09.12Zm1.1-1.01c.09.1.18.2.27.31h.16c-.24.25-.46.51-.66.78l-.02-.02c-.18.14-.39.26-.61.34-.06.02-.12.04-.18.02-.1-.03-.15-.16-.13-.26.01-.05.04-.1.07-.15-.06.04-.14.04-.21.02-.12-.05-.18-.19-.15-.32.03-.12.13-.22.25-.27-.18.05-.38-.02-.49-.17-.1-.15-.09-.38.05-.5.12-.11.33-.12.45,0,.01.01.02.03.04.04-.01-.01-.02-.03-.04-.04-.06-.08-.05-.19,0-.27.07-.09.2-.13.31-.11.11.01.22.07.32.13.21.14.39.31.56.49Z"/><path class="cls-5" d="m4.44,6.38c-.17-.19-.35-.36-.56-.49-.1-.06-.2-.12-.32-.13-.11-.01-.24.02-.31.11-.06.08-.06.2,0,.27-.12-.11-.33-.1-.45,0-.14.12-.15.35-.05.5.1.15.31.22.49.17-.12.04-.22.14-.25.27-.03.12.03.27.15.32.07.03.14.02.21-.02-.03.05-.06.1-.07.15-.02.11.03.23.13.26.06.02.12,0,.18-.02.22-.08.42-.19.61-.34l.02.02c-.38.52-.66,1.08-.8,1.62l-.09-.03c-.66-.61-1.13-1.42-1.34-2.3-.19-.83-.14-1.71.14-2.52h.02c.95.48,1.76,1.23,2.31,2.14Z"/><path class="cls-1" d="m12.24,9.45c.01.11.02.22.02.33,0,1.88-2.26,2.86-4.48,2.86s-4.48-.91-4.48-2.79c0-.24.04-.5.11-.76.14-.54.43-1.1.8-1.62.2-.27.42-.53.66-.77.33-.33.69-.62,1.08-.85.58-.34,1.21-.56,1.83-.56.56,0,1.11.16,1.64.44.49.26.95.61,1.36,1.02.31.32.59.67.82,1.03.34.55.57,1.13.64,1.67Z"/><path class="cls-1" d="m3.24,6.14c-.06-.08-.05-.19,0-.27.07-.09.2-.13.31-.11.11.01.22.07.32.13.21.14.39.31.56.49.09.1.18.2.27.31"/><path class="cls-1" d="m3.24,6.14s.03.02.04.04c-.01-.01-.03-.02-.04-.04Z"/><path class="cls-1" d="m3.34,7.39c-.06.04-.14.04-.21.02-.12-.05-.18-.19-.15-.32.03-.12.13-.22.25-.27-.18.05-.38-.02-.49-.17-.1-.15-.09-.38.05-.5.12-.11.33-.12.45,0"/><path class="cls-1" d="m3.34,7.39s.06-.08.09-.12c-.01.05-.05.1-.09.12Z"/><line class="cls-1" x1="3.34" y1="7.39" x2="3.34" y2="7.39"/><path class="cls-1" d="m4.19,7.45c-.18.14-.39.26-.61.34-.06.02-.12.04-.18.02-.1-.03-.15-.16-.13-.26.01-.05.04-.1.07-.15"/><path class="cls-1" d="m12.19,7.36c.12.15.09.4-.06.51-.16.11-.39.05-.49-.11,0-.01-.02-.03-.02-.05"/><path class="cls-1" d="m12.19,7.36s-.02-.02-.03-.03c0,0,.02.02.03.03Z"/><path class="cls-1" d="m12.55,7.06c.07.03.13.1.13.17,0,.11-.1.21-.22.22-.1.01-.2-.03-.27-.1"/><path class="cls-1" d="m12.55,7.06s-.07,0-.1,0c.03-.01.07,0,.1,0Z"/><path class="cls-1" d="m11.28,6.34c.19-.15.4-.28.62-.39.07-.03.15-.07.22-.05.09.02.15.11.17.2.02.09,0,.18-.02.28.13-.11.34-.12.48-.02.14.1.19.3.13.46-.05.13-.18.22-.32.23"/><path class="cls-1" d="m9.22,9.47c.13.24.39.41.66.44.27.02.56-.1.73-.31"/><path class="cls-1" d="m4.89,9.49c.13.24.39.41.66.44.27.02.56-.1.73-.31"/><ellipse class="cls-1" cx="7.85" cy="10.53" rx=".81" ry=".52"/><path class="cls-1" d="m7.79,11.11c0,.15-.05.31-.16.42-.1.11-.26.17-.41.15-.15-.03-.28-.16-.29-.31"/><path class="cls-1" d="m7.84,11.11c-.01.14.01.28.09.39.08.11.22.18.35.16.1-.02.19-.08.25-.16.06-.08.1-.18.12-.27"/><path class="cls-1" d="m9.54,5.71c1.29-.33,2.55-.79,3.75-1.38,0,.02.02.03.03.05.45.81.6,1.79.42,2.7-.19.93-.73,1.79-1.48,2.36"/><path class="cls-1" d="m10.87,6.68c.1-.14.21-.28.32-.41.59-.71,1.29-1.34,2.06-1.86"/><path class="cls-1" d="m5.88,5.71c-1.2-.63-2.43-1.2-3.72-1.6-.02.04-.03.09-.05.13-.28.8-.33,1.69-.14,2.52.2.88.68,1.69,1.34,2.3"/><path class="cls-1" d="m4.61,6.69c-.06-.11-.11-.21-.18-.31-.55-.91-1.36-1.66-2.31-2.13"/></svg>