<?xml version="1.0" encoding="UTF-8"?><svg id="Layer_9" xmlns="http://www.w3.org/2000/svg" width="1366" height="768" viewBox="0 0 1366 768"><defs><style>.cls-1{fill:#9c2e0e;}</style></defs><g id="Jzl9Di"><path class="cls-1" d="m1426.16,822.82c13.91-71.98-36.84-146.56-105.13-173.23-34.41-13.44-71.83-16.65-108.65-19.73-101.68-8.49-203.37-16.98-305.05-25.47-41.17-3.44-82.62-6.87-123.73-2.76-65.24,6.52-130.68,31.91-194.62,17.4-37.12-8.42-71.1-29.97-109.07-32.54-24.85-1.68-49.62,4.96-74.51,4.13-53.21-1.78-106.33-37.21-156.37-19.03-41.9,15.23-66.1,64.04-109.39,74.69-25.5,6.28-52.04-2.26-76.93-10.63-30.55-10.28-61.57-20.57-93.75-22.35-32.18-1.78-66.2,5.93-89.97,27.7-24.13,22.1-34.72,55.9-35.82,88.6-2.74,81.42,48.34,157.85,115.94,203.31,67.6,45.46,149.63,64.24,230.53,73.84,246.89,29.29,496.6-18.89,745.02-8.72,97.14,3.98,195.84,16.75,290.61-4.95,94.77-21.7,187.52-88.16,204.95-183.81"/><path class="cls-1" d="m1427.6,823.22c8.75-47.59-9.42-95.52-41.65-130.57-16.43-17.87-36.57-32.51-58.87-42.17-27.47-11.9-57.45-16.6-87.04-19.63-67.78-6.94-135.88-11.53-203.78-17.2-34.59-2.89-69.19-5.78-103.78-8.67s-68.28-6.29-102.53-6.7c-32.1-.38-63.47,3.36-94.97,9.27-32.59,6.11-65.24,13.5-98.52,14.31-32.28.78-61.28-7.34-91.09-18.83-28.3-10.9-55.59-19.96-86.33-17.85-16.41,1.13-32.69,4-49.17,3.99-15.55,0-30.85-2.98-45.88-6.78-26.78-6.77-53.43-16.76-81.33-17.44-24.68-.6-46.03,8.31-65.09,23.52s-34.72,33.94-55.45,46.56c-28.85,17.57-60.17,11.88-90.68,1.95-30.68-9.99-61.18-21.12-93.48-24.47-26.22-2.72-53.62.2-77.46,12.02-22.31,11.06-38.73,30.09-48.16,52.97-19.47,47.25-11.18,102.76,10.29,147.8,22.67,47.55,60.47,87.03,104.9,114.86,50.24,31.46,107.84,49.1,165.79,59.71,63.15,11.57,127.66,16.06,191.77,17.49,135.81,3.02,271.25-9.66,406.78-15.93,67.52-3.12,135.19-4.68,202.75-1.91,66.89,2.74,133.77,9.64,200.78,6.61,56.31-2.54,112.46-12.48,163.27-37.73,43.1-21.41,82.5-52.94,107.93-94.25,12.2-19.82,20.71-41.62,25.03-64.5.36-1.89-2.53-2.7-2.89-.8-19.14,101.32-117.85,165.11-212.8,184.69-63.44,13.08-128.69,11.3-193.01,7.78s-129.86-6.98-195.06-5.99c-130.72,1.97-260.97,14.65-391.62,18.43-64.79,1.87-129.71,1.54-194.36-3.44-60.67-4.67-121.79-12.63-180.02-30.91-54.38-17.07-106.38-43.91-146.63-84.88-36.69-37.34-64.04-85.93-69.64-138.55-5.89-55.38,13.55-115.86,70.84-134.77,28.47-9.39,58.92-7.75,87.83-1.33,31.27,6.94,60.67,20.45,91.93,27.16,24.79,5.32,48.64,2.82,70.1-11.12,18.75-12.18,33.68-29.13,50.84-43.28,21.34-17.6,45.15-26.66,73.08-24.27,28.99,2.49,56.4,13.62,84.68,19.67,12.98,2.77,26.13,4.46,39.42,4.07,15.96-.46,31.74-3.24,47.67-4.12,30.74-1.7,58.19,8.59,86.38,19.41,27.31,10.48,54.26,17.71,83.72,17.53,30.53-.19,60.65-6.22,90.52-11.98,31.98-6.16,63.82-11.37,96.48-11.68,32.62-.32,65.16,2.69,97.64,5.4,66.57,5.56,133.13,11.12,199.7,16.68,32.94,2.75,65.89,5.48,98.83,8.25s63.9,5.6,94.38,15.51c49.04,15.95,90.49,54.35,108.38,103,8.51,23.16,11.13,47.99,6.66,72.3-.35,1.89,2.54,2.7,2.89.8h0Z"/></g></svg>