<?xml version="1.0" encoding="UTF-8"?><svg id="Layer_7" xmlns="http://www.w3.org/2000/svg" width="119" height="119" viewBox="0 0 119 119"><defs><style>.cls-1{fill:none;stroke-width:1.5px;}.cls-1,.cls-2{stroke:#cc5819;stroke-miterlimit:10;}.cls-3{fill:#ffa358;}.cls-4,.cls-2{fill:#ffe1b8;}.cls-5{fill:#9d2d00;}.cls-2{stroke-width:4px;}</style></defs><circle class="cls-2" cx="59.5" cy="59.5" r="58"/><path class="cls-5" d="m102.19,33.3c3.48,6.28,4.64,13.82,3.21,20.86-1.46,7.19-5.6,13.8-11.44,18.25h-.03c-.53-4.15-2.31-8.62-4.97-12.86l.3-.19c.77,1.21,2.62,1.66,3.81.83,1.23-.85,1.43-2.82.48-3.94.56.54,1.31.88,2.07.79.86-.1,1.65-.83,1.66-1.69.01-.6-.43-1.15-.97-1.35,1.06-.12,2.06-.81,2.49-1.8.52-1.23.09-2.79-.99-3.58-1.07-.79-2.69-.73-3.71.13.15-.7.3-1.42.17-2.12s-.6-1.39-1.29-1.55c-.59-.14-1.18.12-1.72.38-1.68.82-3.28,1.82-4.76,2.97l-.65-.54c4.59-5.51,9.96-10.37,15.91-14.36l.41-.23Z"/><path class="cls-3" d="m102.19,33.3l-.41.23c-5.95,3.99-11.32,8.85-15.91,14.36-.86,1.03-1.68,2.08-2.49,3.15l-.75.53c-3.11-3.15-6.67-5.87-10.46-7.85l.9-.21c9.96-2.54,19.66-6.1,28.9-10.61.08.13.15.26.22.4Z"/><path class="cls-4" d="m89.27,59.37l-.3.19c-1.76-2.81-3.91-5.52-6.33-7.98l.75-.53c.8-1.07,1.63-2.13,2.49-3.15l.65.54c1.48-1.15,3.07-2.16,4.76-2.97.54-.26,1.13-.51,1.72-.38.69.16,1.17.85,1.29,1.55s-.02,1.42-.17,2.12c1.02-.86,2.64-.92,3.71-.13,1.08.79,1.51,2.35.99,3.58-.42.99-1.42,1.69-2.49,1.8-.25-.09-.51-.11-.77-.02.26.04.51.05.77.02.54.2.98.75.97,1.35-.01.86-.8,1.59-1.66,1.69-.76.09-1.52-.26-2.07-.79.95,1.13.75,3.09-.48,3.94-1.2.84-3.05.39-3.81-.83Z"/><path class="cls-3" d="m93.94,72.41c.12.86.17,1.71.17,2.54,0,14.53-17.42,22.05-34.58,22.05s-34.58-7.02-34.58-21.55c0-1.87.29-3.83.83-5.84,1.11-4.15,3.29-8.49,6.2-12.51,1.51-2.08,3.21-4.07,5.07-5.92,2.54-2.52,5.35-4.75,8.33-6.53,4.48-2.66,9.32-4.29,14.15-4.29,4.29,0,8.6,1.25,12.64,3.36,3.79,1.97,7.36,4.7,10.46,7.85,2.43,2.46,4.58,5.17,6.33,7.98,2.66,4.24,4.44,8.7,4.97,12.86Zm-27.65,8.3c0-2.22-2.8-4.01-6.26-4.01s-6.26,1.79-6.26,4.01,2.81,4.01,6.26,4.01,6.26-1.79,6.26-4.01Z"/><ellipse class="cls-4" cx="60.03" cy="80.71" rx="6.26" ry="4.01"/><path class="cls-3" d="m44.89,43.53l.49,1.12c-2.98,1.77-5.8,4.01-8.33,6.53l-1.24-.09c-.67-.79-1.35-1.59-2.05-2.37-4.25-7-10.5-12.79-17.83-16.45l-.13-.05c.12-.35.25-.69.38-1.03,9.98,3.04,19.5,7.45,28.72,12.33Z"/><path class="cls-4" d="m25.25,56.52c.36-.21.65-.54.74-.95-.26.31-.52.62-.74.95Zm8.5-7.8c.7.77,1.38,1.57,2.05,2.37l1.24.09c-1.85,1.84-3.56,3.84-5.07,5.92l-.18-.13c-1.4,1.12-2.99,1.99-4.69,2.59-.44.15-.91.29-1.36.17-.8-.22-1.18-1.21-1.01-2.02.09-.42.27-.81.51-1.17-.47.27-1.07.34-1.58.13-.89-.39-1.36-1.49-1.15-2.44.21-.95.99-1.72,1.9-2.06-1.37.36-2.96-.16-3.76-1.32s-.67-2.92.38-3.87c.94-.86,2.54-.9,3.5-.08.08.11.18.21.29.29-.09-.11-.18-.21-.29-.29-.44-.59-.4-1.5.06-2.1.54-.71,1.51-.99,2.4-.89s1.7.53,2.45,1.01c1.62,1.05,3.01,2.39,4.32,3.82Z"/><path class="cls-5" d="m33.75,48.73c-1.3-1.43-2.7-2.77-4.32-3.82-.75-.49-1.56-.91-2.45-1.01s-1.85.18-2.4.89c-.46.6-.49,1.51-.06,2.1-.96-.82-2.56-.78-3.5.08-1.04.96-1.18,2.71-.38,3.87s2.39,1.68,3.76,1.32c-.91.34-1.69,1.11-1.9,2.06-.21.95.26,2.05,1.15,2.44.51.22,1.11.15,1.58-.13-.24.36-.42.75-.51,1.17-.17.81.22,1.8,1.01,2.02.45.12.93-.02,1.36-.17,1.69-.59,3.28-1.47,4.69-2.59l.18.13c-2.92,4.02-5.1,8.35-6.2,12.51l-.72-.2c-5.1-4.71-8.75-10.97-10.32-17.74-1.49-6.41-1.11-13.23,1.06-19.44l.13.05c7.33,3.66,13.58,9.45,17.83,16.45Z"/><path class="cls-1" d="m93.94,72.41c.12.86.17,1.71.17,2.54,0,14.53-17.42,22.05-34.58,22.05s-34.58-7.02-34.58-21.55c0-1.87.29-3.83.83-5.84,1.11-4.15,3.29-8.49,6.2-12.51,1.51-2.08,3.21-4.07,5.07-5.92,2.54-2.52,5.35-4.75,8.33-6.53,4.48-2.66,9.32-4.29,14.15-4.29,4.29,0,8.6,1.25,12.64,3.36,3.79,1.97,7.36,4.7,10.46,7.85,2.43,2.46,4.58,5.17,6.33,7.98,2.66,4.24,4.44,8.7,4.97,12.86Z"/><path class="cls-1" d="m24.53,46.88c-.44-.59-.4-1.5.06-2.1.54-.71,1.51-.99,2.4-.89s1.7.53,2.45,1.01c1.62,1.05,3.01,2.39,4.32,3.82.7.77,1.38,1.57,2.05,2.37"/><path class="cls-1" d="m24.53,46.88c.11.08.2.18.29.29-.11-.08-.21-.18-.29-.29Z"/><path class="cls-1" d="m25.25,56.53c-.47.27-1.07.34-1.58.13-.89-.39-1.36-1.49-1.15-2.44.21-.95.99-1.72,1.9-2.06-1.37.36-2.96-.16-3.76-1.32s-.67-2.92.38-3.87c.94-.86,2.54-.9,3.5-.08"/><path class="cls-1" d="m25.25,56.52c.22-.33.48-.65.74-.95-.09.41-.38.74-.74.95Z"/><path class="cls-1" d="m25.25,56.52s0,0,0,0"/><path class="cls-1" d="m31.8,56.96c-1.4,1.12-2.99,1.99-4.69,2.59-.44.15-.91.29-1.36.17-.8-.22-1.18-1.21-1.01-2.02.09-.42.27-.81.51-1.17"/><path class="cls-1" d="m93.36,56.03c.08.07.14.14.21.22.95,1.13.75,3.09-.48,3.94-1.2.84-3.05.39-3.81-.83-.07-.12-.14-.24-.19-.36"/><path class="cls-1" d="m96.33,54c.54.2.98.75.97,1.35-.01.86-.8,1.59-1.66,1.69-.76.09-1.52-.26-2.07-.79"/><path class="cls-1" d="m96.33,54c-.26.04-.51.03-.77-.02.26-.09.52-.08.77.02Z"/><path class="cls-1" d="m86.52,48.42c1.48-1.15,3.07-2.16,4.76-2.97.54-.26,1.13-.51,1.72-.38.69.16,1.17.85,1.29,1.55s-.02,1.42-.17,2.12c1.02-.86,2.64-.92,3.71-.13,1.08.79,1.51,2.35.99,3.58-.42.99-1.42,1.69-2.49,1.8"/><path class="cls-1" d="m70.63,72.54c1.01,1.88,3,3.19,5.12,3.38,2.13.19,4.31-.76,5.63-2.43"/><path class="cls-1" d="m37.26,72.74c1.01,1.87,3,3.19,5.12,3.37,2.13.19,4.31-.75,5.63-2.43"/><ellipse class="cls-1" cx="60.03" cy="80.71" rx="6.26" ry="4.01"/><path class="cls-1" d="m59.64,85.21c-.03,1.17-.41,2.36-1.21,3.22s-2.02,1.35-3.18,1.12c-1.15-.22-2.15-1.22-2.24-2.4"/><path class="cls-1" d="m59.98,85.25c-.09,1.05.1,2.15.71,3.01s1.68,1.42,2.72,1.26c.77-.12,1.44-.61,1.9-1.23.47-.62.74-1.36.93-2.1"/><path class="cls-1" d="m73.07,43.51c9.96-2.54,19.66-6.1,28.9-10.61.08.13.15.26.22.4,3.48,6.28,4.64,13.82,3.21,20.86-1.46,7.19-5.6,13.8-11.44,18.25"/><path class="cls-1" d="m83.39,51.04c.8-1.07,1.63-2.13,2.49-3.15,4.59-5.51,9.96-10.37,15.91-14.36"/><path class="cls-1" d="m44.89,43.53c-9.22-4.88-18.74-9.29-28.72-12.33-.13.34-.26.68-.38,1.03-2.17,6.21-2.55,13.04-1.06,19.44,1.57,6.77,5.22,13.03,10.32,17.74"/><path class="cls-1" d="m35.1,51.13c-.43-.82-.88-1.61-1.35-2.4-4.25-7-10.5-12.79-17.83-16.45"/></svg>