<?xml version="1.0" encoding="UTF-8"?><svg id="Layer_14" xmlns="http://www.w3.org/2000/svg" width="1339.67" height="744.02" xmlns:xlink="http://www.w3.org/1999/xlink" viewBox="0 0 1339.67 744.02"><defs><style>.cls-1,.cls-2,.cls-3,.cls-4,.cls-5,.cls-6,.cls-7{fill:none;}.cls-2{stroke:#fce0bc;}.cls-2,.cls-3,.cls-4,.cls-5,.cls-6,.cls-7{stroke-width:13.45px;}.cls-3{stroke:#1f74b1;}.cls-4{stroke:#41abf8;}.cls-5{stroke:#fa9738;}.cls-6{stroke:#f56ff2;}.cls-7{stroke:#dd5238;}.cls-8{clip-path:url(#clippath);}.cls-9{fill:#f56ff2;}.cls-10{fill:#fa9738;}.cls-11{fill:#ecbc48;}.cls-12{fill:#eb673e;}.cls-13{fill:#fce0bc;}.cls-14{fill:#fdfdfd;}.cls-15{fill:#992f17;}.cls-16{fill:#021f34;}.cls-17{fill:#310002;}.cls-18{fill:#df9e42;}.cls-19{fill:#41abf8;}.cls-20{fill:#3fa9d6;}.cls-21{fill:#450735;}.cls-22{clip-path:url(#clippath-1);}.cls-23{clip-path:url(#clippath-4);}.cls-24{clip-path:url(#clippath-3);}.cls-25{clip-path:url(#clippath-2);}.cls-26{clip-path:url(#clippath-5);}.cls-27{isolation:isolate;}</style><clipPath id="clippath"><rect class="cls-1" x="412.42" y="39.25" width="112.98" height="124.29"/></clipPath><clipPath id="clippath-1"><rect class="cls-1" x="412.42" y="462.13" width="112.98" height="124.29"/></clipPath><clipPath id="clippath-2"><rect class="cls-1" x="778.83" y="39.25" width="112.98" height="124.29"/></clipPath><clipPath id="clippath-3"><rect class="cls-1" x="778.83" y="481.49" width="112.98" height="124.29"/></clipPath><clipPath id="clippath-4"><rect class="cls-1" x="1165.54" y="39.25" width="112.98" height="124.29"/></clipPath><clipPath id="clippath-5"><rect class="cls-1" x="1165.54" y="481.49" width="112.98" height="124.29"/></clipPath></defs><g id="Group_107"><g id="Ellipse_37"><circle class="cls-15" cx="104.12" cy="101.39" r="101.39"/><circle class="cls-2" cx="104.12" cy="101.39" r="94.67"/></g><g id="Group_34"><line id="Line_34" class="cls-2" x1="103.92" y1="67.6" x2="103.92" y2="135.19"/><line id="Line_35" class="cls-2" x1="65.89" y1="102.13" x2="142.36" y2="102.13"/></g></g><g id="Group_111"><g id="Ellipse_37-2"><circle class="cls-15" cx="104.13" cy="524.27" r="101.39"/><circle class="cls-2" cx="104.13" cy="524.27" r="94.67"/></g><g id="Group_34-2"><line id="Line_34-2" class="cls-2" x1="103.92" y1="490.47" x2="103.92" y2="558.07"/><line id="Line_35-2" class="cls-2" x1="65.9" y1="525" x2="142.36" y2="525"/></g></g><g id="Softwares_skills" class="cls-27"><g class="cls-27"><path class="cls-13" d="m18.09,232.44c-.13.25-.33.38-.58.38-.2,0-.45-.14-.75-.42-.31-.28-.72-.58-1.24-.92-.52-.34-1.18-.65-1.96-.93-.78-.28-1.75-.43-2.9-.43s-2.16.17-3.04.49c-.87.33-1.61.78-2.2,1.34-.59.57-1.04,1.23-1.34,1.97-.31.75-.46,1.53-.46,2.35,0,1.08.23,1.96.68,2.67.46.7,1.06,1.3,1.8,1.79.75.49,1.59.91,2.54,1.24.95.34,1.92.67,2.93,1,1,.33,1.98.69,2.92,1.09.95.4,1.8.89,2.54,1.49s1.35,1.33,1.8,2.21.68,1.96.68,3.26-.23,2.58-.68,3.75c-.46,1.17-1.12,2.19-1.98,3.06s-1.93,1.55-3.18,2.05c-1.25.5-2.69.75-4.3.75-2.09,0-3.89-.37-5.4-1.11-1.51-.74-2.83-1.75-3.97-3.04l.63-.99c.18-.22.39-.34.63-.34.13,0,.31.09.52.27.21.18.46.4.76.66s.66.55,1.08.85c.42.31.9.59,1.46.85.55.26,1.19.48,1.91.66.72.18,1.53.27,2.44.27,1.25,0,2.38-.19,3.36-.57s1.82-.9,2.5-1.56c.68-.66,1.2-1.44,1.56-2.34s.54-1.87.54-2.9c0-1.12-.23-2.04-.68-2.77-.46-.72-1.06-1.33-1.8-1.82-.75-.49-1.6-.89-2.54-1.22s-1.92-.65-2.92-.96c-1-.31-1.98-.67-2.93-1.05s-1.8-.89-2.54-1.49c-.75-.6-1.35-1.36-1.8-2.26s-.68-2.04-.68-3.4c0-1.06.2-2.08.61-3.07s.99-1.86,1.77-2.61c.78-.75,1.74-1.36,2.88-1.82s2.45-.68,3.91-.68c1.64,0,3.12.26,4.43.78,1.31.52,2.5,1.32,3.58,2.4l-.54,1.03Z"/><path class="cls-13" d="m36.83,237.64c1.6,0,3.03.27,4.29.82s2.33,1.32,3.2,2.32c.87,1,1.53,2.21,1.98,3.62s.68,2.99.68,4.74-.23,3.33-.68,4.73c-.46,1.41-1.12,2.61-1.98,3.61-.87,1-1.93,1.77-3.2,2.31s-2.69.81-4.29.81-3.03-.27-4.29-.81-2.33-1.31-3.21-2.31c-.87-1-1.54-2.2-2-3.61-.46-1.4-.68-2.98-.68-4.73s.23-3.33.68-4.74,1.12-2.62,2-3.62c.88-1,1.94-1.77,3.21-2.32s2.69-.82,4.29-.82Zm0,21.27c1.33,0,2.49-.23,3.49-.68s1.82-1.11,2.49-1.96,1.16-1.88,1.49-3.08c.33-1.2.49-2.55.49-4.05s-.17-2.83-.49-4.04c-.33-1.21-.83-2.25-1.49-3.1s-1.49-1.52-2.49-1.98c-.99-.46-2.16-.7-3.49-.7s-2.49.23-3.49.7c-.99.46-1.82,1.12-2.49,1.98s-1.17,1.89-1.5,3.1c-.34,1.21-.5,2.56-.5,4.04s.17,2.84.5,4.05c.34,1.2.84,2.23,1.5,3.08s1.49,1.51,2.49,1.96,2.16.68,3.49.68Z"/><path class="cls-13" d="m72.72,240.28v15.13c0,.61.08,1.14.24,1.58.16.44.37.8.65,1.09.28.28.6.49.97.63.37.13.78.2,1.21.2.54,0,1-.08,1.39-.24.39-.16.72-.33,1.01-.52.28-.19.52-.36.7-.52.18-.16.32-.24.43-.24.12,0,.24.08.36.22l.58.94c-.57.63-1.29,1.13-2.16,1.51-.88.38-1.78.57-2.72.57-1.51,0-2.69-.42-3.53-1.25-.84-.84-1.27-2.13-1.27-3.88v-15.24h-11.9v20.02h-2.15v-19.97l-3.14-.2c-.42-.04-.63-.23-.63-.56v-.87h3.77v-2.83c0-1.27.16-2.39.49-3.35.33-.96.79-1.77,1.39-2.41s1.31-1.12,2.15-1.45c.84-.32,1.76-.48,2.78-.48.46,0,.93.04,1.4.12.47.08.89.2,1.27.35l-.07,1.03c-.03.13-.09.22-.19.26-.1.04-.24.05-.42.04s-.41-.03-.7-.07c-.28-.04-.61-.06-.99-.06-.73,0-1.41.11-2.03.32-.62.22-1.15.56-1.6,1.04s-.8,1.1-1.04,1.87c-.25.77-.37,1.71-.37,2.83v2.76h12.01l.54-8c.03-.13.09-.25.18-.36s.22-.16.38-.16h1.01v8.52h7.06v1.59h-7.06Z"/><path class="cls-13" d="m116.66,238l-7.44,22.3h-1.59c-.25,0-.43-.16-.52-.47l-6.1-18.11c-.08-.22-.14-.45-.2-.67s-.11-.45-.16-.67c-.07.45-.19.9-.34,1.35l-6.19,18.11c-.09.31-.27.47-.54.47h-1.52l-7.44-22.3h1.61c.21,0,.38.06.52.17.13.11.22.24.27.37l5.63,17.6c.09.34.17.68.25,1,.07.32.13.64.18.95.09-.31.18-.63.27-.95s.19-.65.31-1l5.96-17.75c.1-.33.31-.49.63-.49h.87c.33,0,.55.17.65.49l5.92,17.75c.1.34.2.67.29.99.09.31.17.63.25.94.06-.31.12-.63.19-.94.07-.31.15-.64.26-.99l5.67-17.6c.06-.16.16-.29.29-.39.13-.1.29-.15.47-.15h1.55Z"/><path class="cls-13" d="m123.16,241.16c1.17-1.17,2.39-2.05,3.68-2.65s2.74-.9,4.37-.9c1.2,0,2.24.19,3.14.57.9.38,1.64.93,2.23,1.64s1.04,1.57,1.33,2.58.45,2.13.45,3.37v14.53h-.85c-.45,0-.73-.21-.83-.63l-.31-2.87c-.61.6-1.22,1.14-1.83,1.61-.6.48-1.24.88-1.89,1.21-.66.33-1.37.58-2.13.76-.76.18-1.6.27-2.51.27-.76,0-1.5-.11-2.22-.34-.72-.22-1.36-.57-1.92-1.03-.56-.46-1.01-1.06-1.34-1.78-.34-.72-.5-1.59-.5-2.61,0-.94.27-1.82.81-2.62.54-.81,1.38-1.51,2.53-2.11,1.15-.6,2.63-1.08,4.43-1.44,1.8-.36,3.96-.57,6.49-.63v-2.33c0-2.06-.44-3.65-1.33-4.76-.89-1.11-2.21-1.67-3.96-1.67-1.08,0-1.99.15-2.75.45s-1.39.63-1.92.99c-.52.36-.95.69-1.28.99-.33.3-.61.45-.83.45-.17,0-.3-.04-.4-.11-.11-.08-.2-.17-.27-.29l-.38-.65Zm13.11,8.36c-2.12.08-3.95.24-5.48.5-1.53.26-2.79.62-3.79,1.07-.99.45-1.73.98-2.21,1.6-.48.62-.72,1.33-.72,2.12,0,.75.12,1.39.37,1.94.25.54.58.99.99,1.34.41.35.88.61,1.42.77s1.1.25,1.68.25c.87,0,1.66-.09,2.39-.28.72-.19,1.4-.45,2.02-.78.62-.34,1.2-.74,1.74-1.2.54-.46,1.07-.96,1.59-1.5v-5.83Z"/><path class="cls-13" d="m150.08,243.38c.34-.91.74-1.72,1.18-2.43.44-.71.95-1.31,1.52-1.8s1.22-.87,1.93-1.13c.71-.26,1.5-.39,2.36-.39.46,0,.92.04,1.37.12.45.08.84.23,1.19.44l-.18,1.48c-.07.24-.22.36-.43.36-.18,0-.45-.05-.82-.16-.37-.1-.85-.16-1.45-.16-.87,0-1.63.13-2.3.39-.67.26-1.26.65-1.79,1.18-.53.52-.99,1.17-1.39,1.94-.4.77-.76,1.66-1.09,2.66v14.44h-2.15v-22.3h1.14c.25,0,.43.05.54.16s.17.28.2.54l.16,4.68Z"/><path class="cls-13" d="m165.95,248.26v.43c0,1.67.19,3.15.58,4.42.39,1.27.94,2.33,1.66,3.19.72.86,1.58,1.51,2.6,1.94,1.02.43,2.15.65,3.41.65,1.12,0,2.09-.12,2.91-.37.82-.25,1.51-.52,2.07-.83s1-.58,1.33-.83c.33-.25.57-.37.72-.37.19,0,.34.07.45.22l.58.72c-.36.45-.83.87-1.42,1.25-.59.39-1.25.72-1.97,1s-1.5.5-2.33.66-1.66.25-2.5.25c-1.52,0-2.91-.26-4.17-.79-1.25-.53-2.33-1.3-3.23-2.32-.9-1.02-1.59-2.26-2.07-3.73s-.73-3.16-.73-5.05c0-1.6.23-3.08.68-4.43s1.11-2.52,1.97-3.5c.86-.98,1.91-1.74,3.16-2.3,1.25-.55,2.66-.83,4.25-.83,1.25,0,2.42.22,3.5.65s2.01,1.06,2.8,1.89c.79.83,1.42,1.85,1.87,3.06.46,1.21.68,2.6.68,4.17,0,.33-.04.55-.13.67-.09.12-.24.18-.45.18h-16.23Zm14.88-1.37c0-1.2-.17-2.27-.5-3.22-.34-.95-.81-1.75-1.42-2.41-.61-.66-1.34-1.16-2.19-1.51-.84-.35-1.78-.53-2.79-.53-1.15,0-2.18.18-3.09.54-.91.36-1.7.87-2.37,1.55-.67.67-1.2,1.48-1.6,2.42-.4.94-.67,2-.81,3.16h14.77Z"/><path class="cls-13" d="m203.38,240.76c-.12.21-.29.31-.52.31-.17,0-.37-.09-.63-.28-.25-.19-.59-.4-1.02-.63-.43-.23-.95-.44-1.58-.63-.63-.19-1.39-.28-2.29-.28-.81,0-1.54.12-2.21.35-.67.23-1.23.54-1.7.93s-.83.84-1.09,1.36-.38,1.06-.38,1.62c0,.7.18,1.29.54,1.75.36.46.83.86,1.4,1.19.58.33,1.24.61,1.98.85.75.24,1.5.48,2.28.72.77.24,1.53.5,2.28.8.75.29,1.41.65,1.98,1.09s1.04.96,1.4,1.59.54,1.39.54,2.29c0,.97-.17,1.88-.52,2.71s-.85,1.56-1.51,2.17c-.67.61-1.48,1.1-2.45,1.46-.97.36-2.08.54-3.34.54-1.57,0-2.92-.25-4.06-.75-1.14-.5-2.15-1.15-3.05-1.96l.49-.76c.07-.12.16-.21.26-.27.1-.06.23-.09.39-.09.19,0,.43.12.71.36.28.24.65.5,1.11.77.46.28,1.03.54,1.71.77.68.24,1.52.36,2.52.36.94,0,1.77-.13,2.49-.39.72-.26,1.32-.62,1.79-1.07.48-.45.84-.97,1.09-1.58.25-.61.37-1.24.37-1.92,0-.75-.18-1.37-.54-1.86s-.83-.91-1.41-1.25-1.24-.63-1.98-.87c-.74-.24-1.5-.48-2.28-.72s-1.54-.5-2.28-.78c-.74-.28-1.4-.64-1.98-1.08s-1.05-.96-1.41-1.58c-.36-.62-.54-1.39-.54-2.32,0-.79.17-1.55.52-2.29.34-.73.83-1.37,1.47-1.93.64-.55,1.41-.99,2.32-1.32s1.94-.49,3.07-.49c1.36,0,2.57.19,3.62.58s2.01.99,2.88,1.79l-.45.74Z"/></g><g class="cls-27"><path class="cls-13" d="m69.05,294.56c-.12.21-.29.31-.52.31-.17,0-.37-.09-.63-.28-.25-.19-.59-.4-1.02-.63-.43-.23-.95-.44-1.58-.63-.63-.19-1.39-.28-2.29-.28-.81,0-1.54.12-2.21.35-.67.23-1.23.54-1.7.93s-.83.84-1.09,1.36-.38,1.06-.38,1.62c0,.7.18,1.29.54,1.75.36.46.83.86,1.4,1.19.58.33,1.24.61,1.98.85.75.24,1.5.48,2.28.72.77.24,1.53.5,2.28.8.75.29,1.41.65,1.98,1.09s1.04.96,1.4,1.59.54,1.39.54,2.29c0,.97-.17,1.88-.52,2.71s-.85,1.56-1.51,2.17c-.67.61-1.48,1.1-2.45,1.46-.97.36-2.08.54-3.34.54-1.57,0-2.92-.25-4.06-.75-1.14-.5-2.15-1.15-3.05-1.96l.49-.76c.07-.12.16-.21.26-.27.1-.06.23-.09.39-.09.19,0,.43.12.71.36.28.24.65.5,1.11.77.46.28,1.03.54,1.71.77.68.24,1.52.36,2.52.36.94,0,1.77-.13,2.49-.39.72-.26,1.32-.62,1.79-1.07.48-.45.84-.97,1.09-1.58.25-.61.37-1.24.37-1.92,0-.75-.18-1.37-.54-1.86s-.83-.91-1.41-1.25-1.24-.63-1.98-.87c-.74-.24-1.5-.48-2.28-.72s-1.54-.5-2.28-.78c-.74-.28-1.4-.64-1.98-1.08s-1.05-.96-1.41-1.58c-.36-.62-.54-1.39-.54-2.32,0-.79.17-1.55.52-2.29.34-.73.83-1.37,1.47-1.93.64-.55,1.41-.99,2.32-1.32s1.94-.49,3.07-.49c1.36,0,2.57.19,3.62.58s2.01.99,2.88,1.79l-.45.74Z"/><path class="cls-13" d="m80.55,281.49v19.88h1.03c.21,0,.41-.03.59-.09.19-.06.39-.2.62-.43l8.94-8.5c.15-.18.31-.32.49-.42.18-.1.4-.15.67-.15h1.88l-9.84,9.35c-.27.31-.56.56-.87.74.24.12.44.26.62.41.17.16.34.34.5.55l10.33,11.25h-1.86c-.21,0-.4-.03-.57-.1s-.33-.21-.48-.42l-9.37-10.04c-.12-.13-.24-.25-.35-.34s-.23-.16-.35-.21c-.12-.05-.26-.09-.42-.11-.16-.02-.35-.03-.57-.03h-1.01v11.25h-2.15v-32.62h2.15Z"/><path class="cls-13" d="m105.59,284.11c0,.27-.06.52-.17.75-.11.23-.26.44-.44.62s-.39.32-.63.43-.49.16-.76.16-.52-.05-.76-.16-.45-.25-.63-.43c-.18-.18-.32-.38-.43-.62-.11-.23-.16-.48-.16-.75s.05-.53.16-.77c.1-.25.25-.46.43-.64.18-.18.39-.32.63-.43.24-.1.49-.16.76-.16s.52.05.76.16c.24.11.45.25.63.43.18.18.33.39.44.64.11.25.17.5.17.77Zm-.92,7.69v22.3h-2.13v-22.3h2.13Z"/><path class="cls-13" d="m117.18,281.49v32.62h-2.15v-32.62h2.15Z"/><path class="cls-13" d="m129.64,281.49v32.62h-2.15v-32.62h2.15Z"/><path class="cls-13" d="m152.01,294.56c-.12.21-.29.31-.52.31-.17,0-.37-.09-.63-.28-.25-.19-.59-.4-1.02-.63-.43-.23-.95-.44-1.58-.63-.63-.19-1.39-.28-2.29-.28-.81,0-1.54.12-2.21.35-.67.23-1.23.54-1.7.93s-.83.84-1.09,1.36-.38,1.06-.38,1.62c0,.7.18,1.29.54,1.75.36.46.83.86,1.4,1.19.58.33,1.24.61,1.98.85.75.24,1.5.48,2.28.72.77.24,1.53.5,2.28.8.75.29,1.41.65,1.98,1.09s1.04.96,1.4,1.59.54,1.39.54,2.29c0,.97-.17,1.88-.52,2.71s-.85,1.56-1.51,2.17c-.67.61-1.48,1.1-2.45,1.46-.97.36-2.08.54-3.34.54-1.57,0-2.92-.25-4.06-.75-1.14-.5-2.15-1.15-3.05-1.96l.49-.76c.07-.12.16-.21.26-.27.1-.06.23-.09.39-.09.19,0,.43.12.71.36.28.24.65.5,1.11.77.46.28,1.03.54,1.71.77.68.24,1.52.36,2.52.36.94,0,1.77-.13,2.49-.39.72-.26,1.32-.62,1.79-1.07.48-.45.84-.97,1.09-1.58.25-.61.37-1.24.37-1.92,0-.75-.18-1.37-.54-1.86s-.83-.91-1.41-1.25-1.24-.63-1.98-.87c-.74-.24-1.5-.48-2.28-.72s-1.54-.5-2.28-.78c-.74-.28-1.4-.64-1.98-1.08s-1.05-.96-1.41-1.58c-.36-.62-.54-1.39-.54-2.32,0-.79.17-1.55.52-2.29.34-.73.83-1.37,1.47-1.93.64-.55,1.41-.99,2.32-1.32s1.94-.49,3.07-.49c1.36,0,2.57.19,3.62.58s2.01.99,2.88,1.79l-.45.74Z"/></g></g><g id="Coding_skills" class="cls-27"><g class="cls-27"><path class="cls-13" d="m56.75,684.53c.15,0,.28.05.38.16l.9.96c-.66.7-1.37,1.33-2.14,1.89s-1.61,1.04-2.53,1.43c-.92.4-1.93.7-3.03.92-1.1.22-2.31.33-3.62.33-2.2,0-4.21-.38-6.04-1.15s-3.4-1.86-4.72-3.27c-1.31-1.41-2.33-3.12-3.06-5.12-.72-2-1.09-4.23-1.09-6.68s.37-4.6,1.12-6.59c.75-1.99,1.79-3.69,3.14-5.12,1.34-1.43,2.96-2.53,4.84-3.32s3.96-1.18,6.23-1.18,4.09.34,5.76,1.01,3.2,1.62,4.57,2.85l-.7,1.01c-.12.18-.31.27-.56.27-.18,0-.47-.17-.87-.49-.4-.33-.96-.69-1.68-1.09-.72-.4-1.61-.76-2.68-1.09-1.07-.33-2.35-.49-3.84-.49-1.91,0-3.67.33-5.26.99-1.59.66-2.96,1.6-4.1,2.82-1.14,1.23-2.04,2.72-2.68,4.48-.64,1.76-.96,3.74-.96,5.94s.33,4.24.97,6.01c.65,1.76,1.54,3.25,2.68,4.47,1.13,1.22,2.48,2.15,4.02,2.8,1.55.65,3.22.97,5.01.97,1.14,0,2.15-.07,3.04-.22.89-.15,1.71-.37,2.45-.67s1.44-.67,2.08-1.1c.64-.43,1.28-.94,1.91-1.52.07-.06.15-.11.22-.15.07-.04.15-.06.22-.06Z"/><path class="cls-13" d="m74.12,667.2c1.6,0,3.03.27,4.29.82s2.33,1.32,3.2,2.32c.87,1,1.53,2.21,1.98,3.62s.68,2.99.68,4.74-.23,3.33-.68,4.73c-.46,1.41-1.12,2.61-1.98,3.61-.87,1-1.93,1.77-3.2,2.31s-2.69.81-4.29.81-3.03-.27-4.29-.81-2.33-1.31-3.21-2.31c-.87-1-1.54-2.2-2-3.61-.46-1.4-.68-2.98-.68-4.73s.23-3.33.68-4.74,1.12-2.62,2-3.62c.88-1,1.94-1.77,3.21-2.32s2.69-.82,4.29-.82Zm0,21.27c1.33,0,2.49-.23,3.49-.68s1.82-1.11,2.49-1.96,1.16-1.88,1.49-3.08c.33-1.2.49-2.55.49-4.05s-.17-2.83-.49-4.04c-.33-1.21-.83-2.25-1.49-3.1s-1.49-1.52-2.49-1.98c-.99-.46-2.16-.7-3.49-.7s-2.49.23-3.49.7c-.99.46-1.82,1.12-2.49,1.98s-1.17,1.89-1.5,3.1c-.34,1.21-.5,2.56-.5,4.04s.17,2.84.5,4.05c.34,1.2.84,2.23,1.5,3.08s1.49,1.51,2.49,1.96,2.16.68,3.49.68Z"/><path class="cls-13" d="m110.21,657.25v32.62h-1.17c-.39,0-.61-.19-.67-.58l-.22-3.52c-.99,1.35-2.14,2.41-3.45,3.21-1.32.79-2.79,1.19-4.44,1.19-2.75,0-4.89-.95-6.41-2.85-1.52-1.9-2.29-4.74-2.29-8.54,0-1.63.21-3.15.64-4.56.43-1.41,1.05-2.64,1.87-3.68.82-1.04,1.83-1.86,3.04-2.46s2.59-.9,4.16-.9,2.82.28,3.92.83c1.11.55,2.07,1.38,2.89,2.47v-13.23h2.13Zm-2.13,15.11c-.85-1.28-1.8-2.19-2.84-2.71-1.04-.52-2.22-.78-3.55-.78s-2.47.24-3.45.72c-.99.48-1.81,1.15-2.48,2.03-.67.88-1.17,1.92-1.5,3.14-.34,1.22-.5,2.56-.5,4.02,0,3.32.61,5.76,1.83,7.32,1.22,1.56,2.98,2.34,5.28,2.34,1.46,0,2.8-.38,4.01-1.14,1.21-.76,2.28-1.83,3.21-3.21v-11.72Z"/><path class="cls-13" d="m123.41,659.87c0,.27-.06.52-.17.75-.11.23-.26.44-.44.62s-.39.32-.63.43-.49.16-.76.16-.52-.05-.76-.16-.45-.25-.63-.43c-.18-.18-.32-.38-.43-.62-.11-.23-.16-.48-.16-.75s.05-.53.16-.77c.1-.25.25-.46.43-.64.18-.18.39-.32.63-.43.24-.1.49-.16.76-.16s.52.05.76.16c.24.11.45.25.63.43.18.18.33.39.44.64.11.25.17.5.17.77Zm-.92,7.69v22.3h-2.13v-22.3h2.13Z"/><path class="cls-13" d="m134.69,671.46c1.03-1.29,2.22-2.32,3.58-3.09,1.35-.78,2.86-1.17,4.52-1.17,1.23,0,2.3.19,3.24.58.93.39,1.71.95,2.32,1.68.61.73,1.08,1.61,1.39,2.65s.47,2.2.47,3.5v14.26h-2.15v-14.26c0-2.09-.48-3.73-1.43-4.92-.96-1.19-2.41-1.78-4.37-1.78-1.45,0-2.81.37-4.07,1.11-1.26.74-2.39,1.77-3.37,3.08v16.77h-2.15v-22.3h1.19c.37,0,.59.19.65.56l.2,3.34Z"/><path class="cls-13" d="m177.82,668.54v.74c0,.33-.21.53-.63.6l-3.41.25c.42.57.74,1.2.96,1.91.22.7.34,1.46.34,2.29,0,1.08-.19,2.05-.57,2.93-.38.87-.92,1.62-1.61,2.24-.7.62-1.53,1.1-2.51,1.45-.98.34-2.06.52-3.24.52-1.27,0-2.43-.19-3.47-.58-.63.36-1.12.78-1.49,1.27-.37.49-.55.97-.55,1.45,0,.64.23,1.14.68,1.48s1.05.59,1.79.75c.74.16,1.58.26,2.53.3.95.04,1.92.09,2.9.15s1.95.15,2.9.28c.95.13,1.79.37,2.53.71.74.34,1.34.81,1.79,1.41.46.61.68,1.41.68,2.41,0,.93-.23,1.82-.7,2.67s-1.13,1.61-2.01,2.26c-.87.66-1.93,1.18-3.17,1.58-1.24.4-2.63.59-4.17.59s-2.94-.16-4.12-.48c-1.18-.32-2.17-.75-2.97-1.3s-1.4-1.18-1.8-1.89c-.4-.72-.6-1.48-.6-2.29,0-1.18.39-2.19,1.17-3.04s1.84-1.51,3.18-1.98c-.75-.25-1.35-.62-1.8-1.11-.46-.49-.68-1.15-.68-1.98,0-.31.06-.64.18-.99.12-.34.3-.68.54-1.02.24-.34.53-.65.88-.95.34-.3.73-.57,1.17-.81-1.06-.61-1.89-1.43-2.48-2.44-.59-1.02-.89-2.2-.89-3.56,0-1.08.19-2.05.57-2.92.38-.87.92-1.62,1.63-2.25.7-.63,1.54-1.11,2.52-1.46.98-.34,2.07-.52,3.26-.52.99,0,1.89.12,2.72.36.83.24,1.57.58,2.23,1.01h5.72Zm-2.33,22.82c0-.7-.18-1.27-.55-1.69-.37-.43-.86-.76-1.47-1-.61-.24-1.32-.41-2.12-.5-.8-.1-1.64-.17-2.51-.21s-1.75-.09-2.63-.13c-.88-.04-1.71-.13-2.49-.27-.57.22-1.09.48-1.57.77-.48.29-.89.62-1.23,1-.34.37-.61.78-.81,1.22s-.29.92-.29,1.42c0,.66.17,1.27.5,1.83.34.56.83,1.05,1.48,1.46.65.41,1.45.74,2.39.97s2.02.36,3.25.36c1.14,0,2.19-.13,3.17-.38s1.83-.61,2.56-1.08,1.29-1.02,1.7-1.66c.41-.64.62-1.35.62-2.11Zm-8.34-11.37c.96,0,1.81-.14,2.56-.42.75-.28,1.37-.66,1.88-1.15.51-.49.9-1.08,1.17-1.77.27-.69.4-1.45.4-2.29s-.14-1.6-.42-2.3c-.28-.7-.67-1.29-1.19-1.78s-1.14-.88-1.88-1.14c-.74-.27-1.58-.4-2.52-.4s-1.78.13-2.52.4c-.74.27-1.37.65-1.88,1.14s-.91,1.09-1.18,1.78c-.27.69-.4,1.46-.4,2.3s.13,1.6.4,2.29c.27.69.66,1.28,1.18,1.77s1.14.88,1.88,1.15c.74.28,1.58.42,2.52.42Z"/></g><g class="cls-27"><path class="cls-13" d="m69.05,724.12c-.12.21-.29.31-.52.31-.17,0-.37-.09-.63-.28-.25-.19-.59-.4-1.02-.63-.43-.23-.95-.44-1.58-.63-.63-.19-1.39-.28-2.29-.28-.81,0-1.54.12-2.21.35-.67.23-1.23.54-1.7.93s-.83.84-1.09,1.36-.38,1.06-.38,1.62c0,.7.18,1.29.54,1.75.36.46.83.86,1.4,1.19.58.33,1.24.61,1.98.85.75.24,1.5.48,2.28.72.77.24,1.53.5,2.28.8.75.29,1.41.65,1.98,1.09s1.04.96,1.4,1.59.54,1.39.54,2.29c0,.97-.17,1.88-.52,2.71s-.85,1.56-1.51,2.17c-.67.61-1.48,1.1-2.45,1.46-.97.36-2.08.54-3.34.54-1.57,0-2.92-.25-4.06-.75-1.14-.5-2.15-1.15-3.05-1.96l.49-.76c.07-.12.16-.21.26-.27.1-.06.23-.09.39-.09.19,0,.43.12.71.36.28.24.65.5,1.11.77.46.28,1.03.54,1.71.77.68.24,1.52.36,2.52.36.94,0,1.77-.13,2.49-.39.72-.26,1.32-.62,1.79-1.07.48-.45.84-.97,1.09-1.58.25-.61.37-1.24.37-1.92,0-.75-.18-1.37-.54-1.86s-.83-.91-1.41-1.25-1.24-.63-1.98-.87c-.74-.24-1.5-.48-2.28-.72s-1.54-.5-2.28-.78c-.74-.28-1.4-.64-1.98-1.08s-1.05-.96-1.41-1.58c-.36-.62-.54-1.39-.54-2.32,0-.79.17-1.55.52-2.29.34-.73.83-1.37,1.47-1.93.64-.55,1.41-.99,2.32-1.32s1.94-.49,3.07-.49c1.36,0,2.57.19,3.62.58s2.01.99,2.88,1.79l-.45.74Z"/><path class="cls-13" d="m80.55,711.05v19.88h1.03c.21,0,.41-.03.59-.09.19-.06.39-.2.62-.43l8.94-8.5c.15-.18.31-.32.49-.42.18-.1.4-.15.67-.15h1.88l-9.84,9.35c-.27.31-.56.56-.87.74.24.12.44.26.62.41.17.16.34.34.5.55l10.33,11.25h-1.86c-.21,0-.4-.03-.57-.1s-.33-.21-.48-.42l-9.37-10.04c-.12-.13-.24-.25-.35-.34s-.23-.16-.35-.21c-.12-.05-.26-.09-.42-.11-.16-.02-.35-.03-.57-.03h-1.01v11.25h-2.15v-32.62h2.15Z"/><path class="cls-13" d="m105.59,713.67c0,.27-.06.52-.17.75-.11.23-.26.44-.44.62s-.39.32-.63.43-.49.16-.76.16-.52-.05-.76-.16-.45-.25-.63-.43c-.18-.18-.32-.38-.43-.62-.11-.23-.16-.48-.16-.75s.05-.53.16-.77c.1-.25.25-.46.43-.64.18-.18.39-.32.63-.43.24-.1.49-.16.76-.16s.52.05.76.16c.24.11.45.25.63.43.18.18.33.39.44.64.11.25.17.5.17.77Zm-.92,7.69v22.3h-2.13v-22.3h2.13Z"/><path class="cls-13" d="m117.18,711.05v32.62h-2.15v-32.62h2.15Z"/><path class="cls-13" d="m129.64,711.05v32.62h-2.15v-32.62h2.15Z"/><path class="cls-13" d="m152.01,724.12c-.12.21-.29.31-.52.31-.17,0-.37-.09-.63-.28-.25-.19-.59-.4-1.02-.63-.43-.23-.95-.44-1.58-.63-.63-.19-1.39-.28-2.29-.28-.81,0-1.54.12-2.21.35-.67.23-1.23.54-1.7.93s-.83.84-1.09,1.36-.38,1.06-.38,1.62c0,.7.18,1.29.54,1.75.36.46.83.86,1.4,1.19.58.33,1.24.61,1.98.85.75.24,1.5.48,2.28.72.77.24,1.53.5,2.28.8.75.29,1.41.65,1.98,1.09s1.04.96,1.4,1.59.54,1.39.54,2.29c0,.97-.17,1.88-.52,2.71s-.85,1.56-1.51,2.17c-.67.61-1.48,1.1-2.45,1.46-.97.36-2.08.54-3.34.54-1.57,0-2.92-.25-4.06-.75-1.14-.5-2.15-1.15-3.05-1.96l.49-.76c.07-.12.16-.21.26-.27.1-.06.23-.09.39-.09.19,0,.43.12.71.36.28.24.65.5,1.11.77.46.28,1.03.54,1.71.77.68.24,1.52.36,2.52.36.94,0,1.77-.13,2.49-.39.72-.26,1.32-.62,1.79-1.07.48-.45.84-.97,1.09-1.58.25-.61.37-1.24.37-1.92,0-.75-.18-1.37-.54-1.86s-.83-.91-1.41-1.25-1.24-.63-1.98-.87c-.74-.24-1.5-.48-2.28-.72s-1.54-.5-2.28-.78c-.74-.28-1.4-.64-1.98-1.08s-1.05-.96-1.41-1.58c-.36-.62-.54-1.39-.54-2.32,0-.79.17-1.55.52-2.29.34-.73.83-1.37,1.47-1.93.64-.55,1.41-.99,2.32-1.32s1.94-.49,3.07-.49c1.36,0,2.57.19,3.62.58s2.01.99,2.88,1.79l-.45.74Z"/></g></g><g id="Adobe_Illustrator" class="cls-27"><g class="cls-27"><path class="cls-13" d="m428.81,257.97h-1.77c-.21,0-.38-.06-.52-.17-.13-.11-.24-.26-.31-.44l-3.72-9.21h-15.58l-3.72,9.21c-.06.17-.17.31-.31.43-.15.12-.33.18-.54.18h-1.75l12.98-31.72h2.26l12.98,31.72Zm-7.02-11.52l-6.46-16.03c-.22-.52-.44-1.15-.65-1.88-.09.36-.19.7-.29,1.02s-.22.62-.34.89l-6.46,16h14.19Z"/><path class="cls-13" d="m452.46,225.35v32.62h-1.17c-.39,0-.61-.19-.67-.58l-.22-3.52c-.99,1.35-2.14,2.41-3.45,3.21-1.32.79-2.79,1.19-4.44,1.19-2.75,0-4.89-.95-6.41-2.85-1.52-1.9-2.29-4.74-2.29-8.54,0-1.63.21-3.15.64-4.56.43-1.41,1.05-2.64,1.87-3.68.82-1.04,1.83-1.86,3.04-2.46s2.59-.9,4.16-.9,2.82.28,3.92.83c1.11.55,2.07,1.38,2.89,2.47v-13.23h2.13Zm-2.13,15.11c-.85-1.28-1.8-2.19-2.84-2.71-1.04-.52-2.22-.78-3.55-.78s-2.47.24-3.45.72c-.99.48-1.81,1.15-2.48,2.03-.67.88-1.17,1.92-1.5,3.14-.34,1.22-.5,2.56-.5,4.02,0,3.32.61,5.76,1.83,7.32,1.22,1.56,2.98,2.34,5.28,2.34,1.46,0,2.8-.38,4.01-1.14,1.21-.76,2.28-1.83,3.21-3.21v-11.72Z"/><path class="cls-13" d="m471.2,235.31c1.6,0,3.03.27,4.29.82s2.33,1.32,3.2,2.32c.87,1,1.53,2.21,1.98,3.62s.68,2.99.68,4.74-.23,3.33-.68,4.73c-.46,1.41-1.12,2.61-1.98,3.61-.87,1-1.93,1.77-3.2,2.31s-2.69.81-4.29.81-3.03-.27-4.29-.81-2.33-1.31-3.21-2.31c-.87-1-1.54-2.2-2-3.61-.46-1.4-.68-2.98-.68-4.73s.23-3.33.68-4.74,1.12-2.62,2-3.62c.88-1,1.94-1.77,3.21-2.32s2.69-.82,4.29-.82Zm0,21.27c1.33,0,2.49-.23,3.49-.68s1.82-1.11,2.49-1.96,1.16-1.88,1.49-3.08c.33-1.2.49-2.55.49-4.05s-.17-2.83-.49-4.04c-.33-1.21-.83-2.25-1.49-3.1s-1.49-1.52-2.49-1.98c-.99-.46-2.16-.7-3.49-.7s-2.49.23-3.49.7c-.99.46-1.82,1.12-2.49,1.98s-1.17,1.89-1.5,3.1c-.34,1.21-.5,2.56-.5,4.04s.17,2.84.5,4.05c.34,1.2.84,2.23,1.5,3.08s1.49,1.51,2.49,1.96,2.16.68,3.49.68Z"/><path class="cls-13" d="m492.09,239.54c.97-1.31,2.11-2.35,3.41-3.1,1.3-.75,2.81-1.13,4.53-1.13,1.34,0,2.55.25,3.61.74,1.06.49,1.96,1.2,2.7,2.13.74.93,1.3,2.07,1.69,3.42s.58,2.89.58,4.61c0,1.81-.22,3.46-.65,4.94-.43,1.49-1.06,2.76-1.89,3.81-.83,1.05-1.84,1.87-3.04,2.44s-2.56.86-4.1.86-2.93-.3-4.05-.91-2.07-1.51-2.88-2.7l-.16,2.76c-.04.37-.25.56-.61.56h-1.3v-32.62h2.15v14.19Zm0,13.56c.87,1.29,1.82,2.19,2.86,2.7,1.04.52,2.21.77,3.51.77s2.49-.24,3.49-.72c.99-.48,1.82-1.16,2.49-2.05.66-.89,1.16-1.97,1.49-3.24s.49-2.7.49-4.28c0-3.08-.61-5.4-1.84-6.95-1.23-1.55-2.94-2.33-5.16-2.33-1.58,0-2.97.38-4.15,1.14-1.18.76-2.24,1.82-3.18,3.18v11.77Z"/><path class="cls-13" d="m517.96,245.93v.43c0,1.67.19,3.15.58,4.42.39,1.27.94,2.33,1.66,3.19.72.86,1.58,1.51,2.6,1.94,1.02.43,2.15.65,3.41.65,1.12,0,2.09-.12,2.91-.37.82-.25,1.51-.52,2.07-.83s1-.58,1.33-.83c.33-.25.57-.37.72-.37.19,0,.34.07.45.22l.58.72c-.36.45-.83.87-1.42,1.25-.59.39-1.25.72-1.97,1s-1.5.5-2.33.66-1.66.25-2.5.25c-1.52,0-2.91-.26-4.17-.79-1.25-.53-2.33-1.3-3.23-2.32-.9-1.02-1.59-2.26-2.07-3.73s-.73-3.16-.73-5.05c0-1.6.23-3.08.68-4.43s1.11-2.52,1.97-3.5c.86-.98,1.91-1.74,3.16-2.3,1.25-.55,2.66-.83,4.25-.83,1.25,0,2.42.22,3.5.65s2.01,1.06,2.8,1.89c.79.83,1.42,1.85,1.87,3.06.46,1.21.68,2.6.68,4.17,0,.33-.04.55-.13.67-.09.12-.24.18-.45.18h-16.23Zm14.88-1.37c0-1.2-.17-2.27-.5-3.22-.34-.95-.81-1.75-1.42-2.41-.61-.66-1.34-1.16-2.19-1.51-.84-.35-1.78-.53-2.79-.53-1.15,0-2.18.18-3.09.54-.91.36-1.7.87-2.37,1.55-.67.67-1.2,1.48-1.6,2.42-.4.94-.67,2-.81,3.16h14.77Z"/></g><g class="cls-27"><path class="cls-13" d="m371.08,329.7h-2.31v-31.72h2.31v31.72Z"/><path class="cls-13" d="m384,297.09v32.62h-2.15v-32.62h2.15Z"/><path class="cls-13" d="m396.46,297.09v32.62h-2.15v-32.62h2.15Z"/><path class="cls-13" d="m423.88,307.4v22.3h-1.19c-.37,0-.59-.19-.65-.58l-.2-3.32c-1.03,1.29-2.22,2.32-3.58,3.09s-2.86,1.17-4.52,1.17c-1.24,0-2.32-.19-3.25-.58-.93-.39-1.7-.95-2.31-1.68-.61-.73-1.08-1.61-1.39-2.65s-.47-2.2-.47-3.5v-14.26h2.15v14.26c0,2.09.48,3.73,1.43,4.92.96,1.19,2.41,1.78,4.37,1.78,1.45,0,2.81-.37,4.07-1.11,1.26-.74,2.39-1.77,3.37-3.08v-16.77h2.15Z"/><path class="cls-13" d="m446.02,310.16c-.12.21-.29.31-.52.31-.17,0-.37-.09-.63-.28-.25-.19-.59-.4-1.02-.63-.43-.23-.95-.44-1.58-.63-.63-.19-1.39-.28-2.29-.28-.81,0-1.54.12-2.21.35-.67.23-1.23.54-1.7.93s-.83.84-1.09,1.36-.38,1.06-.38,1.62c0,.7.18,1.29.54,1.75.36.46.83.86,1.4,1.19.58.33,1.24.61,1.98.85.75.24,1.5.48,2.28.72.77.24,1.53.5,2.28.8.75.29,1.41.65,1.98,1.09s1.04.96,1.4,1.59.54,1.39.54,2.29c0,.97-.17,1.88-.52,2.71s-.85,1.56-1.51,2.17c-.67.61-1.48,1.1-2.45,1.46-.97.36-2.08.54-3.34.54-1.57,0-2.92-.25-4.06-.75-1.14-.5-2.15-1.15-3.05-1.96l.49-.76c.07-.12.16-.21.26-.27.1-.06.23-.09.39-.09.19,0,.43.12.71.36.28.24.65.5,1.11.77.46.28,1.03.54,1.71.77.68.24,1.52.36,2.52.36.94,0,1.77-.13,2.49-.39.72-.26,1.32-.62,1.79-1.07.48-.45.84-.97,1.09-1.58.25-.61.37-1.24.37-1.92,0-.75-.18-1.37-.54-1.86s-.83-.91-1.41-1.25-1.24-.63-1.98-.87c-.74-.24-1.5-.48-2.28-.72s-1.54-.5-2.28-.78c-.74-.28-1.4-.64-1.98-1.08s-1.05-.96-1.41-1.58c-.36-.62-.54-1.39-.54-2.32,0-.79.17-1.55.52-2.29.34-.73.83-1.37,1.47-1.93.64-.55,1.41-.99,2.32-1.32s1.94-.49,3.07-.49c1.36,0,2.57.19,3.62.58s2.01.99,2.88,1.79l-.45.74Z"/><path class="cls-13" d="m461.47,330.06c-1.51,0-2.69-.42-3.53-1.25-.84-.84-1.27-2.13-1.27-3.88v-15.24h-3.21c-.16,0-.3-.04-.4-.13s-.16-.22-.16-.38v-.83l3.81-.27.54-7.98c.03-.13.09-.25.18-.36.09-.1.22-.16.38-.16h1.01v8.52h7.04v1.59h-7.04v15.13c0,.61.08,1.14.24,1.58.16.44.37.8.65,1.09.28.28.6.49.98.63.37.13.78.2,1.21.2.54,0,1-.08,1.39-.24.39-.16.72-.33,1.01-.52.28-.19.52-.36.7-.52s.32-.24.43-.24c.12,0,.24.08.36.22l.58.94c-.57.63-1.29,1.13-2.16,1.51s-1.78.57-2.72.57Z"/><path class="cls-13" d="m475.32,312.78c.34-.91.74-1.72,1.18-2.43.44-.71.95-1.31,1.52-1.8s1.22-.87,1.93-1.13c.71-.26,1.5-.39,2.36-.39.46,0,.92.04,1.37.12.45.08.84.23,1.19.44l-.18,1.48c-.07.24-.22.36-.43.36-.18,0-.45-.05-.82-.16-.37-.1-.85-.16-1.45-.16-.87,0-1.63.13-2.3.39-.67.26-1.26.65-1.79,1.18-.53.52-.99,1.17-1.39,1.94-.4.77-.76,1.66-1.09,2.66v14.44h-2.15v-22.3h1.14c.25,0,.43.05.54.16s.17.28.2.54l.16,4.68Z"/><path class="cls-13" d="m490.59,310.56c1.17-1.17,2.39-2.05,3.68-2.65s2.74-.9,4.37-.9c1.2,0,2.24.19,3.14.57.9.38,1.64.93,2.23,1.64s1.04,1.57,1.33,2.58.45,2.13.45,3.37v14.53h-.85c-.45,0-.73-.21-.83-.63l-.31-2.87c-.61.6-1.22,1.14-1.83,1.61-.6.48-1.24.88-1.89,1.21-.66.33-1.37.58-2.13.76-.76.18-1.6.27-2.51.27-.76,0-1.5-.11-2.22-.34-.72-.22-1.36-.57-1.92-1.03-.56-.46-1.01-1.06-1.34-1.78-.34-.72-.5-1.59-.5-2.61,0-.94.27-1.82.81-2.62.54-.81,1.38-1.51,2.53-2.11,1.15-.6,2.63-1.08,4.43-1.44,1.8-.36,3.96-.57,6.49-.63v-2.33c0-2.06-.44-3.65-1.33-4.76-.89-1.11-2.21-1.67-3.96-1.67-1.08,0-1.99.15-2.75.45s-1.39.63-1.92.99c-.52.36-.95.69-1.28.99-.33.3-.61.45-.83.45-.17,0-.3-.04-.4-.11-.11-.08-.2-.17-.27-.29l-.38-.65Zm13.11,8.36c-2.12.08-3.95.24-5.48.5-1.53.26-2.79.62-3.79,1.07-.99.45-1.73.98-2.21,1.6-.48.62-.72,1.33-.72,2.12,0,.75.12,1.39.37,1.94.25.54.58.99.99,1.34.41.35.88.61,1.42.77s1.1.25,1.68.25c.87,0,1.66-.09,2.39-.28.72-.19,1.4-.45,2.02-.78.62-.34,1.2-.74,1.74-1.2.54-.46,1.07-.96,1.59-1.5v-5.83Z"/><path class="cls-13" d="m521.32,330.06c-1.51,0-2.69-.42-3.53-1.25-.84-.84-1.27-2.13-1.27-3.88v-15.24h-3.21c-.16,0-.3-.04-.4-.13s-.16-.22-.16-.38v-.83l3.81-.27.54-7.98c.03-.13.09-.25.18-.36.09-.1.22-.16.38-.16h1.01v8.52h7.04v1.59h-7.04v15.13c0,.61.08,1.14.24,1.58.16.44.37.8.65,1.09.28.28.6.49.98.63.37.13.78.2,1.21.2.54,0,1-.08,1.39-.24.39-.16.72-.33,1.01-.52.28-.19.52-.36.7-.52s.32-.24.43-.24c.12,0,.24.08.36.22l.58.94c-.57.63-1.29,1.13-2.16,1.51s-1.78.57-2.72.57Z"/><path class="cls-13" d="m541.9,307.04c1.6,0,3.03.27,4.29.82s2.33,1.32,3.2,2.32c.87,1,1.53,2.21,1.98,3.62s.68,2.99.68,4.74-.23,3.33-.68,4.73c-.46,1.41-1.12,2.61-1.98,3.61-.87,1-1.93,1.77-3.2,2.31s-2.69.81-4.29.81-3.03-.27-4.29-.81-2.33-1.31-3.21-2.31c-.87-1-1.54-2.2-2-3.61-.46-1.4-.68-2.98-.68-4.73s.23-3.33.68-4.74,1.12-2.62,2-3.62c.88-1,1.94-1.77,3.21-2.32s2.69-.82,4.29-.82Zm0,21.27c1.33,0,2.49-.23,3.49-.68s1.82-1.11,2.49-1.96,1.16-1.88,1.49-3.08c.33-1.2.49-2.55.49-4.05s-.17-2.83-.49-4.04c-.33-1.21-.83-2.25-1.49-3.1s-1.49-1.52-2.49-1.98c-.99-.46-2.16-.7-3.49-.7s-2.49.23-3.49.7c-.99.46-1.82,1.12-2.49,1.98s-1.17,1.89-1.5,3.1c-.34,1.21-.5,2.56-.5,4.04s.17,2.84.5,4.05c.34,1.2.84,2.23,1.5,3.08s1.49,1.51,2.49,1.96,2.16.68,3.49.68Z"/><path class="cls-13" d="m562.68,312.78c.34-.91.74-1.72,1.18-2.43.44-.71.95-1.31,1.52-1.8s1.22-.87,1.93-1.13c.71-.26,1.5-.39,2.36-.39.46,0,.92.04,1.37.12.45.08.84.23,1.19.44l-.18,1.48c-.07.24-.22.36-.43.36-.18,0-.45-.05-.82-.16-.37-.1-.85-.16-1.45-.16-.87,0-1.63.13-2.3.39-.67.26-1.26.65-1.79,1.18-.53.52-.99,1.17-1.39,1.94-.4.77-.76,1.66-1.09,2.66v14.44h-2.15v-22.3h1.14c.25,0,.43.05.54.16s.17.28.2.54l.16,4.68Z"/></g></g><g id="HTML" class="cls-27"><g class="cls-27"><path class="cls-13" d="m428.98,679.13v31.72h-2.31v-15.2h-19.86v15.2h-2.31v-31.72h2.31v14.79h19.86v-14.79h2.31Z"/><path class="cls-13" d="m461.53,681.08h-11.14v29.77h-2.31v-29.77h-11.21v-1.95h24.66v1.95Z"/><path class="cls-13" d="m500.76,679.13v31.72h-2v-27.03c0-.39.02-.8.07-1.23l-12.49,22.17c-.21.39-.51.58-.9.58h-.36c-.39,0-.69-.19-.9-.58l-12.82-22.21c.04.45.07.88.07,1.28v27.03h-2.02v-31.72h1.59c.21,0,.37.02.49.07.12.04.24.17.36.36l12.8,22.06c.22.42.42.87.58,1.34.09-.24.19-.47.29-.71s.22-.45.34-.66l12.44-22.04c.12-.19.24-.31.37-.36s.29-.07.5-.07h1.57Z"/><path class="cls-13" d="m530.01,708.9v1.95h-17.33v-31.72h2.31v29.77h15.02Z"/></g></g><g id="Adobe_Photoshop" class="cls-27"><g class="cls-27"><path class="cls-13" d="m806.99,260.3h-1.77c-.21,0-.38-.06-.52-.17-.13-.11-.24-.26-.31-.44l-3.72-9.21h-15.58l-3.72,9.21c-.06.17-.17.31-.31.43-.15.12-.33.18-.54.18h-1.75l12.98-31.72h2.26l12.98,31.72Zm-7.02-11.52l-6.46-16.03c-.22-.52-.44-1.15-.65-1.88-.09.36-.19.7-.29,1.02s-.22.62-.34.89l-6.46,16h14.19Z"/><path class="cls-13" d="m830.64,227.69v32.62h-1.17c-.39,0-.61-.19-.67-.58l-.22-3.52c-.99,1.35-2.14,2.41-3.45,3.21-1.32.79-2.79,1.19-4.44,1.19-2.75,0-4.89-.95-6.41-2.85-1.52-1.9-2.29-4.74-2.29-8.54,0-1.63.21-3.15.64-4.56.43-1.41,1.05-2.64,1.87-3.68.82-1.04,1.83-1.86,3.04-2.46s2.59-.9,4.16-.9,2.82.28,3.92.83c1.11.55,2.07,1.38,2.89,2.47v-13.23h2.13Zm-2.13,15.11c-.85-1.28-1.8-2.19-2.84-2.71-1.04-.52-2.22-.78-3.55-.78s-2.47.24-3.45.72c-.99.48-1.81,1.15-2.48,2.03-.67.88-1.17,1.92-1.5,3.14-.34,1.22-.5,2.56-.5,4.02,0,3.32.61,5.76,1.83,7.32,1.22,1.56,2.98,2.34,5.28,2.34,1.46,0,2.8-.38,4.01-1.14,1.21-.76,2.28-1.83,3.21-3.21v-11.72Z"/><path class="cls-13" d="m849.38,237.64c1.6,0,3.03.27,4.29.82s2.33,1.32,3.2,2.32c.87,1,1.53,2.21,1.98,3.62s.68,2.99.68,4.74-.23,3.33-.68,4.73c-.46,1.41-1.12,2.61-1.98,3.61-.87,1-1.93,1.77-3.2,2.31s-2.69.81-4.29.81-3.03-.27-4.29-.81-2.33-1.31-3.21-2.31c-.87-1-1.54-2.2-2-3.61-.46-1.4-.68-2.98-.68-4.73s.23-3.33.68-4.74,1.12-2.62,2-3.62c.88-1,1.94-1.77,3.21-2.32s2.69-.82,4.29-.82Zm0,21.27c1.33,0,2.49-.23,3.49-.68s1.82-1.11,2.49-1.96,1.16-1.88,1.49-3.08c.33-1.2.49-2.55.49-4.05s-.17-2.83-.49-4.04c-.33-1.21-.83-2.25-1.49-3.1s-1.49-1.52-2.49-1.98c-.99-.46-2.16-.7-3.49-.7s-2.49.23-3.49.7c-.99.46-1.82,1.12-2.49,1.98s-1.17,1.89-1.5,3.1c-.34,1.21-.5,2.56-.5,4.04s.17,2.84.5,4.05c.34,1.2.84,2.23,1.5,3.08s1.49,1.51,2.49,1.96,2.16.68,3.49.68Z"/><path class="cls-13" d="m870.27,241.88c.97-1.31,2.11-2.35,3.41-3.1,1.3-.75,2.81-1.13,4.53-1.13,1.34,0,2.55.25,3.61.74,1.06.49,1.96,1.2,2.7,2.13.74.93,1.3,2.07,1.69,3.42s.58,2.89.58,4.61c0,1.81-.22,3.46-.65,4.94-.43,1.49-1.06,2.76-1.89,3.81-.83,1.05-1.84,1.87-3.04,2.44s-2.56.86-4.1.86-2.93-.3-4.05-.91-2.07-1.51-2.88-2.7l-.16,2.76c-.04.37-.25.56-.61.56h-1.3v-32.62h2.15v14.19Zm0,13.56c.87,1.29,1.82,2.19,2.86,2.7,1.04.52,2.21.77,3.51.77s2.49-.24,3.49-.72c.99-.48,1.82-1.16,2.49-2.05.66-.89,1.16-1.97,1.49-3.24s.49-2.7.49-4.28c0-3.08-.61-5.4-1.84-6.95-1.23-1.55-2.94-2.33-5.16-2.33-1.58,0-2.97.38-4.15,1.14-1.18.76-2.24,1.82-3.18,3.18v11.77Z"/><path class="cls-13" d="m896.14,248.26v.43c0,1.67.19,3.15.58,4.42.39,1.27.94,2.33,1.66,3.19.72.86,1.58,1.51,2.6,1.94,1.02.43,2.15.65,3.41.65,1.12,0,2.09-.12,2.91-.37.82-.25,1.51-.52,2.07-.83s1-.58,1.33-.83c.33-.25.57-.37.72-.37.19,0,.34.07.45.22l.58.72c-.36.45-.83.87-1.42,1.25-.59.39-1.25.72-1.97,1s-1.5.5-2.33.66-1.66.25-2.5.25c-1.52,0-2.91-.26-4.17-.79-1.25-.53-2.33-1.3-3.23-2.32-.9-1.02-1.59-2.26-2.07-3.73s-.73-3.16-.73-5.05c0-1.6.23-3.08.68-4.43s1.11-2.52,1.97-3.5c.86-.98,1.91-1.74,3.16-2.3,1.25-.55,2.66-.83,4.25-.83,1.25,0,2.42.22,3.5.65s2.01,1.06,2.8,1.89c.79.83,1.42,1.85,1.87,3.06.46,1.21.68,2.6.68,4.17,0,.33-.04.55-.13.67-.09.12-.24.18-.45.18h-16.23Zm14.88-1.37c0-1.2-.17-2.27-.5-3.22-.34-.95-.81-1.75-1.42-2.41-.61-.66-1.34-1.16-2.19-1.51-.84-.35-1.78-.53-2.79-.53-1.15,0-2.18.18-3.09.54-.91.36-1.7.87-2.37,1.55-.67.67-1.2,1.48-1.6,2.42-.4.94-.67,2-.81,3.16h14.77Z"/></g><g class="cls-27"><path class="cls-13" d="m744.94,300.31c3.72,0,6.53.81,8.42,2.44s2.84,3.95,2.84,6.97c0,1.39-.26,2.67-.78,3.83-.52,1.17-1.27,2.17-2.24,3.02s-2.15,1.5-3.54,1.97c-1.39.47-2.95.71-4.68.71h-5.9v12.78h-2.31v-31.72h8.2Zm0,17.1c1.39,0,2.64-.19,3.74-.58,1.11-.39,2.04-.93,2.81-1.61s1.36-1.5,1.77-2.43c.41-.93.62-1.95.62-3.06,0-2.44-.75-4.31-2.24-5.63-1.49-1.32-3.73-1.97-6.7-1.97h-5.9v15.29h5.9Z"/><path class="cls-13" d="m766.1,313.5c1.03-1.26,2.21-2.26,3.53-3,1.32-.75,2.8-1.12,4.45-1.12,1.23,0,2.3.19,3.24.58.93.39,1.71.95,2.32,1.68.61.73,1.08,1.61,1.39,2.65s.47,2.2.47,3.5v14.26h-2.15v-14.26c0-2.09-.48-3.73-1.43-4.92-.96-1.19-2.41-1.78-4.37-1.78-1.45,0-2.81.37-4.07,1.11-1.26.74-2.39,1.77-3.37,3.08v16.77h-2.15v-32.62h2.15v14.08Z"/><path class="cls-13" d="m800,309.37c1.6,0,3.03.27,4.29.82s2.33,1.32,3.2,2.32c.87,1,1.53,2.21,1.98,3.62s.68,2.99.68,4.74-.23,3.33-.68,4.73c-.46,1.41-1.12,2.61-1.98,3.61-.87,1-1.93,1.77-3.2,2.31s-2.69.81-4.29.81-3.03-.27-4.29-.81-2.33-1.31-3.21-2.31c-.87-1-1.54-2.2-2-3.61-.46-1.4-.68-2.98-.68-4.73s.23-3.33.68-4.74,1.12-2.62,2-3.62c.88-1,1.94-1.77,3.21-2.32s2.69-.82,4.29-.82Zm0,21.27c1.33,0,2.49-.23,3.49-.68s1.82-1.11,2.49-1.96,1.16-1.88,1.49-3.08c.33-1.2.49-2.55.49-4.05s-.17-2.83-.49-4.04c-.33-1.21-.83-2.25-1.49-3.1s-1.49-1.52-2.49-1.98c-.99-.46-2.16-.7-3.49-.7s-2.49.23-3.49.7c-.99.46-1.82,1.12-2.49,1.98s-1.17,1.89-1.5,3.1c-.34,1.21-.5,2.56-.5,4.04s.17,2.84.5,4.05c.34,1.2.84,2.23,1.5,3.08s1.49,1.51,2.49,1.96,2.16.68,3.49.68Z"/><path class="cls-13" d="m824.45,332.39c-1.51,0-2.69-.42-3.53-1.25-.84-.84-1.27-2.13-1.27-3.88v-15.24h-3.21c-.16,0-.3-.04-.4-.13s-.16-.22-.16-.38v-.83l3.81-.27.54-7.98c.03-.13.09-.25.18-.36.09-.1.22-.16.38-.16h1.01v8.52h7.04v1.59h-7.04v15.13c0,.61.08,1.14.24,1.58.16.44.37.8.65,1.09.28.28.6.49.98.63.37.13.78.2,1.21.2.54,0,1-.08,1.39-.24.39-.16.72-.33,1.01-.52.28-.19.52-.36.7-.52s.32-.24.43-.24c.12,0,.24.08.36.22l.58.94c-.57.63-1.29,1.13-2.16,1.51s-1.78.57-2.72.57Z"/><path class="cls-13" d="m845.03,309.37c1.6,0,3.03.27,4.29.82s2.33,1.32,3.2,2.32c.87,1,1.53,2.21,1.98,3.62s.68,2.99.68,4.74-.23,3.33-.68,4.73c-.46,1.41-1.12,2.61-1.98,3.61-.87,1-1.93,1.77-3.2,2.31s-2.69.81-4.29.81-3.03-.27-4.29-.81-2.33-1.31-3.21-2.31c-.87-1-1.54-2.2-2-3.61-.46-1.4-.68-2.98-.68-4.73s.23-3.33.68-4.74,1.12-2.62,2-3.62c.88-1,1.94-1.77,3.21-2.32s2.69-.82,4.29-.82Zm0,21.27c1.33,0,2.49-.23,3.49-.68s1.82-1.11,2.49-1.96,1.16-1.88,1.49-3.08c.33-1.2.49-2.55.49-4.05s-.17-2.83-.49-4.04c-.33-1.21-.83-2.25-1.49-3.1s-1.49-1.52-2.49-1.98c-.99-.46-2.16-.7-3.49-.7s-2.49.23-3.49.7c-.99.46-1.82,1.12-2.49,1.98s-1.17,1.89-1.5,3.1c-.34,1.21-.5,2.56-.5,4.04s.17,2.84.5,4.05c.34,1.2.84,2.23,1.5,3.08s1.49,1.51,2.49,1.96,2.16.68,3.49.68Z"/><path class="cls-13" d="m876.03,312.49c-.12.21-.29.31-.52.31-.17,0-.37-.09-.63-.28-.25-.19-.59-.4-1.02-.63-.43-.23-.95-.44-1.58-.63-.63-.19-1.39-.28-2.29-.28-.81,0-1.54.12-2.21.35-.67.23-1.23.54-1.7.93s-.83.84-1.09,1.36-.38,1.06-.38,1.62c0,.7.18,1.29.54,1.75.36.46.83.86,1.4,1.19.58.33,1.24.61,1.98.85.75.24,1.5.48,2.28.72.77.24,1.53.5,2.28.8.75.29,1.41.65,1.98,1.09s1.04.96,1.4,1.59.54,1.39.54,2.29c0,.97-.17,1.88-.52,2.71s-.85,1.56-1.51,2.17c-.67.61-1.48,1.1-2.45,1.46-.97.36-2.08.54-3.34.54-1.57,0-2.92-.25-4.06-.75-1.14-.5-2.15-1.15-3.05-1.96l.49-.76c.07-.12.16-.21.26-.27.1-.06.23-.09.39-.09.19,0,.43.12.71.36.28.24.65.5,1.11.77.46.28,1.03.54,1.71.77.68.24,1.52.36,2.52.36.94,0,1.77-.13,2.49-.39.72-.26,1.32-.62,1.79-1.07.48-.45.84-.97,1.09-1.58.25-.61.37-1.24.37-1.92,0-.75-.18-1.37-.54-1.86s-.83-.91-1.41-1.25-1.24-.63-1.98-.87c-.74-.24-1.5-.48-2.28-.72s-1.54-.5-2.28-.78c-.74-.28-1.4-.64-1.98-1.08s-1.05-.96-1.41-1.58c-.36-.62-.54-1.39-.54-2.32,0-.79.17-1.55.52-2.29.34-.73.83-1.37,1.47-1.93.64-.55,1.41-.99,2.32-1.32s1.94-.49,3.07-.49c1.36,0,2.57.19,3.62.58s2.01.99,2.88,1.79l-.45.74Z"/><path class="cls-13" d="m887.53,313.5c1.03-1.26,2.21-2.26,3.53-3,1.32-.75,2.8-1.12,4.45-1.12,1.23,0,2.3.19,3.24.58.93.39,1.71.95,2.32,1.68.61.73,1.08,1.61,1.39,2.65s.47,2.2.47,3.5v14.26h-2.15v-14.26c0-2.09-.48-3.73-1.43-4.92-.96-1.19-2.41-1.78-4.37-1.78-1.45,0-2.81.37-4.07,1.11-1.26.74-2.39,1.77-3.37,3.08v16.77h-2.15v-32.62h2.15v14.08Z"/><path class="cls-13" d="m921.43,309.37c1.6,0,3.03.27,4.29.82s2.33,1.32,3.2,2.32c.87,1,1.53,2.21,1.98,3.62s.68,2.99.68,4.74-.23,3.33-.68,4.73c-.46,1.41-1.12,2.61-1.98,3.61-.87,1-1.93,1.77-3.2,2.31s-2.69.81-4.29.81-3.03-.27-4.29-.81-2.33-1.31-3.21-2.31c-.87-1-1.54-2.2-2-3.61-.46-1.4-.68-2.98-.68-4.73s.23-3.33.68-4.74,1.12-2.62,2-3.62c.88-1,1.94-1.77,3.21-2.32s2.69-.82,4.29-.82Zm0,21.27c1.33,0,2.49-.23,3.49-.68s1.82-1.11,2.49-1.96,1.16-1.88,1.49-3.08c.33-1.2.49-2.55.49-4.05s-.17-2.83-.49-4.04c-.33-1.21-.83-2.25-1.49-3.1s-1.49-1.52-2.49-1.98c-.99-.46-2.16-.7-3.49-.7s-2.49.23-3.49.7c-.99.46-1.82,1.12-2.49,1.98s-1.17,1.89-1.5,3.1c-.34,1.21-.5,2.56-.5,4.04s.17,2.84.5,4.05c.34,1.2.84,2.23,1.5,3.08s1.49,1.51,2.49,1.96,2.16.68,3.49.68Z"/><path class="cls-13" d="m942.23,313.74c.99-1.34,2.14-2.41,3.46-3.21s2.81-1.19,4.45-1.19c2.74,0,4.87.95,6.4,2.85,1.53,1.9,2.3,4.75,2.3,8.54,0,1.63-.21,3.15-.64,4.56-.43,1.41-1.05,2.64-1.88,3.68-.83,1.04-1.85,1.86-3.05,2.45-1.2.6-2.59.9-4.16.9s-2.82-.28-3.92-.83c-1.11-.55-2.06-1.37-2.87-2.44v10.87h-2.15v-30.2h1.19c.37,0,.59.19.65.56l.22,3.45Zm.09,13.43c.43.64.89,1.18,1.36,1.62.47.44.97.8,1.49,1.08.52.28,1.08.47,1.67.59.59.12,1.21.18,1.87.18,1.32,0,2.47-.24,3.45-.72.99-.48,1.81-1.15,2.48-2.03.66-.87,1.17-1.92,1.5-3.14.34-1.22.5-2.56.5-4.02,0-3.32-.61-5.76-1.84-7.32s-2.98-2.34-5.27-2.34c-1.48,0-2.82.38-4.01,1.14-1.2.76-2.26,1.82-3.21,3.18v11.77Z"/></g></g><g id="CSS" class="cls-27"><g class="cls-27"><path class="cls-13" d="m832.51,705.51c.15,0,.28.05.38.16l.9.96c-.66.7-1.37,1.33-2.14,1.89s-1.61,1.04-2.53,1.43c-.92.4-1.93.7-3.03.92-1.1.22-2.31.33-3.62.33-2.2,0-4.21-.38-6.04-1.15s-3.4-1.86-4.72-3.27c-1.31-1.41-2.33-3.12-3.06-5.12-.72-2-1.09-4.23-1.09-6.68s.37-4.6,1.12-6.59c.75-1.99,1.79-3.69,3.14-5.12,1.34-1.43,2.96-2.53,4.84-3.32s3.96-1.18,6.23-1.18,4.09.34,5.76,1.01,3.2,1.62,4.57,2.85l-.7,1.01c-.12.18-.31.27-.56.27-.18,0-.47-.17-.87-.49-.4-.33-.96-.69-1.68-1.09-.72-.4-1.61-.76-2.68-1.09-1.07-.33-2.35-.49-3.84-.49-1.91,0-3.67.33-5.26.99-1.59.66-2.96,1.6-4.1,2.82-1.14,1.23-2.04,2.72-2.68,4.48-.64,1.76-.96,3.74-.96,5.94s.33,4.24.97,6.01c.65,1.76,1.54,3.25,2.68,4.47,1.13,1.22,2.48,2.15,4.02,2.8,1.55.65,3.22.97,5.01.97,1.14,0,2.15-.07,3.04-.22.89-.15,1.71-.37,2.45-.67s1.44-.67,2.08-1.1c.64-.43,1.28-.94,1.91-1.52.07-.06.15-.11.22-.15.07-.04.15-.06.22-.06Z"/><path class="cls-13" d="m857.89,682.99c-.13.25-.33.38-.58.38-.2,0-.45-.14-.75-.42-.31-.28-.72-.58-1.24-.92-.52-.34-1.18-.65-1.96-.93-.78-.28-1.75-.43-2.9-.43s-2.16.17-3.04.49c-.87.33-1.61.78-2.2,1.34-.59.57-1.04,1.23-1.34,1.97-.31.75-.46,1.53-.46,2.35,0,1.08.23,1.96.68,2.67.46.7,1.06,1.3,1.8,1.79.75.49,1.59.91,2.54,1.24.95.34,1.92.67,2.93,1,1,.33,1.98.69,2.92,1.09.95.4,1.8.89,2.54,1.49s1.35,1.33,1.8,2.21.68,1.96.68,3.26-.23,2.58-.68,3.75c-.46,1.17-1.12,2.19-1.98,3.06s-1.93,1.55-3.18,2.05c-1.25.5-2.69.75-4.3.75-2.09,0-3.89-.37-5.4-1.11-1.51-.74-2.83-1.75-3.97-3.04l.63-.99c.18-.22.39-.34.63-.34.13,0,.31.09.52.27.21.18.46.4.76.66s.66.55,1.08.85c.42.31.9.59,1.46.85.55.26,1.19.48,1.91.66.72.18,1.53.27,2.44.27,1.25,0,2.38-.19,3.36-.57s1.82-.9,2.5-1.56c.68-.66,1.2-1.44,1.56-2.34s.54-1.87.54-2.9c0-1.12-.23-2.04-.68-2.77-.46-.72-1.06-1.33-1.8-1.82-.75-.49-1.6-.89-2.54-1.22s-1.92-.65-2.92-.96c-1-.31-1.98-.67-2.93-1.05s-1.8-.89-2.54-1.49c-.75-.6-1.35-1.36-1.8-2.26s-.68-2.04-.68-3.4c0-1.06.2-2.08.61-3.07s.99-1.86,1.77-2.61c.78-.75,1.74-1.36,2.88-1.82s2.45-.68,3.91-.68c1.64,0,3.12.26,4.43.78,1.31.52,2.5,1.32,3.58,2.4l-.54,1.03Z"/><path class="cls-13" d="m884.43,682.99c-.13.25-.33.38-.58.38-.2,0-.45-.14-.75-.42-.31-.28-.72-.58-1.24-.92-.52-.34-1.18-.65-1.96-.93-.78-.28-1.75-.43-2.9-.43s-2.16.17-3.04.49c-.87.33-1.61.78-2.2,1.34-.59.57-1.04,1.23-1.34,1.97-.31.75-.46,1.53-.46,2.35,0,1.08.23,1.96.68,2.67.46.7,1.06,1.3,1.8,1.79.75.49,1.59.91,2.54,1.24.95.34,1.92.67,2.93,1,1,.33,1.98.69,2.92,1.09.95.4,1.8.89,2.54,1.49s1.35,1.33,1.8,2.21.68,1.96.68,3.26-.23,2.58-.68,3.75c-.46,1.17-1.12,2.19-1.98,3.06s-1.93,1.55-3.18,2.05c-1.25.5-2.69.75-4.3.75-2.09,0-3.89-.37-5.4-1.11-1.51-.74-2.83-1.75-3.97-3.04l.63-.99c.18-.22.39-.34.63-.34.13,0,.31.09.52.27.21.18.46.4.76.66s.66.55,1.08.85c.42.31.9.59,1.46.85.55.26,1.19.48,1.91.66.72.18,1.53.27,2.44.27,1.25,0,2.38-.19,3.36-.57s1.82-.9,2.5-1.56c.68-.66,1.2-1.44,1.56-2.34s.54-1.87.54-2.9c0-1.12-.23-2.04-.68-2.77-.46-.72-1.06-1.33-1.8-1.82-.75-.49-1.6-.89-2.54-1.22s-1.92-.65-2.92-.96c-1-.31-1.98-.67-2.93-1.05s-1.8-.89-2.54-1.49c-.75-.6-1.35-1.36-1.8-2.26s-.68-2.04-.68-3.4c0-1.06.2-2.08.61-3.07s.99-1.86,1.77-2.61c.78-.75,1.74-1.36,2.88-1.82s2.45-.68,3.91-.68c1.64,0,3.12.26,4.43.78,1.31.52,2.5,1.32,3.58,2.4l-.54,1.03Z"/></g></g><g id="Javascript" class="cls-27"><g class="cls-27"><path class="cls-13" d="m1141.42,700.27c0,1.78-.22,3.35-.65,4.71-.43,1.36-1.06,2.5-1.88,3.43-.82.93-1.82,1.62-2.98,2.1-1.17.47-2.48.71-3.95.71-.67,0-1.35-.05-2.04-.16-.69-.11-1.4-.27-2.13-.49.01-.21.03-.42.06-.63s.05-.42.08-.63c.03-.13.08-.25.17-.36.08-.1.23-.16.44-.16.13,0,.29.03.48.08.19.05.41.11.66.17s.55.12.9.17.74.08,1.19.08c1.14,0,2.16-.18,3.07-.54.91-.36,1.69-.91,2.33-1.65.64-.74,1.13-1.67,1.47-2.8.34-1.13.5-2.46.5-3.98v-21.18h2.29v21.14Z"/><path class="cls-13" d="m1150.41,691.71c1.17-1.17,2.39-2.05,3.68-2.65s2.74-.9,4.37-.9c1.2,0,2.24.19,3.14.57.9.38,1.64.93,2.23,1.64s1.04,1.57,1.33,2.58.45,2.13.45,3.37v14.53h-.85c-.45,0-.73-.21-.83-.63l-.31-2.87c-.61.6-1.22,1.14-1.83,1.61-.6.48-1.24.88-1.89,1.21-.66.33-1.37.58-2.13.76-.76.18-1.6.27-2.51.27-.76,0-1.5-.11-2.22-.34-.72-.22-1.36-.57-1.92-1.03-.56-.46-1.01-1.06-1.34-1.78-.34-.72-.5-1.59-.5-2.61,0-.94.27-1.82.81-2.62.54-.81,1.38-1.51,2.53-2.11,1.15-.6,2.63-1.08,4.43-1.44,1.8-.36,3.96-.57,6.49-.63v-2.33c0-2.06-.44-3.65-1.33-4.76-.89-1.11-2.21-1.67-3.96-1.67-1.08,0-1.99.15-2.75.45s-1.39.63-1.92.99c-.52.36-.95.69-1.28.99-.33.3-.61.45-.83.45-.17,0-.3-.04-.4-.11-.11-.08-.2-.17-.27-.29l-.38-.65Zm13.11,8.36c-2.12.08-3.95.24-5.48.5-1.53.26-2.79.62-3.79,1.07-.99.45-1.73.98-2.21,1.6-.48.62-.72,1.33-.72,2.12,0,.75.12,1.39.37,1.94.25.54.58.99.99,1.34.41.35.88.61,1.42.77s1.1.25,1.68.25c.87,0,1.66-.09,2.39-.28.72-.19,1.4-.45,2.02-.78.62-.34,1.2-.74,1.74-1.2.54-.46,1.07-.96,1.59-1.5v-5.83Z"/><path class="cls-13" d="m1192.84,688.54l-9.42,22.3h-1.88l-9.42-22.3h1.68c.21,0,.38.06.52.17.13.11.22.24.27.37l7.38,17.6c.22.66.4,1.31.54,1.95.13-.64.32-1.29.56-1.95l7.4-17.6c.07-.16.18-.29.3-.39.13-.1.28-.15.46-.15h1.61Z"/><path class="cls-13" d="m1198.92,691.71c1.17-1.17,2.39-2.05,3.68-2.65s2.74-.9,4.37-.9c1.2,0,2.24.19,3.14.57.9.38,1.64.93,2.23,1.64s1.04,1.57,1.33,2.58.45,2.13.45,3.37v14.53h-.85c-.45,0-.73-.21-.83-.63l-.31-2.87c-.61.6-1.22,1.14-1.83,1.61-.6.48-1.24.88-1.89,1.21-.66.33-1.37.58-2.13.76-.76.18-1.6.27-2.51.27-.76,0-1.5-.11-2.22-.34-.72-.22-1.36-.57-1.92-1.03-.56-.46-1.01-1.06-1.34-1.78-.34-.72-.5-1.59-.5-2.61,0-.94.27-1.82.81-2.62.54-.81,1.38-1.51,2.53-2.11,1.15-.6,2.63-1.08,4.43-1.44,1.8-.36,3.96-.57,6.49-.63v-2.33c0-2.06-.44-3.65-1.33-4.76-.89-1.11-2.21-1.67-3.96-1.67-1.08,0-1.99.15-2.75.45s-1.39.63-1.92.99c-.52.36-.95.69-1.28.99-.33.3-.61.45-.83.45-.17,0-.3-.04-.4-.11-.11-.08-.2-.17-.27-.29l-.38-.65Zm13.11,8.36c-2.12.08-3.95.24-5.48.5-1.53.26-2.79.62-3.79,1.07-.99.45-1.73.98-2.21,1.6-.48.62-.72,1.33-.72,2.12,0,.75.12,1.39.37,1.94.25.54.58.99.99,1.34.41.35.88.61,1.42.77s1.1.25,1.68.25c.87,0,1.66-.09,2.39-.28.72-.19,1.4-.45,2.02-.78.62-.34,1.2-.74,1.74-1.2.54-.46,1.07-.96,1.59-1.5v-5.83Z"/><path class="cls-13" d="m1236.06,691.3c-.12.21-.29.31-.52.31-.17,0-.37-.09-.63-.28-.25-.19-.59-.4-1.02-.63-.43-.23-.95-.44-1.58-.63-.63-.19-1.39-.28-2.29-.28-.81,0-1.54.12-2.21.35-.67.23-1.23.54-1.7.93s-.83.84-1.09,1.36-.38,1.06-.38,1.62c0,.7.18,1.29.54,1.75.36.46.83.86,1.4,1.19.58.33,1.24.61,1.98.85.75.24,1.5.48,2.28.72.77.24,1.53.5,2.28.8.75.29,1.41.65,1.98,1.09s1.04.96,1.4,1.59.54,1.39.54,2.29c0,.97-.17,1.88-.52,2.71s-.85,1.56-1.51,2.17c-.67.61-1.48,1.1-2.45,1.46-.97.36-2.08.54-3.34.54-1.57,0-2.92-.25-4.06-.75-1.14-.5-2.15-1.15-3.05-1.96l.49-.76c.07-.12.16-.21.26-.27.1-.06.23-.09.39-.09.19,0,.43.12.71.36.28.24.65.5,1.11.77.46.28,1.03.54,1.71.77.68.24,1.52.36,2.52.36.94,0,1.77-.13,2.49-.39.72-.26,1.32-.62,1.79-1.07.48-.45.84-.97,1.09-1.58.25-.61.37-1.24.37-1.92,0-.75-.18-1.37-.54-1.86s-.83-.91-1.41-1.25-1.24-.63-1.98-.87c-.74-.24-1.5-.48-2.28-.72s-1.54-.5-2.28-.78c-.74-.28-1.4-.64-1.98-1.08s-1.05-.96-1.41-1.58c-.36-.62-.54-1.39-.54-2.32,0-.79.17-1.55.52-2.29.34-.73.83-1.37,1.47-1.93.64-.55,1.41-.99,2.32-1.32s1.94-.49,3.07-.49c1.36,0,2.57.19,3.62.58s2.01.99,2.88,1.79l-.45.74Z"/><path class="cls-13" d="m1260.4,691.53c-.08.08-.15.14-.21.19-.07.05-.16.08-.28.08-.15,0-.35-.1-.61-.3-.25-.2-.6-.42-1.03-.66s-.97-.46-1.62-.66c-.65-.2-1.44-.3-2.36-.3-1.29,0-2.42.23-3.42.68s-1.83,1.11-2.52,1.96c-.69.85-1.21,1.88-1.56,3.09-.35,1.21-.53,2.57-.53,4.08s.18,2.96.55,4.17c.37,1.21.89,2.23,1.56,3.06.67.83,1.49,1.46,2.44,1.89.96.43,2.02.65,3.18.65,1.08,0,1.98-.13,2.7-.38s1.32-.53,1.79-.83c.47-.3.84-.58,1.11-.83.27-.25.49-.38.67-.38s.33.07.45.22l.56.72c-.34.45-.78.87-1.3,1.25-.52.39-1.11.73-1.77,1.01-.66.28-1.37.5-2.14.66-.77.16-1.57.24-2.41.24-1.42,0-2.72-.26-3.89-.77-1.17-.51-2.18-1.26-3.03-2.24-.84-.98-1.5-2.18-1.97-3.6s-.71-3.03-.71-4.84c0-1.7.22-3.26.67-4.66.45-1.4,1.11-2.62,1.97-3.63.87-1.02,1.92-1.8,3.17-2.36s2.68-.84,4.29-.84c1.45,0,2.73.23,3.86.69,1.12.46,2.1,1.09,2.94,1.88l-.56.76Z"/><path class="cls-13" d="m1271.14,693.92c.34-.91.74-1.72,1.18-2.43.44-.71.95-1.31,1.52-1.8s1.22-.87,1.93-1.13c.71-.26,1.5-.39,2.36-.39.46,0,.92.04,1.37.12.45.08.84.23,1.19.44l-.18,1.48c-.07.24-.22.36-.43.36-.18,0-.45-.05-.82-.16-.37-.1-.85-.16-1.45-.16-.87,0-1.63.13-2.3.39-.67.26-1.26.65-1.79,1.18-.53.52-.99,1.17-1.39,1.94-.4.77-.76,1.66-1.09,2.66v14.44h-2.15v-22.3h1.14c.25,0,.43.05.54.16s.17.28.2.54l.16,4.68Z"/><path class="cls-13" d="m1290.8,680.86c0,.27-.06.52-.17.75-.11.23-.26.44-.44.62s-.39.32-.63.43-.49.16-.76.16-.52-.05-.76-.16-.45-.25-.63-.43c-.18-.18-.32-.38-.43-.62-.11-.23-.16-.48-.16-.75s.05-.53.16-.77c.1-.25.25-.46.43-.64.18-.18.39-.32.63-.43.24-.1.49-.16.76-.16s.52.05.76.16c.24.11.45.25.63.43.18.18.33.39.44.64.11.25.17.5.17.77Zm-.92,7.69v22.3h-2.13v-22.3h2.13Z"/><path class="cls-13" d="m1302.1,692.56c.99-1.34,2.14-2.41,3.46-3.21s2.81-1.19,4.45-1.19c2.74,0,4.87.95,6.4,2.85,1.53,1.9,2.3,4.75,2.3,8.54,0,1.63-.21,3.15-.64,4.56-.43,1.41-1.05,2.64-1.88,3.68-.83,1.04-1.85,1.86-3.05,2.45-1.2.6-2.59.9-4.16.9s-2.82-.28-3.92-.83c-1.11-.55-2.06-1.37-2.87-2.44v10.87h-2.15v-30.2h1.19c.37,0,.59.19.65.56l.22,3.45Zm.09,13.43c.43.64.89,1.18,1.36,1.62.47.44.97.8,1.49,1.08.52.28,1.08.47,1.67.59.59.12,1.21.18,1.87.18,1.32,0,2.47-.24,3.45-.72.99-.48,1.81-1.15,2.48-2.03.66-.87,1.17-1.92,1.5-3.14.34-1.22.5-2.56.5-4.02,0-3.32-.61-5.76-1.84-7.32s-2.98-2.34-5.27-2.34c-1.48,0-2.82.38-4.01,1.14-1.2.76-2.26,1.82-3.21,3.18v11.77Z"/><path class="cls-13" d="m1333.15,711.21c-1.51,0-2.69-.42-3.53-1.25-.84-.84-1.27-2.13-1.27-3.88v-15.24h-3.21c-.16,0-.3-.04-.4-.13s-.16-.22-.16-.38v-.83l3.81-.27.54-7.98c.03-.13.09-.25.18-.36.09-.1.22-.16.38-.16h1.01v8.52h7.04v1.59h-7.04v15.13c0,.61.08,1.14.24,1.58.16.44.37.8.65,1.09.28.28.6.49.98.63.37.13.78.2,1.21.2.54,0,1-.08,1.39-.24.39-.16.72-.33,1.01-.52.28-.19.52-.36.7-.52s.32-.24.43-.24c.12,0,.24.08.36.22l.58.94c-.57.63-1.29,1.13-2.16,1.51s-1.78.57-2.72.57Z"/></g></g><g id="Adobe_XD" class="cls-27"><g class="cls-27"><path class="cls-13" d="m1152.4,272.98h-1.77c-.21,0-.38-.06-.52-.17-.13-.11-.24-.26-.31-.44l-3.72-9.21h-15.58l-3.72,9.21c-.06.17-.17.31-.31.43-.15.12-.33.18-.54.18h-1.75l12.98-31.72h2.26l12.98,31.72Zm-7.02-11.52l-6.46-16.03c-.22-.52-.44-1.15-.65-1.88-.09.36-.19.7-.29,1.02s-.22.62-.34.89l-6.46,16h14.19Z"/><path class="cls-13" d="m1176.05,240.36v32.62h-1.17c-.39,0-.61-.19-.67-.58l-.22-3.52c-.99,1.35-2.14,2.41-3.45,3.21-1.32.79-2.79,1.19-4.44,1.19-2.75,0-4.89-.95-6.41-2.85-1.52-1.9-2.29-4.74-2.29-8.54,0-1.63.21-3.15.64-4.56.43-1.41,1.05-2.64,1.87-3.68.82-1.04,1.83-1.86,3.04-2.46s2.59-.9,4.16-.9,2.82.28,3.92.83c1.11.55,2.07,1.38,2.89,2.47v-13.23h2.13Zm-2.13,15.11c-.85-1.28-1.8-2.19-2.84-2.71-1.04-.52-2.22-.78-3.55-.78s-2.47.24-3.45.72c-.99.48-1.81,1.15-2.48,2.03-.67.88-1.17,1.92-1.5,3.14-.34,1.22-.5,2.56-.5,4.02,0,3.32.61,5.76,1.83,7.32,1.22,1.56,2.98,2.34,5.28,2.34,1.46,0,2.8-.38,4.01-1.14,1.21-.76,2.28-1.83,3.21-3.21v-11.72Z"/><path class="cls-13" d="m1194.79,250.31c1.6,0,3.03.27,4.29.82s2.33,1.32,3.2,2.32c.87,1,1.53,2.21,1.98,3.62s.68,2.99.68,4.74-.23,3.33-.68,4.73c-.46,1.41-1.12,2.61-1.98,3.61-.87,1-1.93,1.77-3.2,2.31s-2.69.81-4.29.81-3.03-.27-4.29-.81-2.33-1.31-3.21-2.31c-.87-1-1.54-2.2-2-3.61-.46-1.4-.68-2.98-.68-4.73s.23-3.33.68-4.74,1.12-2.62,2-3.62c.88-1,1.94-1.77,3.21-2.32s2.69-.82,4.29-.82Zm0,21.27c1.33,0,2.49-.23,3.49-.68s1.82-1.11,2.49-1.96,1.16-1.88,1.49-3.08c.33-1.2.49-2.55.49-4.05s-.17-2.83-.49-4.04c-.33-1.21-.83-2.25-1.49-3.1s-1.49-1.52-2.49-1.98c-.99-.46-2.16-.7-3.49-.7s-2.49.23-3.49.7c-.99.46-1.82,1.12-2.49,1.98s-1.17,1.89-1.5,3.1c-.34,1.21-.5,2.56-.5,4.04s.17,2.84.5,4.05c.34,1.2.84,2.23,1.5,3.08s1.49,1.51,2.49,1.96,2.16.68,3.49.68Z"/><path class="cls-13" d="m1215.68,254.55c.97-1.31,2.11-2.35,3.41-3.1,1.3-.75,2.81-1.13,4.53-1.13,1.34,0,2.55.25,3.61.74,1.06.49,1.96,1.2,2.7,2.13.74.93,1.3,2.07,1.69,3.42s.58,2.89.58,4.61c0,1.81-.22,3.46-.65,4.94-.43,1.49-1.06,2.76-1.89,3.81-.83,1.05-1.84,1.87-3.04,2.44s-2.56.86-4.1.86-2.93-.3-4.05-.91-2.07-1.51-2.88-2.7l-.16,2.76c-.04.37-.25.56-.61.56h-1.3v-32.62h2.15v14.19Zm0,13.56c.87,1.29,1.82,2.19,2.86,2.7,1.04.52,2.21.77,3.51.77s2.49-.24,3.49-.72c.99-.48,1.82-1.16,2.49-2.05.66-.89,1.16-1.97,1.49-3.24s.49-2.7.49-4.28c0-3.08-.61-5.4-1.84-6.95-1.23-1.55-2.94-2.33-5.16-2.33-1.58,0-2.97.38-4.15,1.14-1.18.76-2.24,1.82-3.18,3.18v11.77Z"/><path class="cls-13" d="m1241.55,260.94v.43c0,1.67.19,3.15.58,4.42.39,1.27.94,2.33,1.66,3.19.72.86,1.58,1.51,2.6,1.94,1.02.43,2.15.65,3.41.65,1.12,0,2.09-.12,2.91-.37.82-.25,1.51-.52,2.07-.83s1-.58,1.33-.83c.33-.25.57-.37.72-.37.19,0,.34.07.45.22l.58.72c-.36.45-.83.87-1.42,1.25-.59.39-1.25.72-1.97,1s-1.5.5-2.33.66-1.66.25-2.5.25c-1.52,0-2.91-.26-4.17-.79-1.25-.53-2.33-1.3-3.23-2.32-.9-1.02-1.59-2.26-2.07-3.73s-.73-3.16-.73-5.05c0-1.6.23-3.08.68-4.43s1.11-2.52,1.97-3.5c.86-.98,1.91-1.74,3.16-2.3,1.25-.55,2.66-.83,4.25-.83,1.25,0,2.42.22,3.5.65s2.01,1.06,2.8,1.89c.79.83,1.42,1.85,1.87,3.06.46,1.21.68,2.6.68,4.17,0,.33-.04.55-.13.67-.09.12-.24.18-.45.18h-16.23Zm14.88-1.37c0-1.2-.17-2.27-.5-3.22-.34-.95-.81-1.75-1.42-2.41-.61-.66-1.34-1.16-2.19-1.51-.84-.35-1.78-.53-2.79-.53-1.15,0-2.18.18-3.09.54-.91.36-1.7.87-2.37,1.55-.67.67-1.2,1.48-1.6,2.42-.4.94-.67,2-.81,3.16h14.77Z"/><path class="cls-13" d="m1304.77,272.98h-2.26c-.21,0-.37-.06-.49-.19-.12-.13-.22-.25-.29-.37l-10-14.64c-.06.22-.17.45-.31.67l-9.82,13.97c-.1.13-.21.26-.33.38-.11.12-.26.18-.44.18h-2.15l11.48-16.27-10.96-15.45h2.26c.21,0,.36.04.46.13.1.09.18.19.26.31l9.64,13.88c.09-.22.2-.45.34-.67l9.3-13.18c.07-.13.17-.25.28-.34s.24-.13.39-.13h2.2l-10.96,15.31,11.41,16.41Z"/><path class="cls-13" d="m1339.67,257.11c0,2.45-.37,4.66-1.1,6.61-.73,1.96-1.76,3.62-3.09,5s-2.93,2.43-4.79,3.16c-1.86.73-3.91,1.1-6.15,1.1h-11.59v-31.72h11.59c2.24,0,4.29.37,6.15,1.1s3.46,1.79,4.79,3.16,2.36,3.04,3.09,5c.73,1.96,1.1,4.16,1.1,6.59Zm-2.38,0c0-2.21-.31-4.18-.92-5.92-.61-1.73-1.48-3.2-2.6-4.39-1.12-1.2-2.47-2.11-4.03-2.73-1.57-.63-3.3-.94-5.2-.94h-9.28v28h9.28c1.9,0,3.63-.31,5.2-.94,1.57-.63,2.91-1.54,4.03-2.74,1.12-1.2,1.99-2.66,2.6-4.39.61-1.73.92-3.71.92-5.94Z"/></g></g><g id="Group_108"><g id="Ellipse_38"><circle class="cls-17" cx="465.25" cy="101.39" r="101.39"/><circle class="cls-5" cx="465.25" cy="101.39" r="94.67"/></g><g id="Group_36"><g class="cls-8"><g id="Group_35"><path id="Path_31" class="cls-10" d="m459.12,94.67c1.85,2.05,4.84,2.61,7.31,1.37,2.35-1.28,3.69-3.85,3.4-6.51-.59-6.37-8.03-8.43-13.11-5.91-5.29,3.29-8.27,9.29-7.71,15.49-.18,5.55,1.79,10.96,5.5,15.1,7.97,8.1,21.6,3.73,26.67-5.41,5.83-10.53,2.54-25.32-5.14-34.11-8.52-9.76-23.21-8.19-31.83.59-9.35,9.48-10.85,23.61-10.22,36.23-.02,5.57,1.4,11.05,4.12,15.91,3.46,4.86,8.86,7.97,14.79,8.54,7.11,1.16,14.38,1.65,21.55,2.21,6.04.48,13.03,1.12,17.36-4.03,3.34-5.13,5.2-11.09,5.38-17.21.99-7.19,1.4-14.46,1.23-21.72-.3-11.66-1.38-25.03-8.31-34.91-3.21-4.7-7.92-8.17-13.35-9.86-6.12-1.6-12.51-1.86-18.74-.78-11.54,1.06-22.44,5.75-31.15,13.41-9.61,9.3-11.87,23.1-13.54,35.77-2.46,13.42-.74,27.28,4.93,39.69,2.87,5.55,7,10.34,12.08,13.99,5.36,3.67,11.31,6.39,17.59,8.05,13.21,3.8,27.2,3.99,40.51.56,11.76-2.74,22.1-9.7,29.07-19.57,6.16-10.75,8.89-23.13,7.82-35.48-.79-24.09-7.55-52.77-31.91-63.54-5.2-2.36-10.88-3.47-16.59-3.22-2.27.12-2.29,3.65,0,3.54,10.51-.2,20.6,4.08,27.76,11.78,7.67,8.39,12.78,18.79,14.72,29.99,2.47,11.26,3.16,22.83,2.05,34.3-.78,10.92-5.69,21.13-13.73,28.56-8.38,6.82-18.6,10.99-29.36,11.99-12.45,1.52-25.09-.15-36.72-4.85-5.36-2.11-10.23-5.32-14.28-9.41-3.73-4.01-6.56-8.76-8.33-13.94-3.58-12.15-4.04-25.01-1.32-37.38.79-5.84,2.22-11.58,4.26-17.11,2.02-5.03,5.26-9.48,9.41-12.95,8.14-6.2,17.89-9.94,28.08-10.78,5.56-.88,11.24-.58,16.66.9,4.86,1.59,9,4.84,11.69,9.19,5.76,9,6.72,20.56,7.1,30.96.22,6.53-.04,13.07-.78,19.57-.37,3.23-.85,6.46-1.49,9.65-.39,2.44-1.17,4.79-2.31,6.98-3.03,5.27-9,4.89-14.32,4.48-6.57-.5-13.15-1.08-19.69-1.87-5.36-.09-10.47-2.28-14.23-6.1-2.79-4.05-4.31-8.84-4.36-13.76-.83-11.21-.07-24.03,7.25-33.18,3.29-4.31,8.07-7.23,13.4-8.19,5.32-.93,10.75.84,14.49,4.73,3.64,4.04,6.1,9,7.12,14.35,1.34,5.32.79,10.93-1.55,15.89-4.17,7.94-16.24,12.06-22.39,3.9-2.88-4.26-4.03-9.45-3.21-14.53.62-4.73,4.27-11.32,10.08-9.78,2.28.41,3.79,2.59,3.38,4.87,0,0,0,.01,0,.02-.3,1.41-1.68,2.31-3.09,2.01-.58-.12-1.11-.44-1.48-.9-1.46-1.75-3.96.76-2.51,2.5"/></g></g></g></g><g id="Group_112"><g id="Group_83"><g id="Ellipse_38-2"><circle class="cls-12" cx="465.25" cy="524.27" r="101.39"/><circle class="cls-7" cx="465.25" cy="524.27" r="94.67"/></g></g><g id="Group_36-2"><g class="cls-22"><g id="Group_35-2"><path id="Path_31-2" class="cls-14" d="m459.12,517.54c1.85,2.05,4.84,2.61,7.31,1.37,2.35-1.28,3.69-3.85,3.4-6.51-.59-6.37-8.03-8.43-13.11-5.91-5.29,3.29-8.27,9.29-7.71,15.49-.18,5.55,1.79,10.96,5.5,15.1,7.97,8.1,21.6,3.73,26.67-5.41,5.83-10.53,2.54-25.32-5.14-34.11-8.52-9.76-23.21-8.19-31.83.59-9.35,9.48-10.85,23.61-10.22,36.23-.02,5.57,1.4,11.05,4.12,15.91,3.46,4.86,8.86,7.97,14.79,8.54,7.11,1.16,14.38,1.65,21.55,2.21,6.04.48,13.03,1.12,17.36-4.03,3.34-5.13,5.2-11.09,5.38-17.21.99-7.19,1.4-14.46,1.23-21.72-.3-11.66-1.38-25.03-8.31-34.91-3.21-4.7-7.92-8.17-13.35-9.86-6.12-1.6-12.51-1.86-18.74-.78-11.54,1.06-22.44,5.75-31.15,13.41-9.61,9.3-11.87,23.1-13.54,35.77-2.46,13.42-.74,27.28,4.93,39.69,2.87,5.55,7,10.34,12.08,13.99,5.36,3.67,11.31,6.39,17.59,8.05,13.21,3.8,27.2,3.99,40.51.56,11.76-2.74,22.1-9.7,29.07-19.57,6.16-10.75,8.89-23.13,7.82-35.48-.79-24.09-7.55-52.77-31.91-63.54-5.2-2.36-10.88-3.47-16.59-3.22-2.27.12-2.29,3.65,0,3.54,10.51-.2,20.6,4.08,27.76,11.78,7.67,8.39,12.78,18.79,14.72,29.99,2.47,11.26,3.16,22.83,2.05,34.3-.78,10.92-5.69,21.13-13.73,28.56-8.38,6.82-18.6,10.99-29.36,11.99-12.45,1.52-25.09-.15-36.72-4.85-5.36-2.11-10.23-5.32-14.28-9.41-3.73-4.01-6.56-8.76-8.33-13.94-3.58-12.15-4.04-25.01-1.32-37.38.79-5.84,2.22-11.58,4.26-17.11,2.02-5.03,5.26-9.48,9.41-12.95,8.14-6.2,17.89-9.94,28.08-10.78,5.56-.88,11.24-.58,16.66.9,4.86,1.59,9,4.84,11.69,9.19,5.76,9,6.72,20.56,7.1,30.96.22,6.53-.04,13.07-.78,19.57-.37,3.23-.85,6.46-1.49,9.65-.39,2.44-1.17,4.79-2.31,6.98-3.03,5.27-9,4.89-14.32,4.48-6.57-.5-13.15-1.08-19.69-1.87-5.36-.09-10.47-2.28-14.23-6.1-2.79-4.05-4.31-8.84-4.36-13.76-.83-11.21-.07-24.03,7.25-33.18,3.29-4.31,8.07-7.23,13.4-8.19,5.32-.93,10.75.84,14.49,4.73,3.64,4.04,6.1,9,7.12,14.35,1.34,5.32.79,10.93-1.55,15.89-4.17,7.94-16.24,12.06-22.39,3.9-2.88-4.26-4.03-9.45-3.21-14.53.62-4.73,4.27-11.32,10.08-9.78,2.28.41,3.79,2.59,3.38,4.87,0,0,0,.01,0,.02-.3,1.41-1.68,2.31-3.09,2.01-.58-.12-1.11-.44-1.48-.9-1.46-1.75-3.96.76-2.51,2.5"/></g></g></g></g><g id="Group_109"><g id="Ellipse_42"><circle class="cls-16" cx="839.86" cy="101.39" r="101.39"/><circle class="cls-4" cx="839.86" cy="101.39" r="94.67"/></g><g id="Group_37"><g class="cls-25"><g id="Group_35-3"><path id="Path_31-3" class="cls-19" d="m825.53,94.67c1.85,2.05,4.84,2.61,7.31,1.37,2.35-1.28,3.69-3.85,3.4-6.51-.59-6.37-8.03-8.43-13.11-5.91-5.29,3.29-8.27,9.29-7.71,15.49-.18,5.55,1.79,10.96,5.5,15.1,7.97,8.1,21.6,3.73,26.67-5.41,5.83-10.53,2.54-25.32-5.14-34.11-8.52-9.76-23.21-8.19-31.83.59-9.35,9.48-10.85,23.61-10.22,36.23-.02,5.57,1.4,11.05,4.12,15.91,3.46,4.86,8.86,7.97,14.79,8.54,7.11,1.16,14.38,1.65,21.55,2.21,6.04.48,13.03,1.12,17.36-4.03,3.34-5.13,5.2-11.09,5.38-17.21.99-7.19,1.4-14.46,1.23-21.72-.3-11.66-1.38-25.03-8.31-34.91-3.21-4.7-7.92-8.17-13.35-9.86-6.12-1.6-12.51-1.86-18.74-.78-11.54,1.06-22.44,5.75-31.15,13.41-9.61,9.3-11.87,23.1-13.54,35.77-2.46,13.42-.74,27.28,4.93,39.69,2.87,5.55,7,10.34,12.08,13.99,5.36,3.67,11.31,6.39,17.59,8.05,13.21,3.8,27.2,3.99,40.51.56,11.76-2.74,22.1-9.7,29.07-19.57,6.16-10.75,8.89-23.13,7.82-35.48-.79-24.09-7.55-52.77-31.91-63.54-5.2-2.36-10.88-3.47-16.59-3.22-2.27.12-2.29,3.65,0,3.54,10.51-.2,20.6,4.08,27.76,11.78,7.67,8.39,12.78,18.79,14.72,29.99,2.47,11.26,3.16,22.83,2.05,34.3-.78,10.92-5.69,21.13-13.73,28.56-8.38,6.82-18.6,10.99-29.36,11.99-12.45,1.52-25.09-.15-36.72-4.85-5.36-2.11-10.23-5.32-14.28-9.41-3.73-4.01-6.56-8.76-8.33-13.94-3.58-12.15-4.04-25.01-1.32-37.38.79-5.84,2.22-11.58,4.26-17.11,2.02-5.03,5.26-9.48,9.41-12.95,8.14-6.2,17.89-9.94,28.08-10.78,5.56-.88,11.24-.58,16.66.9,4.86,1.59,9,4.84,11.69,9.19,5.76,9,6.72,20.56,7.1,30.96.22,6.53-.04,13.07-.78,19.57-.37,3.23-.85,6.46-1.49,9.65-.39,2.44-1.17,4.79-2.31,6.98-3.03,5.27-9,4.89-14.32,4.48-6.57-.5-13.15-1.08-19.69-1.87-5.36-.09-10.47-2.28-14.23-6.1-2.79-4.05-4.31-8.84-4.36-13.76-.83-11.21-.07-24.03,7.25-33.18,3.29-4.31,8.07-7.23,13.4-8.19,5.32-.93,10.75.84,14.49,4.73,3.64,4.04,6.1,9,7.12,14.35,1.34,5.32.79,10.93-1.55,15.89-4.17,7.94-16.24,12.06-22.39,3.9-2.88-4.26-4.03-9.45-3.21-14.53.62-4.73,4.27-11.32,10.08-9.78,2.28.41,3.79,2.59,3.38,4.87,0,0,0,.01,0,.02-.3,1.41-1.68,2.31-3.09,2.01-.58-.12-1.11-.44-1.48-.9-1.46-1.75-3.96.76-2.51,2.5"/></g></g></g></g><g id="Group_113"><g id="Group_81"><g id="Path_147"><path class="cls-11" d="m839.86,638.3c-12.78,0-25.18-2.5-36.85-7.44-11.27-4.77-21.4-11.59-30.09-20.29-8.7-8.7-15.52-18.82-20.29-30.09-4.93-11.67-7.44-24.06-7.44-36.85s2.5-25.18,7.44-36.85c4.77-11.27,11.59-21.4,20.29-30.09,8.7-8.7,18.82-15.52,30.09-20.29,11.67-4.93,24.06-7.44,36.85-7.44s25.18,2.5,36.85,7.44c11.27,4.77,21.4,11.59,30.09,20.29,8.7,8.7,15.52,18.82,20.29,30.09,4.93,11.67,7.44,24.06,7.44,36.85s-2.5,25.18-7.44,36.85c-4.77,11.27-11.59,21.4-20.29,30.09-8.7,8.7-18.82,15.52-30.09,20.29-11.67,4.93-24.06,7.44-36.85,7.44Z"/><path class="cls-18" d="m839.86,455.68c-23.49,0-45.58,9.15-62.19,25.76-16.61,16.61-25.76,38.7-25.76,62.19s9.15,45.58,25.76,62.19c16.61,16.61,38.7,25.76,62.19,25.76s45.58-9.15,62.19-25.76c16.61-16.61,25.76-38.7,25.76-62.19s-9.15-45.58-25.76-62.19c-16.61-16.61-38.7-25.76-62.19-25.76m0-13.45c56,0,101.4,45.4,101.4,101.4s-45.4,101.4-101.4,101.4-101.4-45.4-101.4-101.4,45.4-101.4,101.4-101.4Z"/></g><g id="Group_37-2"><g class="cls-24"><g id="Group_35-4"><path id="Path_31-4" class="cls-14" d="m825.53,536.9c1.85,2.05,4.84,2.61,7.31,1.37,2.35-1.28,3.69-3.85,3.4-6.51-.59-6.37-8.03-8.43-13.11-5.91-5.29,3.29-8.27,9.29-7.71,15.49-.18,5.55,1.79,10.96,5.5,15.1,7.97,8.1,21.6,3.73,26.67-5.41,5.83-10.53,2.54-25.32-5.14-34.11-8.52-9.76-23.21-8.19-31.83.59-9.35,9.48-10.85,23.61-10.22,36.23-.02,5.57,1.4,11.05,4.12,15.91,3.46,4.86,8.86,7.97,14.79,8.54,7.11,1.16,14.38,1.65,21.55,2.21,6.04.48,13.03,1.12,17.36-4.03,3.34-5.13,5.2-11.09,5.38-17.21.99-7.19,1.4-14.46,1.23-21.72-.3-11.66-1.38-25.03-8.31-34.91-3.21-4.7-7.92-8.17-13.35-9.86-6.12-1.6-12.51-1.86-18.74-.78-11.54,1.06-22.44,5.75-31.15,13.41-9.61,9.3-11.87,23.1-13.54,35.77-2.46,13.42-.74,27.28,4.93,39.69,2.87,5.55,7,10.34,12.08,13.99,5.36,3.67,11.31,6.39,17.59,8.05,13.21,3.8,27.2,3.99,40.51.56,11.76-2.74,22.1-9.7,29.07-19.57,6.16-10.75,8.89-23.13,7.82-35.48-.79-24.09-7.55-52.77-31.91-63.54-5.2-2.36-10.88-3.47-16.59-3.22-2.27.12-2.29,3.65,0,3.54,10.51-.2,20.6,4.08,27.76,11.78,7.67,8.39,12.78,18.79,14.72,29.99,2.47,11.26,3.16,22.83,2.05,34.3-.78,10.92-5.69,21.13-13.73,28.56-8.38,6.82-18.6,10.99-29.36,11.99-12.45,1.52-25.09-.15-36.72-4.85-5.36-2.11-10.23-5.32-14.28-9.41-3.73-4.01-6.56-8.76-8.33-13.94-3.58-12.15-4.04-25.01-1.32-37.38.79-5.84,2.22-11.58,4.26-17.11,2.02-5.03,5.26-9.48,9.41-12.95,8.14-6.2,17.89-9.94,28.08-10.78,5.56-.88,11.24-.58,16.66.9,4.86,1.59,9,4.84,11.69,9.19,5.76,9,6.72,20.56,7.1,30.96.22,6.53-.04,13.07-.78,19.57-.37,3.23-.85,6.46-1.49,9.65-.39,2.44-1.17,4.79-2.31,6.98-3.03,5.27-9,4.89-14.32,4.48-6.57-.5-13.15-1.08-19.69-1.87-5.36-.09-10.47-2.28-14.23-6.1-2.79-4.05-4.31-8.84-4.36-13.76-.83-11.21-.07-24.03,7.25-33.18,3.29-4.31,8.07-7.23,13.4-8.19,5.32-.93,10.75.84,14.49,4.73,3.64,4.04,6.1,9,7.12,14.35,1.34,5.32.79,10.93-1.55,15.89-4.17,7.94-16.24,12.06-22.39,3.9-2.88-4.26-4.03-9.45-3.21-14.53.62-4.73,4.27-11.32,10.08-9.78,2.28.41,3.79,2.59,3.38,4.87,0,0,0,.01,0,.02-.3,1.41-1.68,2.31-3.09,2.01-.58-.12-1.11-.44-1.48-.9-1.46-1.75-3.96.76-2.51,2.5"/></g></g></g></g></g><g id="Group_110"><g id="Ellipse_43"><circle class="cls-21" cx="1222.91" cy="101.39" r="101.39"/><circle class="cls-6" cx="1222.91" cy="101.39" r="94.67"/></g><g id="Group_38"><g class="cls-23"><g id="Group_35-5"><path id="Path_31-5" class="cls-9" d="m1212.24,94.67c1.85,2.05,4.84,2.61,7.31,1.37,2.35-1.28,3.69-3.85,3.4-6.51-.59-6.37-8.03-8.43-13.11-5.91-5.29,3.29-8.27,9.29-7.71,15.49-.18,5.55,1.79,10.96,5.5,15.1,7.97,8.1,21.6,3.73,26.67-5.41,5.83-10.53,2.54-25.32-5.14-34.11-8.52-9.76-23.21-8.19-31.83.59-9.35,9.48-10.85,23.61-10.22,36.23-.02,5.57,1.4,11.05,4.12,15.91,3.46,4.86,8.86,7.97,14.79,8.54,7.11,1.16,14.38,1.65,21.55,2.21,6.04.48,13.03,1.12,17.36-4.03,3.34-5.13,5.2-11.09,5.38-17.21.99-7.19,1.4-14.46,1.23-21.72-.3-11.66-1.38-25.03-8.31-34.91-3.21-4.7-7.92-8.17-13.35-9.86-6.12-1.6-12.51-1.86-18.74-.78-11.54,1.06-22.44,5.75-31.15,13.41-9.61,9.3-11.87,23.1-13.54,35.77-2.46,13.42-.74,27.28,4.93,39.69,2.87,5.55,7,10.34,12.08,13.99,5.36,3.67,11.31,6.39,17.59,8.05,13.21,3.8,27.2,3.99,40.51.56,11.76-2.74,22.1-9.7,29.07-19.57,6.16-10.75,8.89-23.13,7.82-35.48-.79-24.09-7.55-52.77-31.91-63.54-5.2-2.36-10.88-3.47-16.59-3.22-2.27.12-2.29,3.65,0,3.54,10.51-.2,20.6,4.08,27.76,11.78,7.67,8.39,12.78,18.79,14.72,29.99,2.47,11.26,3.16,22.83,2.05,34.3-.78,10.92-5.69,21.13-13.73,28.56-8.38,6.82-18.6,10.99-29.36,11.99-12.45,1.52-25.09-.15-36.72-4.85-5.36-2.11-10.23-5.32-14.28-9.41-3.73-4.01-6.56-8.76-8.33-13.94-3.58-12.15-4.04-25.01-1.32-37.38.79-5.84,2.22-11.58,4.26-17.11,2.02-5.03,5.26-9.48,9.41-12.95,8.14-6.2,17.89-9.94,28.08-10.78,5.56-.88,11.24-.58,16.66.9,4.86,1.59,9,4.84,11.69,9.19,5.76,9,6.72,20.56,7.1,30.96.22,6.53-.04,13.07-.78,19.57-.37,3.23-.85,6.46-1.49,9.65-.39,2.44-1.17,4.79-2.31,6.98-3.03,5.27-9,4.89-14.32,4.48-6.57-.5-13.15-1.08-19.69-1.87-5.36-.09-10.47-2.28-14.23-6.1-2.79-4.05-4.31-8.84-4.36-13.76-.83-11.21-.07-24.03,7.25-33.18,3.29-4.31,8.07-7.23,13.4-8.19,5.32-.93,10.75.84,14.49,4.73,3.64,4.04,6.1,9,7.12,14.35,1.34,5.32.79,10.93-1.55,15.89-4.17,7.94-16.24,12.06-22.39,3.9-2.88-4.26-4.03-9.45-3.21-14.53.62-4.73,4.27-11.32,10.08-9.78,2.28.41,3.79,2.59,3.38,4.87,0,0,0,.01,0,.02-.3,1.41-1.68,2.31-3.09,2.01-.58-.12-1.11-.44-1.48-.9-1.46-1.75-3.96.76-2.51,2.5"/></g></g></g></g><g id="Group_114"><g id="Group_82"><g id="Ellipse_43-2"><circle class="cls-20" cx="1222.91" cy="543.63" r="101.39"/><circle class="cls-3" cx="1222.91" cy="543.63" r="94.67"/></g><g id="Group_38-2"><g class="cls-26"><g id="Group_35-6"><path id="Path_31-6" class="cls-14" d="m1212.24,536.9c1.85,2.05,4.84,2.61,7.31,1.37,2.35-1.28,3.69-3.85,3.4-6.51-.59-6.37-8.03-8.43-13.11-5.91-5.29,3.29-8.27,9.29-7.71,15.49-.18,5.55,1.79,10.96,5.5,15.1,7.97,8.1,21.6,3.73,26.67-5.41,5.83-10.53,2.54-25.32-5.14-34.11-8.52-9.76-23.21-8.19-31.83.59-9.35,9.48-10.85,23.61-10.22,36.23-.02,5.57,1.4,11.05,4.12,15.91,3.46,4.86,8.86,7.97,14.79,8.54,7.11,1.16,14.38,1.65,21.55,2.21,6.04.48,13.03,1.12,17.36-4.03,3.34-5.13,5.2-11.09,5.38-17.21.99-7.19,1.4-14.46,1.23-21.72-.3-11.66-1.38-25.03-8.31-34.91-3.21-4.7-7.92-8.17-13.35-9.86-6.12-1.6-12.51-1.86-18.74-.78-11.54,1.06-22.44,5.75-31.15,13.41-9.61,9.3-11.87,23.1-13.54,35.77-2.46,13.42-.74,27.28,4.93,39.69,2.87,5.55,7,10.34,12.08,13.99,5.36,3.67,11.31,6.39,17.59,8.05,13.21,3.8,27.2,3.99,40.51.56,11.76-2.74,22.1-9.7,29.07-19.57,6.16-10.75,8.89-23.13,7.82-35.48-.79-24.09-7.55-52.77-31.91-63.54-5.2-2.36-10.88-3.47-16.59-3.22-2.27.12-2.29,3.65,0,3.54,10.51-.2,20.6,4.08,27.76,11.78,7.67,8.39,12.78,18.79,14.72,29.99,2.47,11.26,3.16,22.83,2.05,34.3-.78,10.92-5.69,21.13-13.73,28.56-8.38,6.82-18.6,10.99-29.36,11.99-12.45,1.52-25.09-.15-36.72-4.85-5.36-2.11-10.23-5.32-14.28-9.41-3.73-4.01-6.56-8.76-8.33-13.94-3.58-12.15-4.04-25.01-1.32-37.38.79-5.84,2.22-11.58,4.26-17.11,2.02-5.03,5.26-9.48,9.41-12.95,8.14-6.2,17.89-9.94,28.08-10.78,5.56-.88,11.24-.58,16.66.9,4.86,1.59,9,4.84,11.69,9.19,5.76,9,6.72,20.56,7.1,30.96.22,6.53-.04,13.07-.78,19.57-.37,3.23-.85,6.46-1.49,9.65-.39,2.44-1.17,4.79-2.31,6.98-3.03,5.27-9,4.89-14.32,4.48-6.57-.5-13.15-1.08-19.69-1.87-5.36-.09-10.47-2.28-14.23-6.1-2.79-4.05-4.31-8.84-4.36-13.76-.83-11.21-.07-24.03,7.25-33.18,3.29-4.31,8.07-7.23,13.4-8.19,5.32-.93,10.75.84,14.49,4.73,3.64,4.04,6.1,9,7.12,14.35,1.34,5.32.79,10.93-1.55,15.89-4.17,7.94-16.24,12.06-22.39,3.9-2.88-4.26-4.03-9.45-3.21-14.53.62-4.73,4.27-11.32,10.08-9.78,2.28.41,3.79,2.59,3.38,4.87,0,0,0,.01,0,.02-.3,1.41-1.68,2.31-3.09,2.01-.58-.12-1.11-.44-1.48-.9-1.46-1.75-3.96.76-2.51,2.5"/></g></g></g></g></g></svg>