<?xml version="1.0" encoding="UTF-8"?><svg id="Layer_18" xmlns="http://www.w3.org/2000/svg" width="226.57" height="239.34" viewBox="0 0 226.57 239.34"><defs><style>.cls-1{fill:#fbdfbb;}.cls-2{stroke-width:1.04px;}.cls-2,.cls-3{fill:none;stroke:#fbdfbb;stroke-miterlimit:10;}</style></defs><path class="cls-1" d="m69.17,37.91C73.09,17.77,91.95,1.01,112.64.51c22.75-.55,44.22,18.62,46.24,41.28,12.8-9.43,31.2-10.32,45.05-2.52s22.59,23.73,22.12,39.63c-.47,15.89-9.94,31.12-23.78,38.94,19.11,13.1,25.43,41.71,13.62,61.63-11.82,19.93-39.95,28.12-60.61,17.64-.16,20.11-16.7,38.8-36.63,41.41-19.94,2.6-40.73-11.21-46.05-30.59-.83-3.03-1.68-6.6-4.55-7.84-2.3-1-4.91-.04-7.3.71-20.48,6.48-44.99-4.91-53.24-24.75s.95-45.25,19.99-55.21C13.05,113.28,2.28,98.52.69,82.29c-1.58-16.24,6.65-33.33,20.94-41.22,14.28-7.88,33.88-5.33,44.88,6.71.89-3.29,1.77-6.58,2.66-9.87Zm86.25,82.98c0-22.37-18.13-40.5-40.5-40.5s-40.5,18.13-40.5,40.5,18.13,40.5,40.5,40.5,40.5-18.13,40.5-40.5Z"/><path class="cls-3" d="m69.17,37.91l.9-3.33"/><path class="cls-3" d="m69.17,37.91C73.09,17.77,91.95,1.01,112.64.51c22.75-.55,44.22,18.62,46.24,41.28,12.8-9.43,31.2-10.32,45.05-2.52s22.59,23.73,22.12,39.63c-.47,15.89-9.94,31.12-23.78,38.94,19.11,13.1,25.43,41.71,13.62,61.63-11.82,19.93-39.95,28.12-60.61,17.64-.16,20.11-16.7,38.8-36.63,41.41-19.94,2.6-40.73-11.21-46.05-30.59-.83-3.03-1.68-6.6-4.55-7.84-2.3-1-4.91-.04-7.3.71-20.48,6.48-44.99-4.91-53.24-24.75s.95-45.25,19.99-55.21C13.05,113.28,2.28,98.52.69,82.29c-1.58-16.24,6.65-33.33,20.94-41.22,14.28-7.88,33.88-5.33,44.88,6.71.89-3.29,1.77-6.58,2.66-9.87Z"/><path class="cls-3" d="m68.45,43.97c.08-2.04.33-4.07.72-6.06"/><circle class="cls-2" cx="114.92" cy="120.89" r="40.5"/></svg>