<?xml version="1.0" encoding="UTF-8"?><svg id="Layer_18" xmlns="http://www.w3.org/2000/svg" width="226.57" height="239.34" viewBox="0 0 226.57 239.34"><defs><style>.cls-1{fill:#cc5819;fill-rule:evenodd;}</style></defs><path class="cls-1" d="m107.52,5.67c-1.17.36-1.86,1.07-5.87,6.02-10.94,13.53-40.17,48.26-49.32,58.6-8.51,9.62-12.96,15.27-19.62,24.93-4.48,6.5-12.83,19.9-15.1,24.27-1.42,2.71-1.38,5.52.11,10.02.75,2.27,2.46,5.12,3.46,5.78.31.2,1.56.69,2.78,1.09,1.22.4,2.45.87,2.74,1.06.66.43,3.07,3.16,13.77,15.57,8.55,9.92,16.03,18.54,24.92,28.72,2.58,2.95,6.95,7.66,9.71,10.46,8.47,8.6,13.86,12.96,22.11,17.93,1.66,1,3.13,2.05,3.33,2.37.34.56.31.62-1.44,2.92-2.04,2.69-2.64,4-2.46,5.37.27,2.03,2.82,4.19,5.17,4.39,1.85.15,2.63-.22,4.21-2.03.77-.88,2.71-2.91,4.31-4.51,3.18-3.18,3.6-3.82,5.57-8.53.59-1.41,1.4-2.91,1.86-3.47,1.46-1.73,9.96-11.42,20.06-22.88,17.2-19.5,26.58-30.44,33.55-39.12,2.21-2.75,10.43-13.21,20-25.45,2.59-3.31,2.77-4.65,1.12-8.12-.73-1.53-1.03-1.91-1.84-2.39-1.5-.87-2.44-.96-3.7-.35-.59.28-1.64.56-2.34.61-3.02.22-4.86-1.67-12.98-13.31-17.27-24.75-35.4-51.16-48.45-70.59-11.86-17.67-12.16-18.09-13.03-18.75-.84-.63-1.82-.85-2.64-.6m-4.72,20.52c-1.77,1.8-16.11,18.6-22,25.78-9.23,11.24-37.84,48.48-45.08,58.66-1.92,2.7-4.37,5.97-5.43,7.27s-2.19,2.79-2.51,3.33c-.76,1.3-.79,2.7-.08,4.05,1.69,3.23,13.02,15.29,22.11,23.53,3.54,3.21,6.16,5.48,16.93,14.67,4.77,4.07,13.17,12.43,16.26,16.17,3.1,3.76,5.72,7.46,8.07,11.39,2.89,4.84,6.89,9.61,9.45,11.26,3.54,2.29,7.13,1.82,10.61-1.4.76-.71,2.81-2.95,4.54-4.98,1.73-2.03,10.81-12.65,20.16-23.59,24.26-28.38,28.29-33.13,33.2-39.14,10.41-12.73,11.35-14,10.68-14.43-.16-.11-1.78-.96-3.59-1.89-1.96-1.01-3.76-2.11-4.43-2.72-1.77-1.59-5.84-7.02-13.96-18.61-13.92-19.87-26.93-37.84-34.18-47.17-2.86-3.68-18.34-23.17-18.78-23.64-.2-.22-.63.1-1.96,1.45m4.96,24.64c-1.53.52-2.55,1.63-2.87,3.1-.12.58-.28,2.91-.35,5.18-.1,3.24-2.4,66.5-2.9,79.58-.06,1.54,0,3.26.11,3.83.45,2.13,2.55,3.65,5.4,3.92,1.99.19,2.94-.25,3.57-1.65.46-1.03.49-1.48.64-10.91.26-16.13.53-20.01,2.91-41.24.79-7.06,1.07-10.19.89-10.24-.18-.06-.25-3.56-.25-12.19,0-12.82-.07-13.81-1.09-16.12-.62-1.4-2.35-3.2-3.35-3.47-1.08-.3-1.27-.28-2.71.21m-16.97,8.59c-1.18,1.9-1.19,1.99-1.38,13.44-.25,15.45-1.63,54.44-2.67,75.89-.57,11.71-.57,14.63,0,16.83.24.93.65,2.13.92,2.65.68,1.33,2.73,3.42,4.28,4.36.73.44,1.58,1.2,1.94,1.72.88,1.28,6.04,6.47,7.98,8.03,2.31,1.86,3.77,2.47,5.65,2.36,1.7-.1,2.7-.65,3.31-1.81.3-.58.32-.87.1-1.84-.45-2-1.64-3.67-4.26-5.99-6.1-5.4-9.49-10.66-10.73-16.7-.4-1.96-.53-5.76-.26-7.82.65-4.96.76-7.72.82-19.56.07-14.62.23-17.27,2.93-46.72.26-2.85.32-5.48.24-10.51-.12-7.23-.32-8.87-1.41-11.29-.97-2.15-1.96-2.85-4.84-3.45-2.2-.45-2.07-.48-2.61.4m-15.34,6.93c-.86.39-1.85,1.52-2.79,3.19-1.39,2.48-9.02,15.17-13.81,23-5.71,9.32-9.42,14.93-14.57,22.02-5.28,7.28-5.4,7.45-5.51,8.42-.13,1.1.43,2.02,1.87,3.08,2.07,1.51,4.61,1.91,6.48,1,1.14-.55,3.06-2.61,5.16-5.54,2.38-3.32,3.23-3.54,7.7-1.96,6.06,2.14,7.87,3.19,8.94,5.19.88,1.64,1.06,3.32,1.29,12.39.32,12.62.6,13.54,5.3,17.14l1.67,1.28,1.27-.27c2.49-.52,2.83-1.2,2.66-5.3-.1-2.33-.25-3.14-1.13-6.15-.56-1.91-1.13-4.14-1.27-4.96-.53-3.04.79-42.5,1.69-50.63.18-1.62.68-5.41,1.11-8.41s.79-5.52.79-5.58.4-.28.89-.47l.89-.36-1.4-2.05c-.77-1.12-1.87-2.57-2.46-3.22-1.59-1.76-3.38-2.44-4.76-1.82m47.27,3.38c-.32.17-.84.7-1.16,1.16-1.33,1.92-1.28,1.4-1.39,15.78-.12,15.03-.46,33.05-.79,41.63-.27,7.02-.61,11.37-1.8,22.8-.5,4.8-.91,9.48-.91,10.42,0,2.68.73,3.99,2.81,5.06,1.15.58,3.23.9,4.24.65.8-.2,2.09-1.38,2.6-2.37.8-1.56,6.44-14.67,7.9-18.35,2.89-7.28,6.99-20.49,11.76-37.86,2.3-8.38,2.37-8.96,1.36-10.99-.95-1.89-1.74-2.58-3.11-2.71-.61-.06-1.38-.04-1.69.04-.72.18-2.27,1.56-2.71,2.41-.18.35-.88,2.92-1.56,5.72-2.21,9.11-6.58,25.71-7.31,27.79-.39,1.12-.81,2.04-.93,2.05-.12,0-.39-.23-.6-.53-.36-.51-.37-1.18-.08-11.05.56-19.05.78-28.75.8-35.1.02-6.91-.14-8.13-1.61-12.63-.81-2.47-1.38-3.18-3.04-3.8-1.4-.52-1.97-.55-2.76-.12m-55.29,28.48c-3.39,5.2-5.27,8.28-5.27,8.63,0,.7.65,1.61,1.6,2.24,1.3.86,5.99,3.69,6.12,3.69.06,0,.1-3.71.1-8.24v-8.24l-.5-.23c-.47-.21-.61-.06-2.05,2.14m84.47,5.05c-.31.31-.76,1.03-1.01,1.62-.98,2.29-10.42,40.54-10.63,43.09-.19,2.3.21,3.95,1.17,4.78,1.68,1.48,3.56,1.07,5.92-1.3,2.85-2.86,13.23-14.39,13.97-15.52.33-.51,1.68-4.27,1.68-4.69,0-.27-5.18-.04-6.28.29-.99.29-1.66.98-2.08,2.14-.18.49-.43,1.18-.57,1.54l-.25.65-.69-.65-.69-.65.12-2.05c.22-3.87.96-4.65,5.11-5.4,1.27-.23,2.56-.55,2.87-.71.79-.41,3.35-2.47,3.35-2.68,0-.28-2.63-2.65-3.31-2.99-.33-.16-1.2-.43-1.93-.58-1.81-.39-2.69-1.24-2.53-2.45.06-.47.32-1.31.57-1.88l.46-1.04,1.16.78c1.31.88,2.3.97,5.36.47l1.68-.27-.06-1.11c-.15-2.8-1.46-4.94-5.18-8.43-2.17-2.04-3.22-2.7-5.04-3.17-1.86-.48-2.5-.44-3.16.21"/></svg>