<?xml version="1.0" encoding="UTF-8"?><svg id="Layer_18" xmlns="http://www.w3.org/2000/svg" width="226.57" height="239.34" viewBox="0 0 226.57 239.34"><defs><style>.cls-1{fill:#fbdfbb;}</style></defs><g id="SVGRepo_iconCarrier"><path class="cls-1" d="m146.02,14.57c-3.76-.01-6.87,1.03-9.7,2.96-8.86,5.98-15.26,23.02-18.28,47.97l4.96,4.18c7.01-20.18,13.87-41.15,26.54-54.81-1.25-.19-2.41-.29-3.53-.29h0Zm12.67,3.11c-12.85,11.88-20.69,34.78-28.81,57.74l5.01,4.22c5.2-11.13,10.35-22.78,16.28-32.97,5.34-9.21,11.37-17.35,19.11-22.47-4.22-2.83-8.07-4.99-11.6-6.53h0Zm18.93,11.91c-7.05,3.64-13.31,11.16-19.02,20.92,12.2-7.45,20.74-11.32,27.7-13.54-1.53-1.41-3.15-2.86-4.92-4.33-1.25-1.07-2.51-2.08-3.76-3.05Zm15.5,14.14c-8.81,2.06-19.81,6.59-42.36,21.76-1.53,3.11-2.97,6.26-4.45,9.42,18.37-8.81,37.9-19.07,55.25-20.13-1.99-3.39-4.78-7.09-8.44-11.05h0Zm11.51,19.35c-2.78,0-5.8.42-9,1.11-3.43,4.18-5.8,9.88-6.96,15.63-.7,3.29-.93,6.63-.88,9.6,8.4-4.73,13.96-9.79,16.28-15.03,1.58-3.48,1.99-7.1.97-11.32h-.42Zm-20.88,4.59c-4.36,1.58-8.95,3.48-13.64,5.52-4.82,9.32-6.87,18.51-7.05,26.54,6.12-1.95,11.64-4.04,16.56-6.22-.56-4.64-.28-9.93.84-15.36.7-3.53,1.81-7.05,3.29-10.48Zm-69.64,5.43l-8.95,10.67,39.06,32.8,8.95-10.67-39.06-32.8Zm44.68,5.24c-5.47,2.55-10.95,5.15-16.38,7.61l12.48,10.44c.42-5.75,1.67-11.83,3.9-18.05h0Zm-59.01,11.83l-23.24,27.7,39.11,32.8,23.24-27.7-39.11-32.8Zm82.72,11.41c-4.82,2.09-10.16,4.04-15.87,5.85,3.8.42,8.68,1.11,13.64,2.23,5.2,1.16,10.39,2.88,14.06,4.92,3.67,2.09,5.47,4.22,5.75,6.36v.05c.37,2.92-.19,5.01-1.48,7.05-1.3,2.04-3.53,4.04-6.54,5.94-6.12,3.71-15.36,6.73-24.91,9.74-9.51,3.06-19.39,6.08-27.28,10.62-7.89,4.59-14.2,11.46-14.06,20.92.09,8.86,5.47,16.47,12.57,22.83,7.1,6.36,16.14,11.74,25.14,16.19,18,8.86,35.82,14.06,35.82,14.06l2.32-7.98s-17.26-5.06-34.42-13.59c-8.58-4.22-17.12-9.37-23.29-14.89-6.17-5.57-9.7-11.27-9.79-16.7-.09-5.94,3.29-9.74,9.88-13.59,6.63-3.8,16.1-6.87,25.66-9.88,9.56-3.02,19.21-6.03,26.72-10.62,3.71-2.27,7.01-5.01,9.23-8.58,2.27-3.53,3.29-7.93,2.69-12.57-.74-5.8-5.01-9.84-9.88-12.62-4.73-2.69-10.39-4.41-15.96-5.71h0Zm-111.3,22.69l-8.95,10.67,39.06,32.8,8.95-10.67-39.06-32.8h0Zm-18.84,16.84c-6.12,1.95-11.69,4.04-16.56,6.22.56,4.64.28,9.93-.85,15.36-.72,3.53-1.8,7.1-3.31,10.48,4.39-1.58,8.99-3.48,13.67-5.52,4.82-9.32,6.87-18.51,7.05-26.54Zm8.17,3.34c-.42,5.75-1.67,11.83-3.9,18.05,5.47-2.55,10.95-5.15,16.33-7.61l-2.41-2.04-10.02-8.4Zm-32.87,6.96c-8.39,4.73-13.98,9.79-16.32,15.03-1.55,3.48-1.98,7.1-.96,11.32,2.91.05,6.08-.37,9.45-1.11,3.42-4.18,5.77-9.88,6.94-15.63.68-3.29.94-6.63.89-9.6h0Zm52.86,9.79c-5.2,11.13-10.35,22.78-16.28,32.99-5.34,9.19-11.37,17.3-19.07,22.45,4.18,2.83,8.03,4.96,11.55,6.54,12.85-11.88,20.69-34.79,28.81-57.76l-5.01-4.22h0Zm-11.41,4.73c-18.37,8.81-37.94,19.07-55.23,20.13,1.99,3.39,4.77,7.1,8.42,11.04,8.85-2.04,19.81-6.63,42.36-21.76,1.53-3.11,2.97-6.26,4.45-9.42Zm23.29,5.24c-7.01,20.18-13.87,41.15-26.54,54.79,5.38.88,9.51-.14,13.22-2.64,8.86-5.98,15.26-23.01,18.28-47.97l-4.96-4.18Zm-35.58,19.16c-12.2,7.47-20.74,11.32-27.71,13.5,1.55,1.44,3.19,2.88,4.95,4.36,1.28,1.07,2.53,2.09,3.74,3.06,7.05-3.67,13.31-11.13,19.02-20.92Z"/></g></svg>